font.ufo
<glyph name="exclam" format="1">
  <advance width="241"/>
  <unicode hex="0021"/>
  <outline>
    <contour>
      <point x="166" y="229" type="line"/>
      <point x="171" y="722" type="line"/>
      <point x="70" y="722" type="line"/>
      <point x="76" y="229" type="line"/>
    </contour>
    <contour>
      <point x="167" y="39" type="curve"/>
      <point x="167" y="69"/>
      <point x="147" y="84"/>
      <point x="120" y="84" type="curve"/>
      <point x="93" y="84"/>
      <point x="75" y="67"/>
      <point x="75" y="39" type="curve"/>
      <point x="168" y="39"/>
      <point x="74" y="39"/>
      <point x="167" y="39" type="curve"/>
      <point x="167" y="7"/>
      <point x="148" y="-7"/>
      <point x="120" y="-7" type="curve"/>
      <point x="92" y="-7"/>
      <point x="75" y="8"/>
      <point x="75" y="39" type="curve"/>
      <point x="168" y="39"/>
      <point x="74" y="39"/>
    </contour>
  </outline>
</glyph>
<glyph name="quotedbl" format="1">
  <advance width="372"/>
  <unicode hex="0022"/>
  <outline>
    <contour>
      <point x="148" y="577" type="line"/>
      <point x="155" y="779" type="line"/>
      <point x="68" y="779" type="line"/>
      <point x="74" y="577" type="line"/>
    </contour>
    <contour>
      <point x="298" y="577" type="line"/>
      <point x="305" y="779" type="line"/>
      <point x="218" y="779" type="line"/>
      <point x="224" y="577" type="line"/>
    </contour>
  </outline>
</glyph>
<glyph name="numbersign" format="1">
  <advance width="497"/>
  <unicode hex="0023"/>
  <outline>
    <contour>
      <point x="44" y="231" type="line"/>
      <point x="394" y="231" type="line"/>
      <point x="410" y="300" type="line"/>
      <point x="59" y="300" type="line"/>
    </contour>
    <contour>
      <point x="87" y="459" type="line"/>
      <point x="438" y="459" type="line"/>
      <point x="454" y="527" type="line"/>
      <point x="101" y="527" type="line"/>
    </contour>
    <contour>
      <point x="308" y="39" type="line"/>
      <point x="446" y="722" type="line"/>
      <point x="360" y="722" type="line"/>
      <point x="222" y="39" type="line"/>
    </contour>
    <contour>
      <point x="137" y="46" type="line"/>
      <point x="274" y="722" type="line"/>
      <point x="187" y="722" type="line"/>
      <point x="55" y="46" type="line"/>
    </contour>
  </outline>
</glyph>
<glyph name="dollar" format="1">
  <advance width="430"/>
  <unicode hex="0024"/>
  <outline>
    <contour>
      <point x="130" y="95" type="curve"/>
      <point x="130" y="215"/>
      <point x="130" y="93"/>
      <point x="130" y="213" type="curve"/>
      <point x="61" y="213"/>
      <point x="130" y="213"/>
      <point x="61" y="213" type="curve"/>
      <point x="61" y="93"/>
      <point x="61" y="215"/>
      <point x="61" y="95" type="curve"/>
      <point x="130" y="95"/>
      <point x="61" y="95"/>
    </contour>
    <contour>
      <point x="287" y="634" type="curve"/>
      <point x="287" y="514"/>
      <point x="287" y="636"/>
      <point x="287" y="516" type="curve"/>
      <point x="356" y="516"/>
      <point x="287" y="516"/>
      <point x="356" y="516" type="curve"/>
      <point x="356" y="636"/>
      <point x="356" y="514"/>
      <point x="356" y="634" type="curve"/>
      <point x="287" y="634"/>
      <point x="356" y="634"/>
    </contour>
    <contour>
      <point x="248" y="-43" type="curve"/>
      <point x="248" y="-11"/>
      <point x="248" y="47"/>
      <point x="248" y="79" type="curve"/>
      <point x="162" y="79"/>
      <point x="248" y="79"/>
      <point x="162" y="79" type="curve"/>
      <point x="162" y="47"/>
      <point x="162" y="-11"/>
      <point x="162" y="-43" type="curve"/>
      <point x="248" y="-43"/>
      <point x="162" y="-43"/>
    </contour>
    <contour>
      <point x="255" y="650" type="curve"/>
      <point x="255" y="683"/>
      <point x="255" y="741"/>
      <point x="255" y="773" type="curve"/>
      <point x="170" y="773"/>
      <point x="255" y="773"/>
      <point x="170" y="773" type="curve"/>
      <point x="170" y="741"/>
      <point x="170" y="683"/>
      <point x="170" y="650" type="curve"/>
      <point x="255" y="650"/>
      <point x="170" y="650"/>
    </contour>
    <contour>
      <point x="61" y="95" type="curve"/>
      <point x="98" y="68"/>
      <point x="145" y="45"/>
      <point x="201" y="45" type="curve"/>
      <point x="311" y="45"/>
      <point x="384" y="116"/>
      <point x="384" y="210" type="curve"/>
      <point x="384" y="295"/>
      <point x="321" y="355"/>
      <point x="239" y="405" type="curve"/>
      <point x="184" y="440"/>
      <point x="146" y="472"/>
      <point x="146" y="531" type="curve"/>
      <point x="146" y="575"/>
      <point x="168" y="618"/>
      <point x="214" y="618" type="curve"/>
      <point x="255" y="618"/>
      <point x="282" y="601"/>
      <point x="313" y="576" type="curve"/>
      <point x="356" y="634"/>
      <point x="313" y="576"/>
      <point x="356" y="634" type="curve"/>
      <point x="313" y="667"/>
      <point x="274" y="686"/>
      <point x="218" y="686" type="curve"/>
      <point x="120" y="686"/>
      <point x="60" y="619"/>
      <point x="60" y="531" type="curve"/>
      <point x="60" y="447"/>
      <point x="109" y="391"/>
      <point x="189" y="343" type="curve"/>
      <point x="247" y="307"/>
      <point x="299" y="270"/>
      <point x="299" y="207" type="curve"/>
      <point x="299" y="156"/>
      <point x="265" y="113"/>
      <point x="209" y="113" type="curve"/>
      <point x="167" y="113"/>
      <point x="135" y="136"/>
      <point x="108" y="156" type="curve"/>
      <point x="61" y="95"/>
      <point x="108" y="156"/>
    </contour>
  </outline>
</glyph>
<glyph name="quotesingle" format="1">
  <advance width="223"/>
  <unicode hex="0027"/>
  <outline>
    <contour>
      <point x="148" y="577" type="line"/>
      <point x="155" y="779" type="line"/>
      <point x="68" y="779" type="line"/>
      <point x="74" y="577" type="line"/>
    </contour>
  </outline>
</glyph>
<glyph name="parenleft" format="1">
  <advance width="278"/>
  <unicode hex="0028"/>
  <outline>
    <contour>
      <point x="270" y="-219" type="curve"/>
      <point x="151" y="-40"/>
      <point x="130" y="114"/>
      <point x="130" y="326" type="curve"/>
      <point x="130" y="539"/>
      <point x="153" y="694"/>
      <point x="270" y="874" type="curve"/>
      <point x="217" y="918"/>
      <point x="270" y="874"/>
      <point x="217" y="918" type="curve"/>
      <point x="88" y="723"/>
      <point x="46" y="559"/>
      <point x="46" y="326" type="curve"/>
      <point x="46" y="92"/>
      <point x="89" y="-71"/>
      <point x="218" y="-267" type="curve"/>
      <point x="270" y="-219"/>
      <point x="218" y="-267"/>
    </contour>
  </outline>
</glyph>
<glyph name="parenright" format="1">
  <advance width="283"/>
  <unicode hex="0029"/>
  <outline>
    <contour>
      <point x="56" y="-282" type="curve"/>
      <point x="187" y="-78"/>
      <point x="238" y="88"/>
      <point x="238" y="328" type="curve"/>
      <point x="238" y="563"/>
      <point x="194" y="725"/>
      <point x="58" y="919" type="curve"/>
      <point x="7" y="872"/>
      <point x="58" y="919"/>
      <point x="7" y="872" type="curve"/>
      <point x="127" y="693"/>
      <point x="153" y="538"/>
      <point x="153" y="325" type="curve"/>
      <point x="153" y="107"/>
      <point x="119" y="-50"/>
      <point x="3" y="-237" type="curve"/>
      <point x="56" y="-282"/>
      <point x="3" y="-237"/>
    </contour>
  </outline>
</glyph>
<glyph name="comma" format="1">
  <advance width="228"/>
  <unicode hex="002C"/>
  <outline>
    <contour>
      <point x="52" y="-109" type="line"/>
      <point x="112" y="-98"/>
      <point x="152" y="-49"/>
      <point x="152" y="28" type="curve"/>
      <point x="152" y="86"/>
      <point x="133" y="117"/>
      <point x="102" y="117" type="curve"/>
      <point x="74" y="117"/>
      <point x="55" y="101"/>
      <point x="55" y="70" type="curve"/>
      <point x="55" y="46"/>
      <point x="67" y="28"/>
      <point x="91" y="25" type="curve"/>
      <point x="91" y="3"/>
      <point x="87" y="-44"/>
      <point x="44" y="-60" type="curve"/>
    </contour>
  </outline>
</glyph>
<glyph name="hyphen" format="1">
  <advance width="329"/>
  <unicode hex="002D"/>
  <outline>
    <contour>
      <point x="72" y="240" type="curve"/>
      <point x="134" y="240"/>
      <point x="197" y="240"/>
      <point x="258" y="240" type="curve"/>
      <point x="258" y="315"/>
      <point x="258" y="240"/>
      <point x="258" y="315" type="curve"/>
      <point x="197" y="315"/>
      <point x="134" y="315"/>
      <point x="72" y="315" type="curve"/>
      <point x="72" y="240"/>
      <point x="72" y="315"/>
    </contour>
  </outline>
</glyph>
<glyph name="period" format="1">
  <advance width="227"/>
  <unicode hex="002E"/>
  <outline>
    <contour>
      <point x="159" y="39" type="curve"/>
      <point x="159" y="69"/>
      <point x="140" y="84"/>
      <point x="113" y="84" type="curve"/>
      <point x="85" y="84"/>
      <point x="68" y="67"/>
      <point x="68" y="39" type="curve"/>
      <point x="161" y="39"/>
      <point x="66" y="39"/>
      <point x="159" y="39" type="curve"/>
      <point x="159" y="7"/>
      <point x="140" y="-7"/>
      <point x="113" y="-7" type="curve"/>
      <point x="85" y="-7"/>
      <point x="68" y="8"/>
      <point x="68" y="39" type="curve"/>
      <point x="161" y="39"/>
      <point x="66" y="39"/>
    </contour>
  </outline>
</glyph>
<glyph name="one" format="1">
  <advance width="356"/>
  <unicode hex="0031"/>
  <outline>
    <contour>
      <point x="207" y="0" type="curve"/>
      <point x="245" y="0"/>
      <point x="285" y="0"/>
      <point x="325" y="0" type="curve"/>
      <point x="325" y="69"/>
      <point x="325" y="0"/>
      <point x="325" y="69" type="curve"/>
      <point x="207" y="69"/>
      <point x="325" y="69"/>
      <point x="207" y="69" type="curve"/>
      <point x="207" y="0"/>
      <point x="207" y="69"/>
    </contour>
    <contour>
      <point x="207" y="69" type="curve"/>
      <point x="84" y="69"/>
      <point x="207" y="69"/>
      <point x="84" y="69" type="curve"/>
      <point x="84" y="0"/>
      <point x="84" y="69"/>
      <point x="84" y="0" type="curve"/>
      <point x="125" y="0"/>
      <point x="165" y="0"/>
      <point x="207" y="0" type="curve"/>
      <point x="207" y="69"/>
      <point x="207" y="0"/>
    </contour>
    <contour>
      <point x="84" y="508" type="curve"/>
      <point x="228" y="680"/>
      <point x="84" y="508"/>
      <point x="228" y="680" type="curve"/>
      <point x="163" y="722"/>
      <point x="228" y="680"/>
      <point x="163" y="722" type="curve"/>
      <point x="30" y="561"/>
      <point x="163" y="722"/>
      <point x="30" y="561" type="curve"/>
      <point x="84" y="508"/>
      <point x="30" y="561"/>
    </contour>
    <contour>
      <point x="248" y="0" type="curve"/>
      <point x="248" y="241"/>
      <point x="248" y="481"/>
      <point x="248" y="722" type="curve"/>
      <point x="163" y="722"/>
      <point x="248" y="722"/>
      <point x="163" y="722" type="curve"/>
      <point x="163" y="481"/>
      <point x="163" y="241"/>
      <point x="163" y="0" type="curve"/>
      <point x="248" y="0"/>
      <point x="163" y="0"/>
    </contour>
  </outline>
</glyph>
<glyph name="three" format="1">
  <advance width="416"/>
  <unicode hex="0033"/>
  <outline>
    <contour>
      <point x="48" y="59" type="curve"/>
      <point x="92" y="20"/>
      <point x="125" y="-5"/>
      <point x="181" y="-5" type="curve"/>
      <point x="301" y="-5"/>
      <point x="362" y="76"/>
      <point x="362" y="201" type="curve"/>
      <point x="362" y="320"/>
      <point x="270" y="398"/>
      <point x="125" y="398" type="curve"/>
      <point x="125" y="347"/>
      <point x="125" y="392"/>
      <point x="125" y="341" type="curve"/>
      <point x="221" y="341"/>
      <point x="278" y="280"/>
      <point x="278" y="198" type="curve"/>
      <point x="278" y="124"/>
      <point x="245" y="66"/>
      <point x="185" y="66" type="curve"/>
      <point x="146" y="66"/>
      <point x="124" y="83"/>
      <point x="96" y="108" type="curve"/>
      <point x="48" y="59"/>
      <point x="96" y="108"/>
    </contour>
    <contour>
      <point x="107" y="594" type="curve"/>
      <point x="118" y="620"/>
      <point x="143" y="656"/>
      <point x="179" y="656" type="curve"/>
      <point x="237" y="656"/>
      <point x="258" y="604"/>
      <point x="258" y="537" type="curve"/>
      <point x="258" y="465"/>
      <point x="208" y="412"/>
      <point x="125" y="412" type="curve"/>
      <point x="125" y="360"/>
      <point x="125" y="406"/>
      <point x="125" y="354" type="curve"/>
      <point x="253" y="354"/>
      <point x="340" y="426"/>
      <point x="340" y="539" type="curve"/>
      <point x="340" y="650"/>
      <point x="289" y="727"/>
      <point x="187" y="727" type="curve"/>
      <point x="123" y="727"/>
      <point x="73" y="681"/>
      <point x="50" y="635" type="curve"/>
      <point x="107" y="594"/>
      <point x="50" y="635"/>
    </contour>
  </outline>
</glyph>
<glyph name="four" format="1">
  <advance width="442"/>
  <unicode hex="0034"/>
  <outline>
    <contour>
      <point x="276" y="68" type="line"/>
      <point x="163" y="68" type="line"/>
      <point x="163" y="0" type="line"/>
      <point x="276" y="0" type="line"/>
    </contour>
    <contour>
      <point x="276" y="0" type="line"/>
      <point x="386" y="0" type="line"/>
      <point x="386" y="68" type="line"/>
      <point x="276" y="68" type="line"/>
    </contour>
    <contour>
      <point x="70" y="264" type="line"/>
      <point x="308" y="712" type="line"/>
      <point x="234" y="708" type="line"/>
      <point x="30" y="319" type="line"/>
    </contour>
    <contour>
      <point x="400" y="319" type="line"/>
      <point x="30" y="319" type="line"/>
      <point x="31" y="244" type="line"/>
      <point x="400" y="244" type="line"/>
    </contour>
    <contour>
      <point x="320" y="25" type="line"/>
      <point x="320" y="708" type="line"/>
      <point x="236" y="708" type="line"/>
      <point x="236" y="25" type="line"/>
    </contour>
  </outline>
</glyph>
<glyph name="seven" format="1">
  <advance width="401"/>
  <unicode hex="0037"/>
  <outline>
    <contour>
      <point x="124" y="567" type="line"/>
      <point x="124" y="665" type="line"/>
      <point x="55" y="665" type="line"/>
      <point x="55" y="567" type="line"/>
    </contour>
    <contour>
      <point x="55" y="654" type="line"/>
      <point x="382" y="654" type="line"/>
      <point x="382" y="722" type="line"/>
      <point x="55" y="722" type="line"/>
    </contour>
    <contour>
      <point x="332" y="722" type="line"/>
      <point x="59" y="0" type="line"/>
      <point x="143" y="0" type="line"/>
      <point x="382" y="654" type="line"/>
    </contour>
  </outline>
</glyph>
<glyph name="eight" format="1">
  <advance width="446"/>
  <unicode hex="0038"/>
  <outline>
    <contour>
      <point x="69" y="550" type="curve"/>
      <point x="69" y="456"/>
      <point x="120" y="407"/>
      <point x="198" y="353" type="curve"/>
      <point x="263" y="305"/>
      <point x="302" y="257"/>
      <point x="302" y="182" type="curve"/>
      <point x="302" y="118"/>
      <point x="281" y="67"/>
      <point x="223" y="67" type="curve"/>
      <point x="165" y="67"/>
      <point x="144" y="117"/>
      <point x="144" y="182" type="curve"/>
      <point x="144" y="259"/>
      <point x="184" y="303"/>
      <point x="250" y="352" type="curve"/>
      <point x="324" y="407"/>
      <point x="376" y="456"/>
      <point x="376" y="548" type="curve"/>
      <point x="376" y="656"/>
      <point x="327" y="727"/>
      <point x="223" y="727" type="curve"/>
      <point x="121" y="727"/>
      <point x="69" y="655"/>
      <point x="69" y="550" type="curve"/>
      <point x="156" y="550"/>
      <point x="69" y="550"/>
      <point x="156" y="550" type="curve"/>
      <point x="156" y="606"/>
      <point x="170" y="656"/>
      <point x="221" y="656" type="curve"/>
      <point x="273" y="656"/>
      <point x="290" y="608"/>
      <point x="290" y="548" type="curve"/>
      <point x="290" y="483"/>
      <point x="254" y="443"/>
      <point x="198" y="402" type="curve"/>
      <point x="112" y="340"/>
      <point x="57" y="287"/>
      <point x="57" y="182" type="curve"/>
      <point x="57" y="70"/>
      <point x="111" y="-5"/>
      <point x="219" y="-5" type="curve"/>
      <point x="329" y="-5"/>
      <point x="389" y="69"/>
      <point x="389" y="182" type="curve"/>
      <point x="389" y="286"/>
      <point x="335" y="343"/>
      <point x="250" y="403" type="curve"/>
      <point x="194" y="445"/>
      <point x="156" y="483"/>
      <point x="156" y="550" type="curve"/>
      <point x="69" y="550"/>
      <point x="156" y="550"/>
    </contour>
  </outline>
</glyph>
<glyph name="colon" format="1">
  <advance width="236"/>
  <unicode hex="003A"/>
  <outline>
    <contour>
      <point x="164" y="381" type="curve"/>
      <point x="164" y="411"/>
      <point x="145" y="427"/>
      <point x="117" y="427" type="curve"/>
      <point x="89" y="427"/>
      <point x="72" y="410"/>
      <point x="72" y="381" type="curve"/>
      <point x="165" y="381"/>
      <point x="70" y="381"/>
      <point x="164" y="381" type="curve"/>
      <point x="164" y="350"/>
      <point x="145" y="335"/>
      <point x="117" y="335" type="curve"/>
      <point x="89" y="335"/>
      <point x="72" y="351"/>
      <point x="72" y="381" type="curve"/>
      <point x="165" y="381"/>
      <point x="70" y="381"/>
    </contour>
    <contour>
      <point x="164" y="41" type="curve"/>
      <point x="164" y="72"/>
      <point x="145" y="87"/>
      <point x="117" y="87" type="curve"/>
      <point x="89" y="87"/>
      <point x="72" y="70"/>
      <point x="72" y="41" type="curve"/>
      <point x="165" y="41"/>
      <point x="71" y="41"/>
      <point x="164" y="41" type="curve"/>
      <point x="164" y="11"/>
      <point x="145" y="-4"/>
      <point x="117" y="-4" type="curve"/>
      <point x="89" y="-4"/>
      <point x="72" y="12"/>
      <point x="72" y="41" type="curve"/>
      <point x="165" y="41"/>
      <point x="71" y="41"/>
    </contour>
  </outline>
</glyph>
<glyph name="semicolon" format="1">
  <advance width="264"/>
  <unicode hex="003B"/>
  <outline>
    <contour>
      <point x="75" y="-169" type="line"/>
      <point x="140" y="-157"/>
      <point x="184" y="-108"/>
      <point x="184" y="-30" type="curve"/>
      <point x="184" y="27"/>
      <point x="163" y="58"/>
      <point x="129" y="58" type="curve"/>
      <point x="99" y="58"/>
      <point x="79" y="42"/>
      <point x="79" y="11" type="curve"/>
      <point x="79" y="-13"/>
      <point x="91" y="-31"/>
      <point x="118" y="-34" type="curve"/>
      <point x="118" y="-56"/>
      <point x="114" y="-103"/>
      <point x="67" y="-119" type="curve"/>
    </contour>
    <contour>
      <point x="179" y="400" type="curve"/>
      <point x="179" y="431"/>
      <point x="160" y="447"/>
      <point x="133" y="447" type="curve"/>
      <point x="105" y="447"/>
      <point x="88" y="429"/>
      <point x="88" y="400" type="curve"/>
      <point x="181" y="400"/>
      <point x="86" y="400"/>
      <point x="179" y="400" type="curve"/>
      <point x="179" y="370"/>
      <point x="161" y="355"/>
      <point x="133" y="355" type="curve"/>
      <point x="105" y="355"/>
      <point x="88" y="371"/>
      <point x="88" y="400" type="curve"/>
      <point x="181" y="400"/>
      <point x="86" y="400"/>
    </contour>
  </outline>
</glyph>
<glyph name="less" format="1">
  <advance width="486"/>
  <unicode hex="003C"/>
  <outline>
    <contour>
      <point x="423" y="608" type="curve"/>
      <point x="295" y="518"/>
      <point x="166" y="428"/>
      <point x="37" y="338" type="curve"/>
      <point x="37" y="262"/>
      <point x="37" y="338"/>
      <point x="37" y="262" type="curve"/>
      <point x="166" y="352"/>
      <point x="295" y="442"/>
      <point x="423" y="532" type="curve"/>
      <point x="423" y="608"/>
      <point x="423" y="532"/>
    </contour>
    <contour>
      <point x="431" y="74" type="curve"/>
      <point x="298" y="162"/>
      <point x="167" y="250"/>
      <point x="37" y="338" type="curve"/>
      <point x="37" y="262"/>
      <point x="37" y="338"/>
      <point x="37" y="262" type="curve"/>
      <point x="167" y="174"/>
      <point x="298" y="86"/>
      <point x="431" y="-2" type="curve"/>
      <point x="431" y="74"/>
      <point x="431" y="-2"/>
    </contour>
  </outline>
</glyph>
<glyph name="equal" format="1">
  <advance width="550"/>
  <unicode hex="003D"/>
  <outline>
    <contour>
      <point x="75" y="181" type="curve"/>
      <point x="208" y="181"/>
      <point x="342" y="181"/>
      <point x="475" y="181" type="curve"/>
      <point x="475" y="254"/>
      <point x="475" y="181"/>
      <point x="475" y="254" type="curve"/>
      <point x="342" y="254"/>
      <point x="208" y="254"/>
      <point x="75" y="254" type="curve"/>
      <point x="75" y="181"/>
      <point x="75" y="254"/>
    </contour>
    <contour>
      <point x="75" y="403" type="curve"/>
      <point x="208" y="403"/>
      <point x="342" y="403"/>
      <point x="475" y="403" type="curve"/>
      <point x="475" y="476"/>
      <point x="475" y="403"/>
      <point x="475" y="476" type="curve"/>
      <point x="342" y="476"/>
      <point x="208" y="476"/>
      <point x="75" y="476" type="curve"/>
      <point x="75" y="403"/>
      <point x="75" y="476"/>
    </contour>
  </outline>
</glyph>
<glyph name="greater" format="1">
  <advance width="487"/>
  <unicode hex="003E"/>
  <outline>
    <contour>
      <point x="63" y="-2" type="curve"/>
      <point x="192" y="88"/>
      <point x="321" y="178"/>
      <point x="451" y="268" type="curve"/>
      <point x="451" y="344"/>
      <point x="451" y="268"/>
      <point x="451" y="344" type="curve"/>
      <point x="321" y="254"/>
      <point x="192" y="164"/>
      <point x="63" y="74" type="curve"/>
      <point x="63" y="-2"/>
      <point x="63" y="74"/>
    </contour>
    <contour>
      <point x="57" y="532" type="curve"/>
      <point x="187" y="444"/>
      <point x="319" y="356"/>
      <point x="451" y="268" type="curve"/>
      <point x="451" y="344"/>
      <point x="451" y="268"/>
      <point x="451" y="344" type="curve"/>
      <point x="319" y="432"/>
      <point x="187" y="520"/>
      <point x="57" y="608" type="curve"/>
      <point x="57" y="532"/>
      <point x="57" y="608"/>
    </contour>
  </outline>
</glyph>
<glyph name="question" format="1">
  <advance width="415"/>
  <unicode hex="003F"/>
  <outline>
    <contour>
      <point x="159" y="358" type="curve"/>
      <point x="159" y="321"/>
      <point x="159" y="258"/>
      <point x="159" y="221" type="curve"/>
      <point x="238" y="221"/>
      <point x="159" y="221"/>
      <point x="238" y="221" type="curve"/>
      <point x="238" y="258"/>
      <point x="238" y="321"/>
      <point x="238" y="358" type="curve"/>
      <point x="159" y="358"/>
      <point x="238" y="358"/>
    </contour>
    <contour>
      <point x="93" y="601" type="line"/>
      <point x="117" y="635"/>
      <point x="141" y="659"/>
      <point x="184" y="659" type="curve"/>
      <point x="254" y="659"/>
      <point x="280" y="594"/>
      <point x="280" y="518" type="curve"/>
      <point x="280" y="431"/>
      <point x="247" y="358"/>
      <point x="169" y="358" type="curve"/>
      <point x="169" y="326"/>
      <point x="169" y="324"/>
      <point x="169" y="292" type="curve"/>
      <point x="295" y="292"/>
      <point x="364" y="388"/>
      <point x="364" y="518" type="curve"/>
      <point x="364" y="642"/>
      <point x="300" y="732"/>
      <point x="188" y="732" type="curve"/>
      <point x="119" y="732"/>
      <point x="76" y="703"/>
      <point x="45" y="655" type="curve"/>
    </contour>
    <contour>
      <point x="245" y="42" type="curve"/>
      <point x="245" y="72"/>
      <point x="225" y="89"/>
      <point x="198" y="89" type="curve"/>
      <point x="170" y="89"/>
      <point x="153" y="71"/>
      <point x="153" y="42" type="curve"/>
      <point x="245" y="42"/>
      <point x="153" y="42"/>
      <point x="245" y="42" type="curve"/>
      <point x="245" y="11"/>
      <point x="226" y="-3"/>
      <point x="198" y="-3" type="curve"/>
      <point x="170" y="-3"/>
      <point x="153" y="12"/>
      <point x="153" y="42" type="curve"/>
      <point x="245" y="42"/>
      <point x="153" y="42"/>
    </contour>
  </outline>
</glyph>
<glyph name="at" format="1">
  <advance width="613"/>
  <unicode hex="0040"/>
  <outline>
    <contour>
      <point x="401" y="-54" type="curve"/>
      <point x="375" y="-76"/>
      <point x="353" y="-85"/>
      <point x="318" y="-85" type="curve"/>
      <point x="181" y="-85"/>
      <point x="127" y="43"/>
      <point x="127" y="200" type="curve"/>
      <point x="127" y="352"/>
      <point x="179" y="477"/>
      <point x="311" y="477" type="curve"/>
      <point x="437" y="477"/>
      <point x="486" y="355"/>
      <point x="486" y="210" type="curve"/>
      <point x="486" y="145"/>
      <point x="489" y="85"/>
      <point x="460" y="85" type="curve"/>
      <point x="428" y="85"/>
      <point x="433" y="141"/>
      <point x="433" y="205" type="curve"/>
      <point x="433" y="307"/>
      <point x="398" y="389"/>
      <point x="307" y="389" type="curve"/>
      <point x="208" y="389"/>
      <point x="179" y="310"/>
      <point x="179" y="203" type="curve"/>
      <point x="179" y="93"/>
      <point x="203" y="9"/>
      <point x="301" y="9" type="curve"/>
      <point x="390" y="9"/>
      <point x="412" y="89"/>
      <point x="420" y="190" type="curve"/>
      <point x="366" y="202"/>
      <point x="420" y="190"/>
      <point x="366" y="202" type="curve"/>
      <point x="357" y="142"/>
      <point x="360" y="77"/>
      <point x="309" y="77" type="curve"/>
      <point x="258" y="77"/>
      <point x="254" y="138"/>
      <point x="254" y="207" type="curve"/>
      <point x="254" y="267"/>
      <point x="256" y="320"/>
      <point x="303" y="320" type="curve"/>
      <point x="356" y="320"/>
      <point x="354" y="264"/>
      <point x="354" y="201" type="curve"/>
      <point x="354" y="103"/>
      <point x="367" y="21"/>
      <point x="453" y="21" type="curve"/>
      <point x="544" y="21"/>
      <point x="559" y="106"/>
      <point x="559" y="213" type="curve"/>
      <point x="559" y="403"/>
      <point x="487" y="549"/>
      <point x="313" y="549" type="curve"/>
      <point x="128" y="549"/>
      <point x="51" y="398"/>
      <point x="51" y="197" type="curve"/>
      <point x="51" y="-4"/>
      <point x="132" y="-154"/>
      <point x="314" y="-154" type="curve"/>
      <point x="366" y="-154"/>
      <point x="393" y="-145"/>
      <point x="436" y="-113" type="curve"/>
      <point x="401" y="-54"/>
      <point x="436" y="-113"/>
    </contour>
  </outline>
</glyph>
<glyph name="B" format="1">
  <advance width="516"/>
  <unicode hex="0042"/>
  <outline>
    <contour>
      <point x="167" y="722" type="curve"/>
      <point x="125" y="722"/>
      <point x="93" y="722"/>
      <point x="51" y="722" type="curve"/>
      <point x="51" y="654"/>
      <point x="51" y="722"/>
      <point x="51" y="654" type="curve"/>
      <point x="178" y="654"/>
      <point x="40" y="654"/>
      <point x="167" y="654" type="curve"/>
      <point x="167" y="722"/>
      <point x="167" y="654"/>
    </contour>
    <contour>
      <point x="166" y="68" type="curve"/>
      <point x="39" y="68"/>
      <point x="177" y="68"/>
      <point x="50" y="68" type="curve"/>
      <point x="50" y="0"/>
      <point x="50" y="68"/>
      <point x="50" y="0" type="curve"/>
      <point x="93" y="0"/>
      <point x="125" y="0"/>
      <point x="166" y="0" type="curve"/>
      <point x="166" y="68"/>
      <point x="166" y="0"/>
    </contour>
    <contour>
      <point x="160" y="654" type="curve"/>
      <point x="201" y="654"/>
      <point x="222" y="654"/>
      <point x="262" y="654" type="curve"/>
      <point x="325" y="654"/>
      <point x="349" y="608"/>
      <point x="349" y="545" type="curve"/>
      <point x="349" y="487"/>
      <point x="329" y="441"/>
      <point x="274" y="441" type="curve"/>
      <point x="230" y="441"/>
      <point x="206" y="441"/>
      <point x="160" y="441" type="curve"/>
      <point x="160" y="422"/>
      <point x="160" y="391"/>
      <point x="160" y="372" type="curve"/>
      <point x="194" y="372"/>
      <point x="214" y="372"/>
      <point x="248" y="372" type="curve"/>
      <point x="352" y="372"/>
      <point x="434" y="431"/>
      <point x="434" y="542" type="curve"/>
      <point x="434" y="652"/>
      <point x="375" y="722"/>
      <point x="268" y="722" type="curve"/>
      <point x="226" y="722"/>
      <point x="203" y="722"/>
      <point x="160" y="722" type="curve"/>
      <point x="160" y="703"/>
      <point x="160" y="673"/>
    </contour>
    <contour>
      <point x="213" y="0" type="curve"/>
      <point x="213" y="241"/>
      <point x="213" y="481"/>
      <point x="213" y="722" type="curve"/>
      <point x="123" y="722"/>
      <point x="213" y="722"/>
      <point x="123" y="722" type="curve"/>
      <point x="123" y="481"/>
      <point x="123" y="241"/>
      <point x="123" y="0" type="curve"/>
      <point x="213" y="0"/>
      <point x="123" y="0"/>
    </contour>
    <contour>
      <point x="160" y="372" type="curve"/>
      <point x="206" y="372"/>
      <point x="230" y="372"/>
      <point x="274" y="372" type="curve"/>
      <point x="355" y="372"/>
      <point x="378" y="302"/>
      <point x="378" y="217" type="curve"/>
      <point x="378" y="132"/>
      <point x="345" y="68"/>
      <point x="266" y="68" type="curve"/>
      <point x="224" y="68"/>
      <point x="203" y="68"/>
      <point x="160" y="68" type="curve"/>
      <point x="160" y="49"/>
      <point x="160" y="19"/>
      <point x="160" y="0" type="curve"/>
      <point x="204" y="0"/>
      <point x="228" y="0"/>
      <point x="272" y="0" type="curve"/>
      <point x="396" y="0"/>
      <point x="465" y="85"/>
      <point x="465" y="215" type="curve"/>
      <point x="465" y="354"/>
      <point x="383" y="441"/>
      <point x="248" y="441" type="curve"/>
      <point x="214" y="441"/>
      <point x="194" y="441"/>
      <point x="160" y="441" type="curve"/>
      <point x="160" y="422"/>
      <point x="160" y="391"/>
    </contour>
  </outline>
</glyph>
<glyph name="C" format="1">
  <advance width="516"/>
  <unicode hex="0043"/>
  <outline>
    <contour>
      <point x="288" y="801" type="move" name="top"/>
    </contour>
    <contour>
      <point x="304" y="-1" type="move" name="bottom"/>
    </contour>
    <contour>
      <point x="389" y="654" type="curve"/>
      <point x="389" y="534"/>
      <point x="389" y="659"/>
      <point x="389" y="539" type="curve"/>
      <point x="458" y="539"/>
      <point x="389" y="539"/>
      <point x="458" y="539" type="curve"/>
      <point x="458" y="659"/>
      <point x="458" y="534"/>
      <point x="458" y="654" type="curve"/>
      <point x="389" y="654"/>
      <point x="458" y="654"/>
    </contour>
    <contour>
      <point x="458" y="654" type="curve"/>
      <point x="414" y="696"/>
      <point x="358" y="727"/>
      <point x="292" y="727" type="curve"/>
      <point x="110" y="727"/>
      <point x="55" y="559"/>
      <point x="55" y="345" type="curve"/>
      <point x="55" y="149"/>
      <point x="109" y="-5"/>
      <point x="280" y="-5" type="curve"/>
      <point x="367" y="-5"/>
      <point x="423" y="32"/>
      <point x="471" y="99" type="curve"/>
      <point x="418" y="149"/>
      <point x="471" y="99"/>
      <point x="418" y="149" type="curve"/>
      <point x="381" y="101"/>
      <point x="346" y="68"/>
      <point x="284" y="68" type="curve"/>
      <point x="160" y="68"/>
      <point x="142" y="197"/>
      <point x="142" y="348" type="curve"/>
      <point x="142" y="513"/>
      <point x="158" y="655"/>
      <point x="289" y="655" type="curve"/>
      <point x="338" y="655"/>
      <point x="380" y="631"/>
      <point x="412" y="600" type="curve"/>
      <point x="458" y="654"/>
      <point x="412" y="600"/>
    </contour>
  </outline>
</glyph>
<glyph name="D" format="1">
  <advance width="588"/>
  <unicode hex="0044"/>
  <outline>
    <contour>
      <point x="257" y="801" type="move" name="top"/>
    </contour>
    <contour>
      <point x="171" y="68" type="curve"/>
      <point x="41" y="68"/>
      <point x="181" y="68"/>
      <point x="52" y="68" type="curve"/>
      <point x="52" y="0"/>
      <point x="52" y="68"/>
      <point x="52" y="0" type="curve"/>
      <point x="95" y="0"/>
      <point x="128" y="0"/>
      <point x="171" y="0" type="curve"/>
      <point x="171" y="68"/>
      <point x="171" y="0"/>
    </contour>
    <contour>
      <point x="171" y="722" type="curve"/>
      <point x="128" y="722"/>
      <point x="95" y="722"/>
      <point x="52" y="722" type="curve"/>
      <point x="52" y="654"/>
      <point x="52" y="722"/>
      <point x="52" y="654" type="curve"/>
      <point x="181" y="654"/>
      <point x="41" y="654"/>
      <point x="171" y="654" type="curve"/>
      <point x="171" y="722"/>
      <point x="171" y="654"/>
    </contour>
    <contour>
      <point x="126" y="722" type="curve"/>
      <point x="126" y="481"/>
      <point x="126" y="241"/>
      <point x="126" y="0" type="curve"/>
      <point x="212" y="0"/>
      <point x="126" y="0"/>
      <point x="212" y="0" type="curve"/>
      <point x="212" y="241"/>
      <point x="212" y="481"/>
      <point x="212" y="722" type="curve"/>
      <point x="126" y="722"/>
      <point x="212" y="722"/>
    </contour>
    <contour>
      <point x="171" y="0" type="curve"/>
      <point x="211" y="0"/>
      <point x="242" y="0"/>
      <point x="283" y="0" type="curve"/>
      <point x="468" y="0"/>
      <point x="534" y="149"/>
      <point x="534" y="355" type="curve"/>
      <point x="534" y="568"/>
      <point x="468" y="722"/>
      <point x="279" y="722" type="curve"/>
      <point x="241" y="722"/>
      <point x="209" y="722"/>
      <point x="171" y="722" type="curve"/>
      <point x="171" y="661"/>
      <point x="171" y="715"/>
      <point x="171" y="654" type="curve"/>
      <point x="209" y="654"/>
      <point x="237" y="654"/>
      <point x="276" y="654" type="curve"/>
      <point x="418" y="654"/>
      <point x="448" y="521"/>
      <point x="448" y="354" type="curve"/>
      <point x="448" y="197"/>
      <point x="424" y="68"/>
      <point x="291" y="68" type="curve"/>
      <point x="248" y="68"/>
      <point x="213" y="68"/>
      <point x="171" y="68" type="curve"/>
      <point x="171" y="7"/>
      <point x="171" y="61"/>
    </contour>
  </outline>
</glyph>
<glyph name="F" format="1">
  <advance width="460"/>
  <unicode hex="0046"/>
  <outline>
    <contour>
      <point x="170" y="0" type="curve"/>
      <point x="213" y="0"/>
      <point x="170" y="0"/>
      <point x="300" y="0" type="curve"/>
      <point x="300" y="68"/>
      <point x="300" y="0"/>
      <point x="300" y="68" type="curve"/>
      <point x="170" y="68"/>
      <point x="300" y="68"/>
      <point x="170" y="68" type="curve"/>
      <point x="170" y="0"/>
      <point x="170" y="68"/>
    </contour>
    <contour>
      <point x="170" y="722" type="curve"/>
      <point x="127" y="722"/>
      <point x="94" y="722"/>
      <point x="51" y="722" type="curve"/>
      <point x="51" y="654"/>
      <point x="51" y="722"/>
      <point x="51" y="654" type="curve"/>
      <point x="180" y="654"/>
      <point x="40" y="654"/>
      <point x="170" y="654" type="curve"/>
      <point x="170" y="722"/>
      <point x="170" y="654"/>
    </contour>
    <contour>
      <point x="170" y="68" type="curve"/>
      <point x="40" y="68"/>
      <point x="180" y="68"/>
      <point x="51" y="68" type="curve"/>
      <point x="51" y="0"/>
      <point x="51" y="68"/>
      <point x="51" y="0" type="curve"/>
      <point x="94" y="0"/>
      <point x="127" y="0"/>
      <point x="170" y="0" type="curve"/>
      <point x="170" y="68"/>
      <point x="170" y="0"/>
    </contour>
    <contour>
      <point x="355" y="688" type="curve"/>
      <point x="355" y="568"/>
      <point x="355" y="693"/>
      <point x="355" y="573" type="curve"/>
      <point x="424" y="573"/>
      <point x="355" y="573"/>
      <point x="424" y="573" type="curve"/>
      <point x="424" y="693"/>
      <point x="424" y="568"/>
      <point x="424" y="688" type="curve"/>
      <point x="355" y="688"/>
      <point x="424" y="688"/>
    </contour>
    <contour>
      <point x="172" y="339" type="curve"/>
      <point x="241" y="339"/>
      <point x="309" y="339"/>
      <point x="377" y="339" type="curve"/>
      <point x="377" y="408"/>
      <point x="377" y="339"/>
      <point x="377" y="408" type="curve"/>
      <point x="309" y="408"/>
      <point x="241" y="408"/>
      <point x="172" y="408" type="curve"/>
      <point x="172" y="339"/>
      <point x="172" y="408"/>
    </contour>
    <contour>
      <point x="212" y="0" type="curve"/>
      <point x="212" y="722" type="line"/>
      <point x="127" y="722"/>
      <point x="212" y="722"/>
      <point x="127" y="722" type="curve"/>
      <point x="127" y="481"/>
      <point x="127" y="241"/>
      <point x="127" y="0" type="curve"/>
      <point x="212" y="0"/>
      <point x="127" y="0"/>
    </contour>
    <contour>
      <point x="163" y="654" type="curve"/>
      <point x="249" y="654"/>
      <point x="337" y="654"/>
      <point x="424" y="654" type="curve"/>
      <point x="424" y="722"/>
      <point x="424" y="654"/>
      <point x="424" y="722" type="curve"/>
      <point x="337" y="722"/>
      <point x="249" y="722"/>
      <point x="163" y="722" type="curve"/>
      <point x="163" y="654"/>
      <point x="163" y="722"/>
    </contour>
  </outline>
</glyph>
<glyph name="G" format="1">
  <advance width="565"/>
  <unicode hex="0047"/>
  <outline>
    <contour>
      <point x="295" y="801" type="move" name="top"/>
    </contour>
    <contour>
      <point x="324" y="-45" type="move" name="bottom"/>
    </contour>
    <contour>
      <point x="424" y="644" type="curve"/>
      <point x="424" y="511"/>
      <point x="424" y="652"/>
      <point x="424" y="520" type="curve"/>
      <point x="493" y="520"/>
      <point x="424" y="520"/>
      <point x="493" y="520" type="curve"/>
      <point x="493" y="652"/>
      <point x="493" y="511"/>
      <point x="493" y="644" type="curve"/>
      <point x="424" y="644"/>
      <point x="493" y="644"/>
    </contour>
    <contour>
      <point x="480" y="346" type="curve"/>
      <point x="434" y="346"/>
      <point x="387" y="346"/>
      <point x="340" y="346" type="curve"/>
      <point x="340" y="277"/>
      <point x="340" y="346"/>
      <point x="340" y="277" type="curve"/>
      <point x="387" y="277"/>
      <point x="434" y="277"/>
      <point x="480" y="277" type="curve"/>
      <point x="480" y="346"/>
      <point x="480" y="277"/>
    </contour>
    <contour>
      <point x="503" y="78" type="curve"/>
      <point x="503" y="168"/>
      <point x="503" y="257"/>
      <point x="503" y="346" type="curve"/>
      <point x="426" y="346"/>
      <point x="503" y="346"/>
      <point x="426" y="346" type="curve"/>
      <point x="426" y="257"/>
      <point x="426" y="168"/>
      <point x="426" y="78" type="curve"/>
      <point x="503" y="78"/>
      <point x="426" y="78"/>
    </contour>
    <contour>
      <point x="493" y="644" type="curve"/>
      <point x="436" y="699"/>
      <point x="377" y="727"/>
      <point x="299" y="727" type="curve"/>
      <point x="117" y="727"/>
      <point x="53" y="569"/>
      <point x="53" y="362" type="curve"/>
      <point x="53" y="153"/>
      <point x="121" y="-5"/>
      <point x="305" y="-5" type="curve"/>
      <point x="388" y="-5"/>
      <point x="439" y="24"/>
      <point x="503" y="78" type="curve"/>
      <point x="459" y="132"/>
      <point x="503" y="78"/>
      <point x="459" y="132" type="curve"/>
      <point x="419" y="93"/>
      <point x="369" y="67"/>
      <point x="305" y="67" type="curve"/>
      <point x="167" y="67"/>
      <point x="141" y="204"/>
      <point x="141" y="369" type="curve"/>
      <point x="141" y="524"/>
      <point x="169" y="655"/>
      <point x="298" y="655" type="curve"/>
      <point x="360" y="655"/>
      <point x="405" y="629"/>
      <point x="450" y="586" type="curve"/>
      <point x="493" y="644"/>
      <point x="450" y="586"/>
    </contour>
  </outline>
</glyph>
<glyph name="J" format="1">
  <advance width="356"/>
  <unicode hex="004A"/>
  <outline>
    <contour>
      <point x="215" y="722" type="curve"/>
      <point x="173" y="722"/>
      <point x="140" y="722"/>
      <point x="98" y="722" type="curve"/>
      <point x="98" y="654"/>
      <point x="98" y="722"/>
      <point x="98" y="654" type="curve"/>
      <point x="224" y="654"/>
      <point x="89" y="654"/>
      <point x="215" y="654" type="curve"/>
      <point x="215" y="722"/>
      <point x="215" y="654"/>
    </contour>
    <contour>
      <point x="215" y="654" type="curve"/>
      <point x="342" y="654"/>
      <point x="207" y="654"/>
      <point x="333" y="654" type="curve"/>
      <point x="333" y="722"/>
      <point x="333" y="654"/>
      <point x="333" y="722" type="curve"/>
      <point x="291" y="722"/>
      <point x="257" y="722"/>
      <point x="215" y="722" type="curve"/>
      <point x="215" y="654"/>
      <point x="215" y="722"/>
    </contour>
    <contour>
      <point x="12" y="41" type="curve"/>
      <point x="35" y="18"/>
      <point x="66" y="-5"/>
      <point x="107" y="-5" type="curve"/>
      <point x="224" y="-5"/>
      <point x="258" y="86"/>
      <point x="258" y="231" type="curve"/>
      <point x="258" y="406"/>
      <point x="258" y="546"/>
      <point x="258" y="722" type="curve"/>
      <point x="180" y="722"/>
      <point x="250" y="722"/>
      <point x="171" y="722" type="curve"/>
      <point x="171" y="546"/>
      <point x="171" y="406"/>
      <point x="171" y="231" type="curve"/>
      <point x="171" y="143"/>
      <point x="177" y="65"/>
      <point x="107" y="65" type="curve"/>
      <point x="82" y="65"/>
      <point x="68" y="81"/>
      <point x="53" y="95" type="curve"/>
      <point x="17" y="47"/>
      <point x="48" y="90"/>
    </contour>
  </outline>
</glyph>
<glyph name="M" format="1">
  <advance width="709"/>
  <unicode hex="004D"/>
  <outline>
    <contour>
      <point x="575" y="0" type="curve"/>
      <point x="616" y="0"/>
      <point x="648" y="0"/>
      <point x="689" y="0" type="curve"/>
      <point x="689" y="68"/>
      <point x="689" y="0"/>
      <point x="689" y="68" type="curve"/>
      <point x="566" y="68"/>
      <point x="697" y="68"/>
      <point x="575" y="68" type="curve"/>
      <point x="575" y="0"/>
      <point x="575" y="68"/>
    </contour>
    <contour>
      <point x="575" y="68" type="curve"/>
      <point x="459" y="68"/>
      <point x="583" y="68"/>
      <point x="468" y="68" type="curve"/>
      <point x="468" y="0"/>
      <point x="468" y="68"/>
      <point x="468" y="0" type="curve"/>
      <point x="506" y="0"/>
      <point x="537" y="0"/>
      <point x="575" y="0" type="curve"/>
      <point x="575" y="68"/>
      <point x="575" y="0"/>
    </contour>
    <contour>
      <point x="135" y="68" type="curve"/>
      <point x="13" y="68"/>
      <point x="143" y="68"/>
      <point x="21" y="68" type="curve"/>
      <point x="21" y="0"/>
      <point x="21" y="68"/>
      <point x="21" y="0" type="curve"/>
      <point x="62" y="0"/>
      <point x="94" y="0"/>
      <point x="135" y="0" type="curve"/>
      <point x="135" y="68"/>
      <point x="135" y="0"/>
    </contour>
    <contour>
      <point x="173" y="722" type="curve"/>
      <point x="132" y="722"/>
      <point x="100" y="722"/>
      <point x="59" y="722" type="curve"/>
      <point x="59" y="654"/>
      <point x="59" y="722"/>
      <point x="59" y="654" type="curve"/>
      <point x="182" y="654"/>
      <point x="50" y="654"/>
      <point x="173" y="654" type="curve"/>
      <point x="173" y="722"/>
      <point x="173" y="654"/>
    </contour>
    <contour>
      <point x="535" y="654" type="curve"/>
      <point x="657" y="654"/>
      <point x="527" y="654"/>
      <point x="649" y="654" type="curve"/>
      <point x="649" y="722"/>
      <point x="649" y="654"/>
      <point x="649" y="722" type="curve"/>
      <point x="608" y="722"/>
      <point x="576" y="722"/>
      <point x="535" y="722" type="curve"/>
      <point x="535" y="654"/>
      <point x="535" y="722"/>
    </contour>
    <contour>
      <point x="135" y="0" type="curve"/>
      <point x="174" y="0"/>
      <point x="126" y="0"/>
      <point x="242" y="0" type="curve"/>
      <point x="242" y="68"/>
      <point x="242" y="0"/>
      <point x="242" y="68" type="curve"/>
      <point x="126" y="68"/>
      <point x="250" y="68"/>
      <point x="135" y="68" type="curve"/>
      <point x="135" y="0"/>
      <point x="135" y="68"/>
    </contour>
    <contour>
      <point x="621" y="0" type="curve"/>
      <point x="608" y="241"/>
      <point x="592" y="481"/>
      <point x="579" y="722" type="curve"/>
      <point x="501" y="722"/>
      <point x="579" y="722"/>
      <point x="501" y="722" type="curve"/>
      <point x="513" y="481"/>
      <point x="523" y="241"/>
      <point x="536" y="0" type="curve"/>
      <point x="621" y="0"/>
      <point x="536" y="0"/>
    </contour>
    <contour>
      <point x="171" y="0" type="curve"/>
      <point x="183" y="241"/>
      <point x="195" y="481"/>
      <point x="207" y="722" type="curve"/>
      <point x="135" y="722"/>
      <point x="207" y="722"/>
      <point x="135" y="722" type="curve"/>
      <point x="123" y="481"/>
      <point x="111" y="241"/>
      <point x="97" y="0" type="curve"/>
      <point x="171" y="0"/>
      <point x="97" y="0"/>
    </contour>
    <contour>
      <point x="387" y="0" type="curve"/>
      <point x="328" y="241"/>
      <point x="268" y="481"/>
      <point x="208" y="722" type="curve"/>
      <point x="137" y="722"/>
      <point x="208" y="722"/>
      <point x="137" y="722" type="curve"/>
      <point x="196" y="481"/>
      <point x="256" y="241"/>
      <point x="315" y="0" type="curve"/>
      <point x="387" y="0"/>
      <point x="315" y="0"/>
    </contour>
    <contour>
      <point x="393" y="0" type="curve"/>
      <point x="452" y="241"/>
      <point x="510" y="481"/>
      <point x="569" y="722" type="curve"/>
      <point x="497" y="722"/>
      <point x="569" y="722"/>
      <point x="498" y="722" type="curve"/>
      <point x="439" y="481"/>
      <point x="380" y="241"/>
      <point x="321" y="0" type="curve"/>
      <point x="394" y="0"/>
      <point x="320" y="0"/>
    </contour>
  </outline>
</glyph>
<glyph name="R" format="1">
  <advance width="572"/>
  <unicode hex="0052"/>
  <outline>
    <contour>
      <point x="250" y="801" type="move" name="top"/>
    </contour>
    <contour>
      <point x="348" y="-44" type="move" name="bottom"/>
    </contour>
    <contour>
      <point x="464" y="0" type="curve"/>
      <point x="498" y="0"/>
      <point x="521" y="0"/>
      <point x="556" y="0" type="curve"/>
      <point x="556" y="68"/>
      <point x="556" y="0"/>
      <point x="556" y="68" type="curve"/>
      <point x="453" y="68"/>
      <point x="567" y="68"/>
      <point x="464" y="68" type="curve"/>
      <point x="464" y="0"/>
      <point x="464" y="68"/>
    </contour>
    <contour>
      <point x="168" y="722" type="curve"/>
      <point x="124" y="722"/>
      <point x="92" y="722"/>
      <point x="50" y="722" type="curve"/>
      <point x="50" y="654"/>
      <point x="50" y="722"/>
      <point x="50" y="654" type="curve"/>
      <point x="178" y="654"/>
      <point x="39" y="654"/>
      <point x="168" y="654" type="curve"/>
      <point x="168" y="722"/>
      <point x="168" y="654"/>
    </contour>
    <contour>
      <point x="168" y="68" type="curve"/>
      <point x="39" y="68"/>
      <point x="178" y="68"/>
      <point x="50" y="68" type="curve"/>
      <point x="50" y="0"/>
      <point x="50" y="68"/>
      <point x="50" y="0" type="curve"/>
      <point x="92" y="0"/>
      <point x="124" y="0"/>
      <point x="168" y="0" type="curve"/>
      <point x="168" y="68"/>
      <point x="168" y="0"/>
    </contour>
    <contour>
      <point x="168" y="0" type="curve"/>
      <point x="210" y="0"/>
      <point x="157" y="0"/>
      <point x="285" y="0" type="curve"/>
      <point x="285" y="68"/>
      <point x="285" y="0"/>
      <point x="285" y="68" type="curve"/>
      <point x="157" y="68"/>
      <point x="296" y="68"/>
      <point x="168" y="68" type="curve"/>
      <point x="168" y="0"/>
      <point x="168" y="68"/>
    </contour>
    <contour>
      <point x="256" y="354" type="curve"/>
      <point x="319" y="228"/>
      <point x="361" y="126"/>
      <point x="423" y="0" type="curve"/>
      <point x="514" y="0"/>
      <point x="422" y="-3"/>
      <point x="513" y="-3" type="curve"/>
      <point x="450" y="125"/>
      <point x="407" y="227"/>
      <point x="344" y="354" type="curve"/>
      <point x="255" y="354"/>
      <point x="345" y="354"/>
    </contour>
    <contour>
      <point x="211" y="0" type="curve"/>
      <point x="211" y="241"/>
      <point x="211" y="481"/>
      <point x="211" y="722" type="curve"/>
      <point x="126" y="722"/>
      <point x="211" y="722"/>
      <point x="126" y="722" type="curve"/>
      <point x="126" y="481"/>
      <point x="126" y="241"/>
      <point x="126" y="0" type="curve"/>
      <point x="211" y="0"/>
      <point x="126" y="0"/>
    </contour>
    <contour>
      <point x="170" y="317" type="curve"/>
      <point x="209" y="317"/>
      <point x="248" y="317"/>
      <point x="286" y="317" type="curve"/>
      <point x="398" y="317"/>
      <point x="454" y="402"/>
      <point x="454" y="527" type="curve"/>
      <point x="454" y="644"/>
      <point x="396" y="722"/>
      <point x="284" y="722" type="curve"/>
      <point x="244" y="722"/>
      <point x="210" y="722"/>
      <point x="170" y="722" type="curve"/>
      <point x="170" y="654"/>
      <point x="170" y="722"/>
      <point x="170" y="654" type="curve"/>
      <point x="205" y="654"/>
      <point x="234" y="654"/>
      <point x="269" y="654" type="curve"/>
      <point x="338" y="654"/>
      <point x="368" y="596"/>
      <point x="368" y="521" type="curve"/>
      <point x="368" y="447"/>
      <point x="348" y="386"/>
      <point x="283" y="386" type="curve"/>
      <point x="245" y="386"/>
      <point x="207" y="386"/>
      <point x="170" y="386" type="curve"/>
      <point x="170" y="317"/>
      <point x="170" y="386"/>
    </contour>
  </outline>
</glyph>
<glyph name="V" format="1">
  <advance width="568"/>
  <unicode hex="0056"/>
  <outline>
    <contour>
      <point x="444" y="722" type="curve"/>
      <point x="402" y="722"/>
      <point x="364" y="722"/>
      <point x="322" y="722" type="curve"/>
      <point x="322" y="654"/>
      <point x="322" y="722"/>
      <point x="322" y="654" type="curve"/>
      <point x="449" y="654"/>
      <point x="317" y="654"/>
      <point x="444" y="654" type="curve"/>
      <point x="444" y="722"/>
      <point x="444" y="654"/>
    </contour>
    <contour>
      <point x="102" y="722" type="curve"/>
      <point x="64" y="722"/>
      <point x="31" y="722"/>
      <point x="-7" y="722" type="curve"/>
      <point x="-7" y="654"/>
      <point x="-7" y="722"/>
      <point x="-7" y="654" type="curve"/>
      <point x="107" y="654"/>
      <point x="-12" y="654"/>
      <point x="102" y="654" type="curve"/>
      <point x="102" y="722"/>
      <point x="102" y="654"/>
    </contour>
    <contour>
      <point x="448" y="654" type="curve"/>
      <point x="562" y="654"/>
      <point x="443" y="654"/>
      <point x="557" y="654" type="curve"/>
      <point x="557" y="722"/>
      <point x="557" y="654"/>
      <point x="557" y="722" type="curve"/>
      <point x="520" y="722"/>
      <point x="486" y="722"/>
      <point x="448" y="722" type="curve"/>
      <point x="448" y="654"/>
      <point x="448" y="722"/>
    </contour>
    <contour>
      <point x="106" y="654" type="curve"/>
      <point x="233" y="654"/>
      <point x="101" y="654"/>
      <point x="228" y="654" type="curve"/>
      <point x="228" y="722"/>
      <point x="228" y="654"/>
      <point x="228" y="722" type="curve"/>
      <point x="186" y="722"/>
      <point x="148" y="722"/>
      <point x="106" y="722" type="curve"/>
      <point x="106" y="654"/>
      <point x="106" y="722"/>
    </contour>
    <contour>
      <point x="412" y="722" type="curve"/>
      <point x="355" y="480"/>
      <point x="299" y="242"/>
      <point x="244" y="0" type="curve"/>
      <point x="333" y="0"/>
      <point x="234" y="0"/>
      <point x="323" y="0" type="curve"/>
      <point x="382" y="241"/>
      <point x="440" y="481"/>
      <point x="499" y="722" type="curve"/>
      <point x="412" y="722"/>
      <point x="499" y="722"/>
    </contour>
    <contour>
      <point x="51" y="722" type="curve"/>
      <point x="110" y="481"/>
      <point x="170" y="241"/>
      <point x="230" y="0" type="curve"/>
      <point x="319" y="0"/>
      <point x="222" y="0"/>
      <point x="311" y="0" type="curve"/>
      <point x="254" y="242"/>
      <point x="198" y="482"/>
      <point x="140" y="722" type="curve"/>
      <point x="51" y="722"/>
      <point x="140" y="722"/>
    </contour>
  </outline>
</glyph>
<glyph name="X" format="1">
  <advance width="533"/>
  <unicode hex="0058"/>
  <outline>
    <contour>
      <point x="125" y="0" type="curve"/>
      <point x="164" y="0"/>
      <point x="121" y="0"/>
      <point x="236" y="0" type="curve"/>
      <point x="236" y="68"/>
      <point x="236" y="0"/>
      <point x="236" y="68" type="curve"/>
      <point x="121" y="68"/>
      <point x="241" y="68"/>
      <point x="125" y="68" type="curve"/>
      <point x="125" y="0"/>
      <point x="125" y="68"/>
    </contour>
    <contour>
      <point x="113" y="68" type="curve"/>
      <point x="3" y="68"/>
      <point x="118" y="68"/>
      <point x="8" y="68" type="curve"/>
      <point x="7" y="0"/>
      <point x="8" y="68"/>
      <point x="7" y="0" type="curve"/>
      <point x="44" y="0"/>
      <point x="77" y="0"/>
      <point x="113" y="0" type="curve"/>
      <point x="113" y="68"/>
      <point x="113" y="0"/>
    </contour>
    <contour>
      <point x="418" y="0" type="curve"/>
      <point x="454" y="0"/>
      <point x="487" y="0"/>
      <point x="523" y="0" type="curve"/>
      <point x="523" y="68"/>
      <point x="523" y="0"/>
      <point x="523" y="68" type="curve"/>
      <point x="413" y="68"/>
      <point x="529" y="68"/>
      <point x="418" y="68" type="curve"/>
      <point x="418" y="0"/>
      <point x="418" y="68"/>
    </contour>
    <contour>
      <point x="406" y="68" type="curve"/>
      <point x="290" y="68"/>
      <point x="410" y="68"/>
      <point x="295" y="68" type="curve"/>
      <point x="295" y="0"/>
      <point x="295" y="68"/>
      <point x="295" y="0" type="curve"/>
      <point x="333" y="0"/>
      <point x="367" y="0"/>
      <point x="406" y="0" type="curve"/>
      <point x="406" y="68"/>
      <point x="406" y="0"/>
    </contour>
    <contour>
      <point x="404" y="654" type="curve"/>
      <point x="516" y="654"/>
      <point x="400" y="654"/>
      <point x="511" y="654" type="curve"/>
      <point x="511" y="722"/>
      <point x="511" y="654"/>
      <point x="511" y="722" type="curve"/>
      <point x="474" y="722"/>
      <point x="441" y="722"/>
      <point x="404" y="722" type="curve"/>
      <point x="404" y="654"/>
      <point x="404" y="722"/>
    </contour>
    <contour>
      <point x="413" y="722" type="curve"/>
      <point x="373" y="722"/>
      <point x="337" y="722"/>
      <point x="297" y="722" type="curve"/>
      <point x="297" y="654"/>
      <point x="297" y="722"/>
      <point x="297" y="654" type="curve"/>
      <point x="419" y="654"/>
      <point x="291" y="654"/>
      <point x="413" y="654" type="curve"/>
      <point x="413" y="722"/>
      <point x="413" y="654"/>
    </contour>
    <contour>
      <point x="128" y="722" type="curve"/>
      <point x="92" y="722"/>
      <point x="59" y="722"/>
      <point x="22" y="722" type="curve"/>
      <point x="22" y="654"/>
      <point x="22" y="722"/>
      <point x="22" y="654" type="curve"/>
      <point x="133" y="654"/>
      <point x="18" y="654"/>
      <point x="128" y="654" type="curve"/>
      <point x="128" y="722"/>
      <point x="128" y="654"/>
    </contour>
    <contour>
      <point x="119" y="654" type="curve"/>
      <point x="242" y="654"/>
      <point x="114" y="654"/>
      <point x="237" y="654" type="curve"/>
      <point x="237" y="722"/>
      <point x="237" y="654"/>
      <point x="237" y="722" type="curve"/>
      <point x="196" y="722"/>
      <point x="160" y="722"/>
      <point x="119" y="722" type="curve"/>
      <point x="119" y="654"/>
      <point x="119" y="722"/>
    </contour>
    <contour>
      <point x="378" y="722" type="curve"/>
      <point x="270" y="480"/>
      <point x="163" y="238"/>
      <point x="56" y="-4" type="curve"/>
      <point x="143" y="-4"/>
      <point x="56" y="0"/>
      <point x="143" y="0" type="curve"/>
      <point x="250" y="242"/>
      <point x="357" y="483"/>
      <point x="463" y="725" type="curve"/>
      <point x="378" y="725"/>
      <point x="463" y="722"/>
    </contour>
    <contour>
      <point x="72" y="726" type="curve"/>
      <point x="177" y="483"/>
      <point x="283" y="242"/>
      <point x="389" y="0" type="curve"/>
      <point x="475" y="0"/>
      <point x="389" y="-3"/>
      <point x="475" y="-3" type="curve"/>
      <point x="369" y="239"/>
      <point x="264" y="480"/>
      <point x="158" y="722" type="curve"/>
      <point x="72" y="722"/>
      <point x="158" y="726"/>
    </contour>
  </outline>
</glyph>
<glyph name="Y" format="1">
  <advance width="519"/>
  <unicode hex="0059"/>
  <outline>
    <contour>
      <point x="254" y="801" type="move" name="top"/>
    </contour>
    <contour>
      <point x="250" y="68" type="curve"/>
      <point x="126" y="68"/>
      <point x="255" y="68"/>
      <point x="131" y="68" type="curve"/>
      <point x="131" y="0"/>
      <point x="131" y="68"/>
      <point x="131" y="0" type="curve"/>
      <point x="171" y="0"/>
      <point x="208" y="0"/>
      <point x="250" y="0" type="curve"/>
      <point x="250" y="68"/>
      <point x="250" y="0"/>
    </contour>
    <contour>
      <point x="250" y="0" type="curve"/>
      <point x="291" y="0"/>
      <point x="328" y="0"/>
      <point x="369" y="0" type="curve"/>
      <point x="369" y="68"/>
      <point x="369" y="0"/>
      <point x="369" y="68" type="curve"/>
      <point x="245" y="68"/>
      <point x="374" y="68"/>
      <point x="250" y="68" type="curve"/>
      <point x="250" y="0"/>
      <point x="250" y="68"/>
    </contour>
    <contour>
      <point x="394" y="722" type="curve"/>
      <point x="355" y="722"/>
      <point x="320" y="722"/>
      <point x="281" y="722" type="curve"/>
      <point x="281" y="654"/>
      <point x="281" y="722"/>
      <point x="281" y="654" type="curve"/>
      <point x="399" y="654"/>
      <point x="276" y="654"/>
      <point x="394" y="654" type="curve"/>
      <point x="394" y="722"/>
      <point x="394" y="654"/>
    </contour>
    <contour>
      <point x="101" y="722" type="curve"/>
      <point x="68" y="722"/>
      <point x="38" y="722"/>
      <point x="4" y="722" type="curve"/>
      <point x="3" y="654"/>
      <point x="4" y="722"/>
      <point x="3" y="654" type="curve"/>
      <point x="107" y="654"/>
      <point x="-2" y="654"/>
      <point x="101" y="654" type="curve"/>
      <point x="101" y="722"/>
      <point x="101" y="654"/>
    </contour>
    <contour>
      <point x="114" y="654" type="curve"/>
      <point x="231" y="654"/>
      <point x="109" y="654"/>
      <point x="227" y="654" type="curve"/>
      <point x="227" y="722"/>
      <point x="227" y="654"/>
      <point x="227" y="722" type="curve"/>
      <point x="188" y="722"/>
      <point x="153" y="722"/>
      <point x="114" y="722" type="curve"/>
      <point x="114" y="654"/>
      <point x="114" y="722"/>
    </contour>
    <contour>
      <point x="406" y="654" type="curve"/>
      <point x="513" y="654"/>
      <point x="401" y="654"/>
      <point x="509" y="654" type="curve"/>
      <point x="509" y="722"/>
      <point x="509" y="654"/>
      <point x="509" y="722" type="curve"/>
      <point x="474" y="722"/>
      <point x="442" y="722"/>
      <point x="406" y="722" type="curve"/>
      <point x="406" y="654"/>
      <point x="406" y="722"/>
    </contour>
    <contour>
      <point x="53" y="725" type="curve"/>
      <point x="104" y="596"/>
      <point x="152" y="469"/>
      <point x="203" y="337" type="curve"/>
      <point x="290" y="337"/>
      <point x="189" y="337"/>
      <point x="277" y="337" type="curve"/>
      <point x="233" y="468"/>
      <point x="190" y="592"/>
      <point x="144" y="722" type="curve"/>
      <point x="53" y="722"/>
      <point x="144" y="725"/>
    </contour>
    <contour>
      <point x="364" y="722" type="curve"/>
      <point x="314" y="591"/>
      <point x="268" y="468"/>
      <point x="216" y="337" type="curve"/>
      <point x="305" y="337"/>
      <point x="209" y="337"/>
      <point x="297" y="337" type="curve"/>
      <point x="350" y="468"/>
      <point x="401" y="596"/>
      <point x="455" y="725" type="curve"/>
      <point x="364" y="725"/>
      <point x="455" y="722"/>
    </contour>
    <contour>
      <point x="297" y="0" type="curve"/>
      <point x="297" y="115"/>
      <point x="297" y="226"/>
      <point x="297" y="341" type="curve"/>
      <point x="203" y="341"/>
      <point x="297" y="341"/>
      <point x="203" y="341" type="curve"/>
      <point x="203" y="226"/>
      <point x="203" y="115"/>
      <point x="203" y="0" type="curve"/>
      <point x="297" y="0"/>
      <point x="203" y="0"/>
    </contour>
  </outline>
</glyph>
<glyph name="bracketleft" format="1">
  <advance width="248"/>
  <unicode hex="005B"/>
  <outline>
    <contour>
      <point x="208" y="770" type="curve"/>
      <point x="176" y="770"/>
      <point x="143" y="770"/>
      <point x="111" y="770" type="curve"/>
      <point x="102" y="770"/>
      <point x="80" y="770"/>
      <point x="71" y="770" type="curve"/>
      <point x="71" y="760"/>
      <point x="71" y="748"/>
      <point x="71" y="738" type="curve"/>
      <point x="71" y="463"/>
      <point x="71" y="188"/>
      <point x="71" y="-88" type="curve"/>
      <point x="71" y="-98"/>
      <point x="71" y="-104"/>
      <point x="71" y="-118" type="curve"/>
      <point x="81" y="-118"/>
      <point x="101" y="-118"/>
      <point x="110" y="-118" type="curve"/>
      <point x="142" y="-118"/>
      <point x="175" y="-118"/>
      <point x="208" y="-118" type="curve"/>
      <point x="208" y="-43"/>
      <point x="208" y="-118"/>
      <point x="208" y="-43" type="curve"/>
      <point x="175" y="-43"/>
      <point x="142" y="-43"/>
      <point x="110" y="-43" type="curve"/>
      <point x="158" y="-43"/>
      <point x="110" y="-43"/>
      <point x="158" y="-43" type="curve"/>
      <point x="158" y="-88"/>
      <point x="158" y="-43"/>
      <point x="158" y="-88" type="curve"/>
      <point x="158" y="188"/>
      <point x="158" y="463"/>
      <point x="158" y="738" type="curve"/>
      <point x="158" y="695"/>
      <point x="158" y="738"/>
      <point x="158" y="695" type="curve"/>
      <point x="111" y="695"/>
      <point x="158" y="695"/>
      <point x="111" y="695" type="curve"/>
      <point x="143" y="695"/>
      <point x="176" y="695"/>
      <point x="208" y="695" type="curve"/>
      <point x="208" y="770"/>
      <point x="208" y="695"/>
    </contour>
  </outline>
</glyph>
<glyph name="backslash" format="1">
  <advance width="403"/>
  <unicode hex="005C"/>
  <outline>
    <contour>
      <point x="371" y="-68" type="curve"/>
      <point x="288" y="236"/>
      <point x="204" y="540"/>
      <point x="121" y="844" type="curve"/>
      <point x="31" y="844"/>
      <point x="121" y="844"/>
      <point x="31" y="844" type="curve"/>
      <point x="115" y="540"/>
      <point x="198" y="236"/>
      <point x="282" y="-68" type="curve"/>
      <point x="371" y="-68"/>
      <point x="282" y="-68"/>
    </contour>
  </outline>
</glyph>
<glyph name="bracketright" format="1">
  <advance width="250"/>
  <unicode hex="005D"/>
  <outline>
    <contour>
      <point x="42" y="695" type="curve"/>
      <point x="74" y="695"/>
      <point x="106" y="695"/>
      <point x="139" y="695" type="curve"/>
      <point x="132" y="703"/>
      <point x="119" y="704"/>
      <point x="112" y="712" type="curve"/>
      <point x="105" y="721"/>
      <point x="98" y="730"/>
      <point x="92" y="738" type="curve"/>
      <point x="92" y="463"/>
      <point x="91" y="188"/>
      <point x="92" y="-88" type="curve"/>
      <point x="98" y="-78"/>
      <point x="107" y="-71"/>
      <point x="114" y="-62" type="curve"/>
      <point x="121" y="-54"/>
      <point x="133" y="-52"/>
      <point x="139" y="-43" type="curve"/>
      <point x="107" y="-43"/>
      <point x="74" y="-43"/>
      <point x="42" y="-43" type="curve"/>
      <point x="41" y="-118"/>
      <point x="42" y="-43"/>
      <point x="41" y="-118" type="curve"/>
      <point x="74" y="-118"/>
      <point x="107" y="-118"/>
      <point x="139" y="-118" type="curve"/>
      <point x="178" y="-118"/>
      <point x="139" y="-118"/>
      <point x="178" y="-118" type="curve"/>
      <point x="178" y="-88"/>
      <point x="178" y="-118"/>
      <point x="178" y="-88" type="curve"/>
      <point x="177" y="188"/>
      <point x="178" y="463"/>
      <point x="178" y="738" type="curve"/>
      <point x="178" y="770"/>
      <point x="178" y="738"/>
      <point x="178" y="770" type="curve"/>
      <point x="139" y="770"/>
      <point x="178" y="770"/>
      <point x="139" y="770" type="curve"/>
      <point x="106" y="770"/>
      <point x="74" y="770"/>
      <point x="42" y="770" type="curve"/>
      <point x="42" y="695"/>
      <point x="42" y="770"/>
    </contour>
  </outline>
</glyph>
<glyph name="asciicircum" format="1">
  <advance width="420"/>
  <unicode hex="005E"/>
  <outline>
    <contour>
      <point x="141" y="459" type="curve"/>
      <point x="178" y="567"/>
      <point x="215" y="674"/>
      <point x="253" y="781" type="curve"/>
      <point x="166" y="781"/>
      <point x="253" y="781"/>
      <point x="166" y="781" type="curve"/>
      <point x="129" y="674"/>
      <point x="93" y="567"/>
      <point x="55" y="459" type="curve"/>
      <point x="142" y="459"/>
      <point x="55" y="459"/>
    </contour>
    <contour>
      <point x="364" y="459" type="curve"/>
      <point x="328" y="564"/>
      <point x="289" y="676"/>
      <point x="253" y="781" type="curve"/>
      <point x="166" y="781"/>
      <point x="253" y="781"/>
      <point x="166" y="781" type="curve"/>
      <point x="203" y="676"/>
      <point x="242" y="564"/>
      <point x="279" y="459" type="curve"/>
      <point x="364" y="459"/>
      <point x="279" y="459"/>
    </contour>
  </outline>
</glyph>
<glyph name="underscore" format="1">
  <advance width="434"/>
  <unicode hex="005F"/>
  <outline>
    <contour>
      <point x="0" y="-196" type="curve"/>
      <point x="144" y="-196"/>
      <point x="290" y="-196"/>
      <point x="434" y="-196" type="curve"/>
      <point x="434" y="-127"/>
      <point x="434" y="-196"/>
      <point x="434" y="-127" type="curve"/>
      <point x="290" y="-127"/>
      <point x="144" y="-127"/>
      <point x="0" y="-127" type="curve"/>
      <point x="0" y="-196"/>
      <point x="0" y="-127"/>
    </contour>
  </outline>
</glyph>
<glyph name="grave" format="1">
  <advance width="317"/>
  <unicode hex="0060"/>
  <outline>
    <contour>
      <point x="179" y="595" type="move" name="_top"/>
    </contour>
    <contour>
      <point x="219" y="595" type="line"/>
      <point x="157" y="761" type="line"/>
      <point x="53" y="761" type="line"/>
      <point x="139" y="595" type="line"/>
    </contour>
  </outline>
</glyph>
<glyph name="b" format="1">
  <advance width="499"/>
  <unicode hex="0062"/>
  <outline>
    <contour>
      <point x="139" y="800" type="curve"/>
      <point x="98" y="800"/>
      <point x="60" y="800"/>
      <point x="20" y="800" type="curve"/>
      <point x="20" y="726"/>
      <point x="20" y="806"/>
      <point x="20" y="732" type="curve"/>
      <point x="152" y="731"/>
      <point x="7" y="732"/>
      <point x="139" y="731" type="curve"/>
      <point x="139" y="806"/>
      <point x="139" y="725"/>
    </contour>
    <contour>
      <point x="162" y="379" type="curve"/>
      <point x="175" y="412"/>
      <point x="215" y="467"/>
      <point x="269" y="467" type="curve"/>
      <point x="352" y="467"/>
      <point x="365" y="368"/>
      <point x="365" y="265" type="curve"/>
      <point x="365" y="167"/>
      <point x="347" y="66"/>
      <point x="271" y="66" type="curve"/>
      <point x="226" y="66"/>
      <point x="190" y="102"/>
      <point x="168" y="150" type="curve"/>
      <point x="118" y="116"/>
      <point x="174" y="150"/>
      <point x="125" y="116" type="curve"/>
      <point x="154" y="49"/>
      <point x="202" y="-5"/>
      <point x="277" y="-5" type="curve"/>
      <point x="401" y="-5"/>
      <point x="450" y="121"/>
      <point x="450" y="269" type="curve"/>
      <point x="450" y="413"/>
      <point x="404" y="538"/>
      <point x="279" y="538" type="curve"/>
      <point x="198" y="538"/>
      <point x="146" y="468"/>
      <point x="126" y="412" type="curve"/>
      <point x="165" y="378"/>
      <point x="123" y="413"/>
    </contour>
    <contour>
      <point x="181" y="0" type="curve"/>
      <point x="181" y="264"/>
      <point x="181" y="536"/>
      <point x="181" y="800" type="curve"/>
      <point x="87" y="800"/>
      <point x="189" y="800"/>
      <point x="94" y="800" type="curve"/>
      <point x="94" y="536"/>
      <point x="94" y="264"/>
      <point x="94" y="0" type="curve"/>
      <point x="189" y="0"/>
      <point x="87" y="0"/>
    </contour>
    <contour>
      <point x="139" y="68" type="curve"/>
      <point x="8" y="68"/>
      <point x="152" y="68"/>
      <point x="20" y="68" type="curve"/>
      <point x="20" y="-6"/>
      <point x="20" y="74"/>
      <point x="20" y="0" type="curve"/>
      <point x="60" y="0"/>
      <point x="99" y="0"/>
      <point x="139" y="0" type="curve"/>
      <point x="139" y="74"/>
      <point x="139" y="-6"/>
    </contour>
  </outline>
</glyph>
<glyph name="c" format="1">
  <advance width="413"/>
  <unicode hex="0063"/>
  <outline>
    <contour>
      <point x="228" y="639" type="move" name="top"/>
    </contour>
    <contour>
      <point x="253" y="0" type="move" name="bottom"/>
    </contour>
    <contour>
      <point x="290" y="471" type="curve"/>
      <point x="290" y="355"/>
      <point x="290" y="476"/>
      <point x="290" y="360" type="curve"/>
      <point x="358" y="360"/>
      <point x="290" y="360"/>
      <point x="358" y="360" type="curve"/>
      <point x="358" y="476"/>
      <point x="358" y="355"/>
      <point x="358" y="471" type="curve"/>
      <point x="290" y="471"/>
      <point x="358" y="471"/>
    </contour>
    <contour>
      <point x="358" y="471" type="curve"/>
      <point x="327" y="507"/>
      <point x="283" y="538"/>
      <point x="233" y="538" type="curve"/>
      <point x="96" y="538"/>
      <point x="49" y="424"/>
      <point x="49" y="267" type="curve"/>
      <point x="49" y="110"/>
      <point x="94" y="-5"/>
      <point x="231" y="-5" type="curve"/>
      <point x="289" y="-5"/>
      <point x="340" y="31"/>
      <point x="369" y="94" type="curve"/>
      <point x="309" y="132"/>
      <point x="369" y="94"/>
      <point x="309" y="132" type="curve"/>
      <point x="294" y="104"/>
      <point x="270" y="66"/>
      <point x="236" y="66" type="curve"/>
      <point x="147" y="66"/>
      <point x="135" y="158"/>
      <point x="135" y="267" type="curve"/>
      <point x="135" y="375"/>
      <point x="147" y="467"/>
      <point x="232" y="467" type="curve"/>
      <point x="262" y="467"/>
      <point x="289" y="446"/>
      <point x="308" y="423" type="curve"/>
      <point x="358" y="471"/>
      <point x="308" y="423"/>
    </contour>
  </outline>
</glyph>
<glyph name="f" format="1">
  <advance width="340"/>
  <unicode hex="0066"/>
  <outline>
    <contour>
      <point x="256" y="774" type="curve"/>
      <point x="256" y="659"/>
      <point x="256" y="779"/>
      <point x="256" y="664" type="curve"/>
      <point x="325" y="664"/>
      <point x="256" y="664"/>
      <point x="325" y="664" type="curve"/>
      <point x="325" y="779"/>
      <point x="325" y="659"/>
      <point x="325" y="774" type="curve"/>
      <point x="256" y="774"/>
      <point x="325" y="774"/>
    </contour>
    <contour>
      <point x="149" y="-1" type="curve"/>
      <point x="189" y="-1"/>
      <point x="228" y="0"/>
      <point x="267" y="0" type="curve"/>
      <point x="267" y="69"/>
      <point x="267" y="0"/>
      <point x="267" y="69" type="curve"/>
      <point x="146" y="68"/>
      <point x="270" y="69"/>
      <point x="149" y="68" type="curve"/>
      <point x="149" y="-1"/>
      <point x="149" y="68"/>
    </contour>
    <contour>
      <point x="149" y="68" type="curve"/>
      <point x="29" y="69"/>
      <point x="151" y="68"/>
      <point x="31" y="69" type="curve"/>
      <point x="31" y="0"/>
      <point x="31" y="69"/>
      <point x="31" y="0" type="curve"/>
      <point x="71" y="0"/>
      <point x="109" y="-1"/>
      <point x="149" y="-1" type="curve"/>
      <point x="149" y="68"/>
      <point x="149" y="-1"/>
    </contour>
    <contour>
      <point x="29" y="465" type="curve"/>
      <point x="285" y="465" type="line"/>
      <point x="285" y="533"/>
      <point x="285" y="465"/>
      <point x="285" y="533" type="curve"/>
      <point x="29" y="533" type="line"/>
      <point x="29" y="465"/>
      <point x="29" y="533"/>
    </contour>
    <contour>
      <point x="192" y="0" type="curve"/>
      <point x="192" y="621" type="line"/>
      <point x="192" y="681"/>
      <point x="193" y="740"/>
      <point x="242" y="740" type="curve"/>
      <point x="261" y="740"/>
      <point x="276" y="730"/>
      <point x="290" y="720" type="curve"/>
      <point x="325" y="774"/>
      <point x="290" y="720"/>
      <point x="325" y="774" type="curve"/>
      <point x="301" y="792"/>
      <point x="272" y="806"/>
      <point x="242" y="806" type="curve"/>
      <point x="148" y="806"/>
      <point x="105" y="723"/>
      <point x="106" y="621" type="curve"/>
      <point x="106" y="0" type="line"/>
      <point x="192" y="0"/>
      <point x="106" y="0"/>
    </contour>
  </outline>
</glyph>
<glyph name="g" format="1">
  <advance width="421"/>
  <unicode hex="0067"/>
  <outline>
    <contour>
      <point x="218" y="639" type="move" name="top"/>
    </contour>
    <contour>
      <point x="301" y="460" type="curve"/>
      <point x="393" y="526" type="line"/>
      <point x="385" y="536"/>
      <point x="364" y="577"/>
      <point x="356" y="587" type="curve"/>
      <point x="253" y="515" type="line"/>
      <point x="301" y="460"/>
      <point x="253" y="515"/>
    </contour>
    <contour>
      <point x="150" y="346" type="curve"/>
      <point x="150" y="408"/>
      <point x="166" y="470"/>
      <point x="218" y="470" type="curve"/>
      <point x="273" y="470"/>
      <point x="285" y="409"/>
      <point x="285" y="347" type="curve"/>
      <point x="285" y="289"/>
      <point x="271" y="231"/>
      <point x="218" y="231" type="curve"/>
      <point x="168" y="231"/>
      <point x="150" y="287"/>
      <point x="150" y="346" type="curve"/>
      <point x="64" y="343"/>
      <point x="150" y="346"/>
      <point x="64" y="343" type="curve"/>
      <point x="64" y="242"/>
      <point x="118" y="163"/>
      <point x="215" y="163" type="curve"/>
      <point x="314" y="163"/>
      <point x="371" y="244"/>
      <point x="371" y="350" type="curve"/>
      <point x="371" y="454"/>
      <point x="317" y="537"/>
      <point x="218" y="537" type="curve"/>
      <point x="117" y="537"/>
      <point x="64" y="451"/>
      <point x="64" y="343" type="curve"/>
      <point x="150" y="346"/>
      <point x="64" y="343"/>
    </contour>
    <contour>
      <point x="133" y="238" type="curve"/>
      <point x="91" y="204"/>
      <point x="67" y="165"/>
      <point x="67" y="111" type="curve"/>
      <point x="67" y="32"/>
      <point x="127" y="-15"/>
      <point x="207" y="-24" type="curve"/>
      <point x="273" y="-32"/>
      <point x="325" y="-65"/>
      <point x="325" y="-131" type="curve"/>
      <point x="325" y="-195"/>
      <point x="280" y="-237"/>
      <point x="216" y="-237" type="curve"/>
      <point x="156" y="-237"/>
      <point x="120" y="-184"/>
      <point x="120" y="-119" type="curve"/>
      <point x="120" y="-67"/>
      <point x="132" y="-19"/>
      <point x="175" y="7" type="curve"/>
      <point x="132" y="49"/>
      <point x="175" y="7"/>
      <point x="132" y="49" type="curve"/>
      <point x="67" y="11"/>
      <point x="34" y="-46"/>
      <point x="34" y="-122" type="curve"/>
      <point x="34" y="-229"/>
      <point x="105" y="-305"/>
      <point x="213" y="-305" type="curve"/>
      <point x="324" y="-305"/>
      <point x="405" y="-233"/>
      <point x="403" y="-124" type="curve"/>
      <point x="403" y="-26"/>
      <point x="325" y="30"/>
      <point x="224" y="41" type="curve"/>
      <point x="181" y="45"/>
      <point x="152" y="74"/>
      <point x="152" y="118" type="curve"/>
      <point x="152" y="149"/>
      <point x="157" y="171"/>
      <point x="180" y="192" type="curve"/>
      <point x="133" y="238"/>
      <point x="180" y="192"/>
    </contour>
  </outline>
</glyph>
<glyph name="h" format="1">
  <advance width="486"/>
  <unicode hex="0068"/>
  <outline>
    <contour>
      <point x="363" y="-1" type="curve"/>
      <point x="403" y="-1"/>
      <point x="441" y="0"/>
      <point x="482" y="0" type="curve"/>
      <point x="482" y="68"/>
      <point x="482" y="0"/>
      <point x="482" y="68" type="curve"/>
      <point x="361" y="68"/>
      <point x="485" y="68"/>
      <point x="363" y="68" type="curve"/>
      <point x="363" y="-1"/>
      <point x="363" y="68"/>
    </contour>
    <contour>
      <point x="126" y="-1" type="curve"/>
      <point x="161" y="-1"/>
      <point x="124" y="-1"/>
      <point x="226" y="0" type="curve"/>
      <point x="226" y="68"/>
      <point x="226" y="0"/>
      <point x="226" y="68" type="curve"/>
      <point x="124" y="68"/>
      <point x="228" y="68"/>
      <point x="126" y="68" type="curve"/>
      <point x="126" y="-1"/>
      <point x="126" y="68"/>
    </contour>
    <contour>
      <point x="126" y="799" type="curve"/>
      <point x="86" y="799"/>
      <point x="48" y="800"/>
      <point x="8" y="800" type="curve"/>
      <point x="7" y="732"/>
      <point x="8" y="800"/>
      <point x="7" y="732" type="curve"/>
      <point x="129" y="731"/>
      <point x="4" y="732"/>
      <point x="126" y="731" type="curve"/>
      <point x="126" y="799"/>
      <point x="126" y="731"/>
    </contour>
    <contour>
      <point x="126" y="68" type="curve"/>
      <point x="5" y="68"/>
      <point x="129" y="68"/>
      <point x="8" y="68" type="curve"/>
      <point x="7" y="0"/>
      <point x="8" y="68"/>
      <point x="7" y="0" type="curve"/>
      <point x="48" y="0"/>
      <point x="86" y="-1"/>
      <point x="126" y="-1" type="curve"/>
      <point x="126" y="68"/>
      <point x="126" y="-1"/>
    </contour>
    <contour>
      <point x="150" y="328" type="curve"/>
      <point x="162" y="389"/>
      <point x="195" y="467"/>
      <point x="255" y="467" type="curve"/>
      <point x="321" y="467"/>
      <point x="320" y="401"/>
      <point x="320" y="325" type="curve"/>
      <point x="320" y="217"/>
      <point x="320" y="108"/>
      <point x="320" y="0" type="curve"/>
      <point x="407" y="0"/>
      <point x="320" y="0"/>
      <point x="407" y="0" type="curve"/>
      <point x="407" y="110"/>
      <point x="407" y="220"/>
      <point x="407" y="331" type="curve"/>
      <point x="407" y="445"/>
      <point x="386" y="535"/>
      <point x="280" y="535" type="curve"/>
      <point x="198" y="535"/>
      <point x="140" y="451"/>
      <point x="128" y="366" type="curve"/>
      <point x="151" y="330"/>
      <point x="127" y="364"/>
    </contour>
    <contour>
      <point x="169" y="0" type="curve"/>
      <point x="169" y="267"/>
      <point x="169" y="533"/>
      <point x="169" y="800" type="curve"/>
      <point x="83" y="800"/>
      <point x="169" y="800"/>
      <point x="83" y="800" type="curve"/>
      <point x="83" y="533"/>
      <point x="83" y="267"/>
      <point x="83" y="0" type="curve"/>
      <point x="169" y="0"/>
      <point x="83" y="0"/>
    </contour>
  </outline>
</glyph>
<glyph name="i" format="1">
  <advance width="276"/>
  <unicode hex="0069"/>
  <outline>
    <contour>
      <point x="146" y="639" type="move" name="top"/>
    </contour>
    <contour>
      <point x="188" y="2" type="move" name="bottom"/>
    </contour>
    <contour>
      <point x="149" y="68" type="curve"/>
      <point x="27" y="68"/>
      <point x="152" y="68"/>
      <point x="30" y="68" type="curve"/>
      <point x="29" y="0"/>
      <point x="30" y="68"/>
      <point x="29" y="0" type="curve"/>
      <point x="69" y="0"/>
      <point x="109" y="0"/>
      <point x="149" y="0" type="curve"/>
      <point x="149" y="68"/>
      <point x="149" y="0"/>
    </contour>
    <contour>
      <point x="149" y="0" type="curve"/>
      <point x="187" y="0"/>
      <point x="222" y="0"/>
      <point x="262" y="0" type="curve"/>
      <point x="262" y="68"/>
      <point x="262" y="0"/>
      <point x="262" y="68" type="curve"/>
      <point x="146" y="68"/>
      <point x="265" y="68"/>
      <point x="149" y="68" type="curve"/>
      <point x="149" y="0"/>
      <point x="149" y="68"/>
    </contour>
    <contour>
      <point x="149" y="533" type="curve"/>
      <point x="109" y="533"/>
      <point x="69" y="533"/>
      <point x="30" y="533" type="curve"/>
      <point x="29" y="465"/>
      <point x="30" y="533"/>
      <point x="29" y="465" type="curve"/>
      <point x="152" y="465"/>
      <point x="27" y="465"/>
      <point x="149" y="465" type="curve"/>
      <point x="149" y="533"/>
      <point x="149" y="465"/>
    </contour>
    <contour>
      <point x="194" y="0" type="curve"/>
      <point x="194" y="178"/>
      <point x="194" y="355"/>
      <point x="194" y="533" type="curve"/>
      <point x="103" y="533"/>
      <point x="194" y="533"/>
      <point x="103" y="533" type="curve"/>
      <point x="103" y="355"/>
      <point x="103" y="178"/>
      <point x="103" y="0" type="curve"/>
      <point x="194" y="0"/>
      <point x="103" y="0"/>
    </contour>
    <contour>
      <point x="192" y="681" type="curve"/>
      <point x="192" y="711"/>
      <point x="172" y="726"/>
      <point x="145" y="726" type="curve"/>
      <point x="117" y="726"/>
      <point x="100" y="709"/>
      <point x="100" y="681" type="curve"/>
      <point x="193" y="681"/>
      <point x="99" y="681"/>
      <point x="192" y="681" type="curve"/>
      <point x="192" y="650"/>
      <point x="173" y="635"/>
      <point x="145" y="635" type="curve"/>
      <point x="117" y="635"/>
      <point x="100" y="651"/>
      <point x="100" y="681" type="curve"/>
      <point x="193" y="681"/>
      <point x="99" y="681"/>
    </contour>
  </outline>
</glyph>
<glyph name="j" format="1">
  <advance width="234"/>
  <unicode hex="006A"/>
  <outline>
    <contour>
      <point x="112" y="533" type="curve"/>
      <point x="72" y="533"/>
      <point x="35" y="533"/>
      <point x="-5" y="533" type="curve"/>
      <point x="-5" y="465"/>
      <point x="-5" y="533"/>
      <point x="-5" y="465" type="curve"/>
      <point x="117" y="465"/>
      <point x="-10" y="465"/>
      <point x="112" y="465" type="curve"/>
      <point x="112" y="533"/>
      <point x="112" y="465"/>
    </contour>
    <contour>
      <point x="-5" y="-303" type="curve"/>
      <point x="1" y="-304"/>
      <point x="9" y="-305"/>
      <point x="17" y="-305" type="curve"/>
      <point x="106" y="-305"/>
      <point x="156" y="-225"/>
      <point x="156" y="-130" type="curve"/>
      <point x="156" y="91"/>
      <point x="156" y="312"/>
      <point x="156" y="534" type="curve"/>
      <point x="69" y="534"/>
      <point x="156" y="534"/>
      <point x="69" y="534" type="curve"/>
      <point x="69" y="312"/>
      <point x="69" y="91"/>
      <point x="69" y="-130" type="curve"/>
      <point x="69" y="-179"/>
      <point x="63" y="-237"/>
      <point x="21" y="-237" type="curve"/>
      <point x="16" y="-237"/>
      <point x="13" y="-237"/>
      <point x="7" y="-236" type="curve"/>
      <point x="-5" y="-300"/>
      <point x="7" y="-237"/>
    </contour>
    <contour>
      <point x="157" y="676" type="curve"/>
      <point x="157" y="707"/>
      <point x="138" y="722"/>
      <point x="111" y="722" type="curve"/>
      <point x="83" y="722"/>
      <point x="65" y="705"/>
      <point x="65" y="676" type="curve"/>
      <point x="159" y="676"/>
      <point x="64" y="676"/>
      <point x="157" y="676" type="curve"/>
      <point x="157" y="645"/>
      <point x="139" y="631"/>
      <point x="111" y="631" type="curve"/>
      <point x="83" y="631"/>
      <point x="65" y="646"/>
      <point x="65" y="676" type="curve"/>
      <point x="159" y="676"/>
      <point x="64" y="676"/>
    </contour>
  </outline>
</glyph>
<glyph name="m" format="1">
  <advance width="727"/>
  <unicode hex="006D"/>
  <outline>
    <contour>
      <point x="373" y="0" type="curve"/>
      <point x="478" y="0"/>
      <point x="373" y="0"/>
      <point x="479" y="0" type="curve"/>
      <point x="479" y="68"/>
      <point x="479" y="0"/>
      <point x="479" y="68" type="curve"/>
      <point x="373" y="68"/>
      <point x="478" y="68"/>
      <point x="373" y="68" type="curve"/>
      <point x="373" y="0"/>
      <point x="373" y="68"/>
    </contour>
    <contour>
      <point x="585" y="0" type="curve"/>
      <point x="627" y="0"/>
      <point x="664" y="0"/>
      <point x="706" y="0" type="curve"/>
      <point x="706" y="68"/>
      <point x="706" y="0"/>
      <point x="706" y="68" type="curve"/>
      <point x="580" y="68"/>
      <point x="711" y="68"/>
      <point x="585" y="68" type="curve"/>
      <point x="585" y="0"/>
      <point x="585" y="68"/>
    </contour>
    <contour>
      <point x="160" y="68" type="curve"/>
      <point x="36" y="68"/>
      <point x="166" y="68"/>
      <point x="41" y="68" type="curve"/>
      <point x="41" y="0"/>
      <point x="41" y="68"/>
      <point x="41" y="0" type="curve"/>
      <point x="82" y="0"/>
      <point x="120" y="0"/>
      <point x="160" y="0" type="curve"/>
      <point x="160" y="68"/>
      <point x="160" y="0"/>
    </contour>
    <contour>
      <point x="160" y="0" type="curve"/>
      <point x="198" y="0"/>
      <point x="150" y="0"/>
      <point x="262" y="0" type="curve"/>
      <point x="262" y="68"/>
      <point x="262" y="0"/>
      <point x="262" y="68" type="curve"/>
      <point x="150" y="68"/>
      <point x="272" y="68"/>
      <point x="160" y="68" type="curve"/>
      <point x="160" y="0"/>
      <point x="160" y="68"/>
    </contour>
    <contour>
      <point x="160" y="533" type="curve"/>
      <point x="120" y="533"/>
      <point x="82" y="533"/>
      <point x="41" y="533" type="curve"/>
      <point x="41" y="465"/>
      <point x="41" y="533"/>
      <point x="41" y="465" type="curve"/>
      <point x="166" y="465"/>
      <point x="36" y="465"/>
      <point x="160" y="465" type="curve"/>
      <point x="160" y="533"/>
      <point x="160" y="465"/>
    </contour>
    <contour>
      <point x="396" y="311" type="curve"/>
      <point x="411" y="383"/>
      <point x="428" y="468"/>
      <point x="486" y="468" type="curve"/>
      <point x="553" y="468"/>
      <point x="541" y="404"/>
      <point x="541" y="323" type="curve"/>
      <point x="541" y="216"/>
      <point x="541" y="108"/>
      <point x="541" y="0" type="curve"/>
      <point x="626" y="0"/>
      <point x="541" y="0"/>
      <point x="626" y="0" type="curve"/>
      <point x="626" y="110"/>
      <point x="626" y="220"/>
      <point x="626" y="331" type="curve"/>
      <point x="626" y="451"/>
      <point x="626" y="538"/>
      <point x="517" y="538" type="curve"/>
      <point x="433" y="538"/>
      <point x="390" y="452"/>
      <point x="375" y="351" type="curve"/>
      <point x="398" y="313"/>
      <point x="372" y="350"/>
    </contour>
    <contour>
      <point x="184" y="310" type="curve"/>
      <point x="196" y="381"/>
      <point x="214" y="468"/>
      <point x="274" y="468" type="curve"/>
      <point x="342" y="468"/>
      <point x="329" y="404"/>
      <point x="329" y="323" type="curve"/>
      <point x="329" y="216"/>
      <point x="329" y="108"/>
      <point x="329" y="0" type="curve"/>
      <point x="415" y="0"/>
      <point x="329" y="0"/>
      <point x="415" y="0" type="curve"/>
      <point x="415" y="110"/>
      <point x="415" y="220"/>
      <point x="415" y="331" type="curve"/>
      <point x="415" y="451"/>
      <point x="414" y="538"/>
      <point x="305" y="538" type="curve"/>
      <point x="219" y="538"/>
      <point x="179" y="453"/>
      <point x="163" y="351" type="curve"/>
      <point x="187" y="313"/>
      <point x="160" y="349"/>
    </contour>
    <contour>
      <point x="203" y="0" type="curve"/>
      <point x="203" y="178"/>
      <point x="203" y="355"/>
      <point x="203" y="533" type="curve"/>
      <point x="118" y="533"/>
      <point x="203" y="533"/>
      <point x="118" y="533" type="curve"/>
      <point x="118" y="355"/>
      <point x="118" y="178"/>
      <point x="118" y="0" type="curve"/>
      <point x="203" y="0"/>
      <point x="118" y="0"/>
    </contour>
  </outline>
</glyph>
<glyph name="p" format="1">
  <advance width="491"/>
  <unicode hex="0070"/>
  <outline>
    <contour>
      <point x="124" y="-231" type="curve"/>
      <point x="3" y="-231"/>
      <point x="127" y="-231"/>
      <point x="6" y="-231" type="curve"/>
      <point x="6" y="-300"/>
      <point x="6" y="-231"/>
      <point x="6" y="-300" type="curve"/>
      <point x="46" y="-300"/>
      <point x="84" y="-300"/>
      <point x="124" y="-300" type="curve"/>
      <point x="124" y="-231"/>
      <point x="124" y="-300"/>
    </contour>
    <contour>
      <point x="124" y="-300" type="curve"/>
      <point x="163" y="-300"/>
      <point x="198" y="-300"/>
      <point x="237" y="-300" type="curve"/>
      <point x="237" y="-231"/>
      <point x="237" y="-300"/>
      <point x="237" y="-231" type="curve"/>
      <point x="122" y="-231"/>
      <point x="239" y="-231"/>
      <point x="124" y="-231" type="curve"/>
      <point x="124" y="-300"/>
      <point x="124" y="-231"/>
    </contour>
    <contour>
      <point x="125" y="533" type="curve"/>
      <point x="85" y="533"/>
      <point x="47" y="533"/>
      <point x="7" y="533" type="curve"/>
      <point x="7" y="465"/>
      <point x="7" y="533"/>
      <point x="7" y="465" type="curve"/>
      <point x="128" y="465"/>
      <point x="4" y="465"/>
      <point x="125" y="465" type="curve"/>
      <point x="125" y="533"/>
      <point x="125" y="465"/>
    </contour>
    <contour>
      <point x="151" y="347" type="curve"/>
      <point x="160" y="399"/>
      <point x="202" y="468"/>
      <point x="254" y="468" type="curve"/>
      <point x="348" y="468"/>
      <point x="356" y="370"/>
      <point x="356" y="268" type="curve"/>
      <point x="358" y="163"/>
      <point x="346" y="63"/>
      <point x="256" y="63" type="curve"/>
      <point x="208" y="63"/>
      <point x="176" y="96"/>
      <point x="154" y="141" type="curve"/>
      <point x="120" y="100"/>
      <point x="157" y="145"/>
      <point x="123" y="105" type="curve"/>
      <point x="158" y="37"/>
      <point x="202" y="-5"/>
      <point x="274" y="-5" type="curve"/>
      <point x="412" y="-5"/>
      <point x="443" y="127"/>
      <point x="443" y="272" type="curve"/>
      <point x="443" y="411"/>
      <point x="409" y="539"/>
      <point x="273" y="539" type="curve"/>
      <point x="200" y="539"/>
      <point x="148" y="468"/>
      <point x="127" y="407" type="curve"/>
      <point x="154" y="344"/>
      <point x="124" y="410"/>
    </contour>
    <contour>
      <point x="168" y="-300" type="curve"/>
      <point x="168" y="-22"/>
      <point x="168" y="255"/>
      <point x="168" y="533" type="curve"/>
      <point x="82" y="533"/>
      <point x="168" y="533"/>
      <point x="82" y="533" type="curve"/>
      <point x="82" y="255"/>
      <point x="82" y="-22"/>
      <point x="82" y="-300" type="curve"/>
      <point x="168" y="-300"/>
      <point x="82" y="-300"/>
    </contour>
  </outline>
</glyph>
<glyph name="q" format="1">
  <advance width="501"/>
  <unicode hex="0071"/>
  <outline>
    <contour>
      <point x="366" y="465" type="curve"/>
      <point x="489" y="465"/>
      <point x="354" y="465"/>
      <point x="479" y="465" type="curve"/>
      <point x="479" y="539"/>
      <point x="479" y="459"/>
      <point x="479" y="533" type="curve"/>
      <point x="441" y="533"/>
      <point x="403" y="533"/>
      <point x="366" y="533" type="curve"/>
      <point x="366" y="459"/>
      <point x="366" y="539"/>
    </contour>
    <contour>
      <point x="365" y="-231" type="curve"/>
      <point x="234" y="-231"/>
      <point x="377" y="-231"/>
      <point x="246" y="-231" type="curve"/>
      <point x="246" y="-306"/>
      <point x="246" y="-225"/>
      <point x="246" y="-300" type="curve"/>
      <point x="286" y="-300"/>
      <point x="325" y="-300"/>
      <point x="365" y="-300" type="curve"/>
      <point x="365" y="-225"/>
      <point x="365" y="-306"/>
    </contour>
    <contour>
      <point x="365" y="-300" type="curve"/>
      <point x="403" y="-300"/>
      <point x="440" y="-300"/>
      <point x="478" y="-300" type="curve"/>
      <point x="478" y="-225"/>
      <point x="478" y="-306"/>
      <point x="478" y="-231" type="curve"/>
      <point x="353" y="-231"/>
      <point x="489" y="-231"/>
      <point x="365" y="-231" type="curve"/>
      <point x="365" y="-306"/>
      <point x="365" y="-225"/>
    </contour>
    <contour>
      <point x="365" y="414" type="curve"/>
      <point x="340" y="491"/>
      <point x="281" y="538"/>
      <point x="217" y="538" type="curve"/>
      <point x="80" y="538"/>
      <point x="48" y="408"/>
      <point x="49" y="265" type="curve"/>
      <point x="49" y="122"/>
      <point x="86" y="-5"/>
      <point x="222" y="-5" type="curve"/>
      <point x="286" y="-5"/>
      <point x="339" y="54"/>
      <point x="362" y="119" type="curve"/>
      <point x="332" y="161"/>
      <point x="367" y="119"/>
      <point x="338" y="160" type="curve"/>
      <point x="321" y="110"/>
      <point x="282" y="63"/>
      <point x="234" y="63" type="curve"/>
      <point x="145" y="63"/>
      <point x="135" y="164"/>
      <point x="135" y="268" type="curve"/>
      <point x="135" y="369"/>
      <point x="147" y="467"/>
      <point x="232" y="467" type="curve"/>
      <point x="274" y="467"/>
      <point x="311" y="442"/>
      <point x="341" y="375" type="curve"/>
      <point x="361" y="419"/>
      <point x="344" y="371"/>
    </contour>
    <contour>
      <point x="410" y="-300" type="curve"/>
      <point x="410" y="-25"/>
      <point x="410" y="258"/>
      <point x="410" y="533" type="curve"/>
      <point x="311" y="533"/>
      <point x="418" y="533"/>
      <point x="320" y="533" type="curve"/>
      <point x="320" y="258"/>
      <point x="320" y="-25"/>
      <point x="320" y="-300" type="curve"/>
      <point x="418" y="-300"/>
      <point x="311" y="-300"/>
    </contour>
  </outline>
</glyph>
<glyph name="r" format="1">
  <advance width="341"/>
  <unicode hex="0072"/>
  <outline>
    <contour>
      <point x="161" y="639" type="move" name="top"/>
    </contour>
    <contour>
      <point x="196" y="-45" type="move" name="bottom"/>
    </contour>
    <contour>
      <point x="159" y="0" type="curve"/>
      <point x="197" y="0"/>
      <point x="234" y="0"/>
      <point x="272" y="0" type="curve"/>
      <point x="272" y="74"/>
      <point x="272" y="-6"/>
      <point x="272" y="68" type="curve"/>
      <point x="147" y="68"/>
      <point x="284" y="68"/>
      <point x="159" y="68" type="curve"/>
      <point x="159" y="-6"/>
      <point x="159" y="74"/>
    </contour>
    <contour>
      <point x="159" y="68" type="curve"/>
      <point x="27" y="68"/>
      <point x="172" y="68"/>
      <point x="40" y="68" type="curve"/>
      <point x="40" y="-6"/>
      <point x="40" y="74"/>
      <point x="40" y="0" type="curve"/>
      <point x="80" y="0"/>
      <point x="119" y="0"/>
      <point x="159" y="0" type="curve"/>
      <point x="159" y="74"/>
      <point x="159" y="-6"/>
    </contour>
    <contour>
      <point x="159" y="533" type="curve"/>
      <point x="119" y="533"/>
      <point x="80" y="533"/>
      <point x="40" y="533" type="curve"/>
      <point x="40" y="459"/>
      <point x="40" y="539"/>
      <point x="40" y="465" type="curve"/>
      <point x="172" y="465"/>
      <point x="27" y="465"/>
      <point x="159" y="465" type="curve"/>
      <point x="159" y="539"/>
      <point x="159" y="459"/>
    </contour>
    <contour>
      <point x="202" y="0" type="curve"/>
      <point x="202" y="176"/>
      <point x="202" y="357"/>
      <point x="202" y="533" type="curve"/>
      <point x="109" y="533"/>
      <point x="210" y="533"/>
      <point x="116" y="533" type="curve"/>
      <point x="116" y="357"/>
      <point x="116" y="176"/>
      <point x="116" y="0" type="curve"/>
      <point x="210" y="0"/>
      <point x="109" y="0"/>
    </contour>
    <contour>
      <point x="184" y="328" type="curve"/>
      <point x="202" y="426"/>
      <point x="257" y="469"/>
      <point x="319" y="469" type="curve"/>
      <point x="319" y="548"/>
      <point x="319" y="459"/>
      <point x="319" y="538" type="curve"/>
      <point x="237" y="538"/>
      <point x="174" y="461"/>
      <point x="151" y="364" type="curve"/>
      <point x="186" y="328"/>
      <point x="154" y="363"/>
    </contour>
  </outline>
</glyph>
<glyph name="t" format="1">
  <advance width="290"/>
  <unicode hex="0074"/>
  <outline>
    <contour>
      <point x="211" y="-40" type="move" name="bottom"/>
    </contour>
    <contour>
      <point x="16" y="464" type="curve"/>
      <point x="269" y="464" type="line"/>
      <point x="269" y="532"/>
      <point x="269" y="464"/>
      <point x="269" y="532" type="curve"/>
      <point x="16" y="532" type="line"/>
      <point x="16" y="464"/>
      <point x="16" y="532"/>
    </contour>
    <contour>
      <point x="235" y="87" type="curve"/>
      <point x="223" y="75"/>
      <point x="212" y="67"/>
      <point x="196" y="67" type="curve"/>
      <point x="156" y="67"/>
      <point x="157" y="110"/>
      <point x="157" y="161" type="curve"/>
      <point x="157" y="680" type="line"/>
      <point x="71" y="625"/>
      <point x="157" y="674"/>
      <point x="71" y="620" type="curve"/>
      <point x="71" y="157" type="line"/>
      <point x="71" y="60"/>
      <point x="99" y="-6"/>
      <point x="183" y="-6" type="curve"/>
      <point x="218" y="-6"/>
      <point x="242" y="6"/>
      <point x="273" y="28" type="curve"/>
      <point x="235" y="87"/>
      <point x="273" y="28"/>
    </contour>
  </outline>
</glyph>
<glyph name="u" format="1">
  <advance width="502"/>
  <unicode hex="0075"/>
  <outline>
    <contour>
      <point x="230" y="639" type="move" name="top"/>
    </contour>
    <contour>
      <point x="414" y="1" type="move" name="bottom"/>
    </contour>
    <contour>
      <point x="366" y="533" type="curve"/>
      <point x="324" y="533"/>
      <point x="287" y="533"/>
      <point x="246" y="533" type="curve"/>
      <point x="246" y="459"/>
      <point x="246" y="539"/>
      <point x="246" y="465" type="curve"/>
      <point x="379" y="465"/>
      <point x="233" y="465"/>
      <point x="366" y="465" type="curve"/>
      <point x="366" y="539"/>
      <point x="366" y="459"/>
    </contour>
    <contour>
      <point x="132" y="533" type="curve"/>
      <point x="92" y="533"/>
      <point x="54" y="533"/>
      <point x="13" y="533" type="curve"/>
      <point x="13" y="459"/>
      <point x="13" y="539"/>
      <point x="13" y="465" type="curve"/>
      <point x="146" y="465"/>
      <point x="0" y="465"/>
      <point x="132" y="465" type="curve"/>
      <point x="132" y="539"/>
      <point x="132" y="459"/>
    </contour>
    <contour>
      <point x="366" y="0" type="curve"/>
      <point x="405" y="0"/>
      <point x="439" y="0"/>
      <point x="478" y="0" type="curve"/>
      <point x="478" y="74"/>
      <point x="478" y="-6"/>
      <point x="478" y="68" type="curve"/>
      <point x="354" y="68"/>
      <point x="491" y="68"/>
      <point x="366" y="68" type="curve"/>
      <point x="366" y="-6"/>
      <point x="366" y="74"/>
    </contour>
    <contour>
      <point x="409" y="0" type="curve"/>
      <point x="409" y="177"/>
      <point x="409" y="356"/>
      <point x="409" y="533" type="curve"/>
      <point x="314" y="533"/>
      <point x="416" y="533"/>
      <point x="323" y="533" type="curve"/>
      <point x="323" y="356"/>
      <point x="323" y="177"/>
      <point x="323" y="0" type="curve"/>
      <point x="416" y="0"/>
      <point x="314" y="0"/>
    </contour>
    <contour>
      <point x="337" y="198" type="curve"/>
      <point x="321" y="141"/>
      <point x="292" y="67"/>
      <point x="244" y="67" type="curve"/>
      <point x="181" y="67"/>
      <point x="175" y="130"/>
      <point x="175" y="204" type="curve"/>
      <point x="175" y="313"/>
      <point x="175" y="424"/>
      <point x="175" y="533" type="curve"/>
      <point x="81" y="533"/>
      <point x="183" y="533"/>
      <point x="90" y="533" type="curve"/>
      <point x="90" y="422"/>
      <point x="90" y="310"/>
      <point x="90" y="200" type="curve"/>
      <point x="90" y="83"/>
      <point x="119" y="-5"/>
      <point x="233" y="-5" type="curve"/>
      <point x="308" y="-5"/>
      <point x="348" y="80"/>
      <point x="369" y="170" type="curve"/>
      <point x="333" y="202"/>
      <point x="373" y="166"/>
    </contour>
  </outline>
</glyph>
<glyph name="v" format="1">
  <advance width="492"/>
  <unicode hex="0076"/>
  <outline>
    <contour>
      <point x="113" y="533" type="curve"/>
      <point x="77" y="533"/>
      <point x="46" y="533"/>
      <point x="11" y="533" type="curve"/>
      <point x="11" y="465"/>
      <point x="11" y="533"/>
      <point x="11" y="465" type="curve"/>
      <point x="118" y="465"/>
      <point x="6" y="465"/>
      <point x="113" y="465" type="curve"/>
      <point x="113" y="533"/>
      <point x="113" y="465"/>
    </contour>
    <contour>
      <point x="113" y="465" type="curve"/>
      <point x="221" y="465"/>
      <point x="109" y="465"/>
      <point x="217" y="465" type="curve"/>
      <point x="217" y="533"/>
      <point x="217" y="465"/>
      <point x="217" y="533" type="curve"/>
      <point x="181" y="533"/>
      <point x="149" y="533"/>
      <point x="113" y="533" type="curve"/>
      <point x="113" y="465"/>
      <point x="113" y="533"/>
    </contour>
    <contour>
      <point x="390" y="533" type="curve"/>
      <point x="352" y="533"/>
      <point x="319" y="533"/>
      <point x="282" y="533" type="curve"/>
      <point x="282" y="465"/>
      <point x="282" y="533"/>
      <point x="282" y="465" type="curve"/>
      <point x="394" y="465"/>
      <point x="277" y="465"/>
      <point x="390" y="465" type="curve"/>
      <point x="390" y="533"/>
      <point x="390" y="465"/>
    </contour>
    <contour>
      <point x="390" y="465" type="curve"/>
      <point x="491" y="465"/>
      <point x="386" y="465"/>
      <point x="487" y="465" type="curve"/>
      <point x="487" y="533"/>
      <point x="487" y="465"/>
      <point x="487" y="533" type="curve"/>
      <point x="453" y="533"/>
      <point x="424" y="533"/>
      <point x="390" y="533" type="curve"/>
      <point x="390" y="465"/>
      <point x="390" y="533"/>
    </contour>
    <contour>
      <point x="64" y="533" type="curve"/>
      <point x="109" y="355"/>
      <point x="154" y="178"/>
      <point x="197" y="0" type="curve"/>
      <point x="277" y="0"/>
      <point x="197" y="0"/>
      <point x="277" y="0" type="curve"/>
      <point x="234" y="177"/>
      <point x="196" y="356"/>
      <point x="153" y="533" type="curve"/>
      <point x="64" y="533"/>
      <point x="153" y="533"/>
    </contour>
    <contour>
      <point x="351" y="533" type="curve"/>
      <point x="218" y="0" type="line"/>
      <point x="299" y="0"/>
      <point x="218" y="0"/>
      <point x="299" y="0" type="curve"/>
      <point x="346" y="178"/>
      <point x="392" y="355"/>
      <point x="439" y="533" type="curve"/>
      <point x="351" y="533"/>
      <point x="439" y="533"/>
    </contour>
  </outline>
</glyph>
<glyph name="w" format="1">
  <advance width="692"/>
  <unicode hex="0077"/>
  <outline>
    <contour>
      <point x="577" y="465" type="curve"/>
      <point x="690" y="465"/>
      <point x="572" y="465"/>
      <point x="685" y="465" type="curve"/>
      <point x="685" y="533"/>
      <point x="685" y="465"/>
      <point x="685" y="533" type="curve"/>
      <point x="648" y="533"/>
      <point x="614" y="533"/>
      <point x="577" y="533" type="curve"/>
      <point x="577" y="465"/>
      <point x="577" y="533"/>
    </contour>
    <contour>
      <point x="577" y="533" type="curve"/>
      <point x="539" y="533"/>
      <point x="515" y="533"/>
      <point x="477" y="533" type="curve"/>
      <point x="477" y="465"/>
      <point x="477" y="533"/>
      <point x="477" y="465" type="curve"/>
      <point x="592" y="465"/>
      <point x="462" y="465"/>
      <point x="577" y="465" type="curve"/>
      <point x="577" y="533"/>
      <point x="577" y="465"/>
    </contour>
    <contour>
      <point x="117" y="533" type="curve"/>
      <point x="80" y="533"/>
      <point x="46" y="533"/>
      <point x="8" y="533" type="curve"/>
      <point x="8" y="465"/>
      <point x="8" y="533"/>
      <point x="8" y="465" type="curve"/>
      <point x="122" y="465"/>
      <point x="4" y="465"/>
      <point x="117" y="465" type="curve"/>
      <point x="117" y="533"/>
      <point x="117" y="465"/>
    </contour>
    <contour>
      <point x="117" y="465" type="curve"/>
      <point x="229" y="465"/>
      <point x="107" y="465"/>
      <point x="219" y="465" type="curve"/>
      <point x="219" y="533"/>
      <point x="219" y="465"/>
      <point x="219" y="533" type="curve"/>
      <point x="182" y="533"/>
      <point x="154" y="533"/>
      <point x="117" y="533" type="curve"/>
      <point x="117" y="465"/>
      <point x="117" y="533"/>
    </contour>
    <contour>
      <point x="257" y="0" type="curve"/>
      <point x="300" y="178"/>
      <point x="344" y="355"/>
      <point x="386" y="533" type="curve"/>
      <point x="311" y="533"/>
      <point x="386" y="533"/>
      <point x="311" y="533" type="curve"/>
      <point x="270" y="355"/>
      <point x="227" y="178"/>
      <point x="185" y="0" type="curve"/>
      <point x="257" y="0"/>
      <point x="185" y="0"/>
    </contour>
    <contour>
      <point x="552" y="533" type="curve"/>
      <point x="512" y="355"/>
      <point x="472" y="178"/>
      <point x="434" y="0" type="curve"/>
      <point x="505" y="0"/>
      <point x="434" y="0"/>
      <point x="505" y="0" type="curve"/>
      <point x="546" y="178"/>
      <point x="586" y="355"/>
      <point x="627" y="533" type="curve"/>
      <point x="552" y="533"/>
      <point x="627" y="533"/>
    </contour>
    <contour>
      <point x="316" y="533" type="curve"/>
      <point x="355" y="355"/>
      <point x="394" y="178"/>
      <point x="433" y="0" type="curve"/>
      <point x="505" y="0"/>
      <point x="433" y="0"/>
      <point x="505" y="0" type="curve"/>
      <point x="467" y="178"/>
      <point x="428" y="355"/>
      <point x="390" y="533" type="curve"/>
      <point x="316" y="533"/>
      <point x="390" y="533"/>
    </contour>
    <contour>
      <point x="68" y="533" type="curve"/>
      <point x="107" y="355"/>
      <point x="146" y="178"/>
      <point x="184" y="0" type="curve"/>
      <point x="256" y="0"/>
      <point x="184" y="0"/>
      <point x="256" y="0" type="curve"/>
      <point x="218" y="178"/>
      <point x="180" y="355"/>
      <point x="142" y="533" type="curve"/>
      <point x="68" y="533"/>
      <point x="142" y="533"/>
    </contour>
  </outline>
</glyph>
<glyph name="x" format="1">
  <advance width="492"/>
  <unicode hex="0078"/>
  <outline>
    <contour>
      <point x="104" y="68" type="curve"/>
      <point x="24" y="68"/>
      <point x="99" y="68"/>
      <point x="19" y="68" type="curve"/>
      <point x="19" y="0"/>
      <point x="19" y="68"/>
      <point x="19" y="0" type="curve"/>
      <point x="46" y="0"/>
      <point x="77" y="0"/>
      <point x="104" y="0" type="curve"/>
      <point x="104" y="68"/>
      <point x="104" y="0"/>
    </contour>
    <contour>
      <point x="403" y="68" type="curve"/>
      <point x="284" y="68"/>
      <point x="400" y="68"/>
      <point x="281" y="68" type="curve"/>
      <point x="281" y="0"/>
      <point x="281" y="68"/>
      <point x="281" y="0" type="curve"/>
      <point x="320" y="0"/>
      <point x="364" y="0"/>
      <point x="403" y="0" type="curve"/>
      <point x="403" y="68"/>
      <point x="403" y="0"/>
    </contour>
    <contour>
      <point x="391" y="0" type="curve"/>
      <point x="419" y="0"/>
      <point x="457" y="0"/>
      <point x="484" y="0" type="curve"/>
      <point x="484" y="68"/>
      <point x="484" y="0"/>
      <point x="484" y="68" type="curve"/>
      <point x="402" y="68"/>
      <point x="474" y="68"/>
      <point x="391" y="68" type="curve"/>
      <point x="391" y="0"/>
      <point x="391" y="68"/>
    </contour>
    <contour>
      <point x="92" y="0" type="curve"/>
      <point x="132" y="0"/>
      <point x="93" y="0"/>
      <point x="214" y="0" type="curve"/>
      <point x="214" y="68"/>
      <point x="214" y="0"/>
      <point x="214" y="68" type="curve"/>
      <point x="93" y="68"/>
      <point x="212" y="68"/>
      <point x="92" y="68" type="curve"/>
      <point x="92" y="0"/>
      <point x="92" y="68"/>
    </contour>
    <contour>
      <point x="382" y="465" type="curve"/>
      <point x="468" y="465"/>
      <point x="396" y="465"/>
      <point x="482" y="465" type="curve"/>
      <point x="482" y="533"/>
      <point x="482" y="465"/>
      <point x="482" y="533" type="curve"/>
      <point x="453" y="533"/>
      <point x="410" y="533"/>
      <point x="382" y="533" type="curve"/>
      <point x="382" y="465"/>
      <point x="382" y="533"/>
    </contour>
    <contour>
      <point x="137" y="533" type="curve"/>
      <point x="105" y="533"/>
      <point x="67" y="533"/>
      <point x="36" y="533" type="curve"/>
      <point x="36" y="465"/>
      <point x="36" y="533"/>
      <point x="36" y="465" type="curve"/>
      <point x="129" y="465"/>
      <point x="44" y="465"/>
      <point x="137" y="465" type="curve"/>
      <point x="137" y="533"/>
      <point x="137" y="465"/>
    </contour>
    <contour>
      <point x="121" y="465" type="curve"/>
      <point x="232" y="465"/>
      <point x="113" y="465"/>
      <point x="224" y="465" type="curve"/>
      <point x="224" y="533"/>
      <point x="224" y="465"/>
      <point x="224" y="533" type="curve"/>
      <point x="188" y="533"/>
      <point x="158" y="533"/>
      <point x="121" y="533" type="curve"/>
      <point x="121" y="465"/>
      <point x="121" y="533"/>
    </contour>
    <contour>
      <point x="401" y="533" type="curve"/>
      <point x="360" y="533"/>
      <point x="327" y="533"/>
      <point x="287" y="533" type="curve"/>
      <point x="287" y="465"/>
      <point x="287" y="533"/>
      <point x="287" y="465" type="curve"/>
      <point x="409" y="465"/>
      <point x="279" y="465"/>
      <point x="401" y="465" type="curve"/>
      <point x="401" y="533"/>
      <point x="401" y="465"/>
    </contour>
    <contour>
      <point x="434" y="21" type="curve"/>
      <point x="394" y="105"/>
      <point x="190" y="450"/>
      <point x="151" y="533" type="curve"/>
      <point x="100" y="533"/>
      <point x="131" y="507"/>
      <point x="80" y="507" type="curve"/>
      <point x="120" y="424"/>
      <point x="321" y="83"/>
      <point x="360" y="0" type="curve"/>
      <point x="414" y="0"/>
      <point x="380" y="21"/>
    </contour>
    <contour>
      <point x="364" y="533" type="curve"/>
      <point x="324" y="450"/>
      <point x="107" y="110"/>
      <point x="68" y="27" type="curve"/>
      <point x="117" y="27"/>
      <point x="88" y="0"/>
      <point x="137" y="0" type="curve"/>
      <point x="177" y="83"/>
      <point x="396" y="429"/>
      <point x="436" y="512" type="curve"/>
      <point x="385" y="512"/>
      <point x="415" y="533"/>
    </contour>
  </outline>
</glyph>
<glyph name="y" format="1">
  <advance width="529"/>
  <unicode hex="0079"/>
  <outline>
    <contour>
      <point x="277" y="639" type="move" name="top"/>
    </contour>
    <contour>
      <point x="182" y="-231" type="curve"/>
      <point x="73" y="-232"/>
      <point x="187" y="-231"/>
      <point x="78" y="-232" type="curve"/>
      <point x="78" y="-300"/>
      <point x="78" y="-232"/>
      <point x="78" y="-300" type="curve"/>
      <point x="114" y="-300"/>
      <point x="146" y="-299"/>
      <point x="182" y="-299" type="curve"/>
      <point x="182" y="-231"/>
      <point x="182" y="-299"/>
    </contour>
    <contour>
      <point x="113" y="534" type="curve"/>
      <point x="78" y="534"/>
      <point x="47" y="533"/>
      <point x="12" y="533" type="curve"/>
      <point x="11" y="465"/>
      <point x="12" y="533"/>
      <point x="11" y="465" type="curve"/>
      <point x="118" y="465"/>
      <point x="7" y="465"/>
      <point x="113" y="465" type="curve"/>
      <point x="113" y="534"/>
      <point x="113" y="465"/>
    </contour>
    <contour>
      <point x="113" y="465" type="curve"/>
      <point x="232" y="465"/>
      <point x="109" y="465"/>
      <point x="227" y="465" type="curve"/>
      <point x="227" y="533"/>
      <point x="227" y="465"/>
      <point x="227" y="533" type="curve"/>
      <point x="187" y="533"/>
      <point x="153" y="534"/>
      <point x="113" y="534" type="curve"/>
      <point x="113" y="465"/>
      <point x="113" y="534"/>
    </contour>
    <contour>
      <point x="423" y="534" type="curve"/>
      <point x="386" y="534"/>
      <point x="353" y="533"/>
      <point x="316" y="533" type="curve"/>
      <point x="316" y="465"/>
      <point x="316" y="533"/>
      <point x="316" y="465" type="curve"/>
      <point x="428" y="465"/>
      <point x="311" y="465"/>
      <point x="423" y="465" type="curve"/>
      <point x="423" y="534"/>
      <point x="423" y="465"/>
    </contour>
    <contour>
      <point x="423" y="465" type="curve"/>
      <point x="526" y="465"/>
      <point x="418" y="465"/>
      <point x="521" y="465" type="curve"/>
      <point x="521" y="533"/>
      <point x="521" y="465"/>
      <point x="521" y="533" type="curve"/>
      <point x="487" y="533"/>
      <point x="457" y="534"/>
      <point x="423" y="534" type="curve"/>
      <point x="423" y="465"/>
      <point x="423" y="534"/>
    </contour>
    <contour>
      <point x="306" y="-11" type="curve"/>
      <point x="277" y="91"/>
      <point x="183" y="431"/>
      <point x="153" y="533" type="curve"/>
      <point x="64" y="533"/>
      <point x="153" y="533"/>
      <point x="64" y="533" type="curve"/>
      <point x="96" y="432"/>
      <point x="194" y="87"/>
      <point x="226" y="-14" type="curve"/>
      <point x="306" y="-14"/>
      <point x="226" y="-11"/>
    </contour>
    <contour>
      <point x="219" y="-300" type="curve"/>
      <point x="268" y="-149"/>
      <point x="423" y="382"/>
      <point x="472" y="533" type="curve"/>
      <point x="384" y="533"/>
      <point x="472" y="533"/>
      <point x="384" y="533" type="curve"/>
      <point x="334" y="382"/>
      <point x="179" y="-149"/>
      <point x="130" y="-300" type="curve"/>
      <point x="219" y="-300"/>
      <point x="130" y="-300"/>
    </contour>
  </outline>
</glyph>
<glyph name="bar" format="1">
  <advance width="232"/>
  <unicode hex="007C"/>
  <outline>
    <contour>
      <point x="159" y="-300" type="curve"/>
      <point x="159" y="67"/>
      <point x="159" y="433"/>
      <point x="159" y="800" type="curve"/>
      <point x="72" y="800"/>
      <point x="159" y="800"/>
      <point x="72" y="800" type="curve"/>
      <point x="72" y="433"/>
      <point x="72" y="67"/>
      <point x="72" y="-300" type="curve"/>
      <point x="159" y="-300"/>
      <point x="72" y="-300"/>
    </contour>
  </outline>
</glyph>
<glyph name="asciitilde" format="1">
  <advance width="519"/>
  <unicode hex="007E"/>
  <outline>
    <contour>
      <point x="382" y="363" type="curve"/>
      <point x="373" y="324"/>
      <point x="365" y="278"/>
      <point x="335" y="278" type="curve"/>
      <point x="313" y="278"/>
      <point x="302" y="291"/>
      <point x="290" y="310" type="curve"/>
      <point x="260" y="348"/>
      <point x="236" y="371"/>
      <point x="189" y="371" type="curve"/>
      <point x="111" y="371"/>
      <point x="84" y="314"/>
      <point x="69" y="233" type="curve"/>
      <point x="103" y="223"/>
      <point x="106" y="221"/>
      <point x="140" y="211" type="curve"/>
      <point x="147" y="254"/>
      <point x="155" y="297"/>
      <point x="188" y="297" type="curve"/>
      <point x="209" y="297"/>
      <point x="219" y="284"/>
      <point x="232" y="267" type="curve"/>
      <point x="263" y="228"/>
      <point x="288" y="206"/>
      <point x="336" y="205" type="curve"/>
      <point x="414" y="205"/>
      <point x="433" y="266"/>
      <point x="451" y="344" type="curve"/>
      <point x="418" y="353"/>
      <point x="415" y="354"/>
    </contour>
  </outline>
</glyph>
<glyph name="exclamdown" format="1">
  <advance width="235"/>
  <unicode hex="00A1"/>
  <outline>
    <contour>
      <point x="74" y="297" type="line"/>
      <point x="67" y="-196" type="line"/>
      <point x="168" y="-197" type="line"/>
      <point x="164" y="296" type="line"/>
    </contour>
    <contour>
      <point x="74" y="487" type="curve"/>
      <point x="73" y="457"/>
      <point x="92" y="441"/>
      <point x="120" y="441" type="curve"/>
      <point x="147" y="441"/>
      <point x="165" y="458"/>
      <point x="165" y="487" type="curve"/>
      <point x="72" y="487"/>
      <point x="167" y="487"/>
      <point x="74" y="487" type="curve"/>
      <point x="74" y="518"/>
      <point x="92" y="532"/>
      <point x="120" y="531" type="curve"/>
      <point x="148" y="531"/>
      <point x="166" y="517"/>
      <point x="165" y="487" type="curve"/>
      <point x="72" y="487"/>
      <point x="167" y="487"/>
    </contour>
  </outline>
</glyph>
<glyph name="cent" format="1">
  <advance width="479"/>
  <unicode hex="00A2"/>
  <outline>
    <contour>
      <point x="296" y="-53" type="curve"/>
      <point x="296" y="-13"/>
      <point x="296" y="27"/>
      <point x="296" y="67" type="curve"/>
      <point x="210" y="67"/>
      <point x="296" y="67"/>
      <point x="210" y="67" type="curve"/>
      <point x="210" y="27"/>
      <point x="210" y="-13"/>
      <point x="210" y="-53" type="curve"/>
      <point x="296" y="-53"/>
      <point x="210" y="-53"/>
    </contour>
    <contour>
      <point x="224" y="778" type="curve"/>
      <point x="224" y="742"/>
      <point x="224" y="706"/>
      <point x="224" y="670" type="curve"/>
      <point x="309" y="670"/>
      <point x="224" y="670"/>
      <point x="309" y="670" type="curve"/>
      <point x="309" y="706"/>
      <point x="309" y="742"/>
      <point x="309" y="778" type="curve"/>
      <point x="224" y="778"/>
      <point x="309" y="778"/>
    </contour>
    <contour>
      <point x="426" y="606" type="curve"/>
      <point x="380" y="661"/>
      <point x="336" y="683"/>
      <point x="272" y="683" type="curve"/>
      <point x="114" y="683"/>
      <point x="50" y="542"/>
      <point x="50" y="364" type="curve"/>
      <point x="50" y="192"/>
      <point x="98" y="49"/>
      <point x="249" y="49" type="curve"/>
      <point x="326" y="49"/>
      <point x="376" y="80"/>
      <point x="424" y="148" type="curve"/>
      <point x="370" y="197"/>
      <point x="424" y="148"/>
      <point x="370" y="197" type="curve"/>
      <point x="339" y="155"/>
      <point x="310" y="121"/>
      <point x="257" y="121" type="curve"/>
      <point x="154" y="121"/>
      <point x="137" y="238"/>
      <point x="137" y="368" type="curve"/>
      <point x="137" y="497"/>
      <point x="165" y="611"/>
      <point x="265" y="611" type="curve"/>
      <point x="313" y="611"/>
      <point x="344" y="590"/>
      <point x="375" y="553" type="curve"/>
      <point x="426" y="606"/>
      <point x="375" y="553"/>
    </contour>
    <contour>
      <point x="357" y="606" type="curve"/>
      <point x="357" y="486"/>
      <point x="357" y="596"/>
      <point x="357" y="477" type="curve"/>
      <point x="426" y="477"/>
      <point x="357" y="477"/>
      <point x="426" y="477" type="curve"/>
      <point x="426" y="596"/>
      <point x="426" y="486"/>
      <point x="426" y="606" type="curve"/>
      <point x="357" y="606"/>
      <point x="426" y="606"/>
    </contour>
  </outline>
</glyph>
<glyph name="sterling" format="1">
  <advance width="371"/>
  <unicode hex="00A3"/>
  <outline>
    <contour>
      <point x="306" y="69" type="curve"/>
      <point x="219" y="69"/>
      <point x="130" y="69"/>
      <point x="45" y="69" type="curve"/>
      <point x="45" y="0"/>
      <point x="45" y="69"/>
      <point x="45" y="0" type="curve"/>
      <point x="130" y="0"/>
      <point x="221" y="0"/>
      <point x="306" y="0" type="curve"/>
      <point x="306" y="69"/>
      <point x="306" y="0"/>
    </contour>
    <contour>
      <point x="272" y="410" type="curve"/>
      <point x="203" y="410"/>
      <point x="128" y="410"/>
      <point x="61" y="410" type="curve"/>
      <point x="61" y="342"/>
      <point x="61" y="410"/>
      <point x="61" y="342" type="curve"/>
      <point x="128" y="342"/>
      <point x="203" y="342"/>
      <point x="272" y="342" type="curve"/>
      <point x="272" y="410"/>
      <point x="272" y="342"/>
    </contour>
    <contour>
      <point x="327" y="668" type="curve"/>
      <point x="296" y="707"/>
      <point x="267" y="723"/>
      <point x="225" y="723" type="curve"/>
      <point x="76" y="723"/>
      <point x="75" y="558"/>
      <point x="102" y="368" type="curve"/>
      <point x="123" y="215"/>
      <point x="145" y="69"/>
      <point x="45" y="69" type="curve"/>
      <point x="45" y="0"/>
      <point x="45" y="69"/>
      <point x="45" y="0" type="curve"/>
      <point x="210" y="0"/>
      <point x="205" y="179"/>
      <point x="178" y="383" type="curve"/>
      <point x="160" y="522"/>
      <point x="138" y="657"/>
      <point x="220" y="657" type="curve"/>
      <point x="248" y="657"/>
      <point x="264" y="639"/>
      <point x="281" y="619" type="curve"/>
      <point x="327" y="668"/>
      <point x="281" y="619"/>
    </contour>
  </outline>
</glyph>
<glyph name="currency" format="1">
  <advance width="547"/>
  <unicode hex="00A4"/>
  <outline>
    <contour>
      <point x="218" y="314" type="curve"/>
      <point x="218" y="371"/>
      <point x="223" y="428"/>
      <point x="272" y="428" type="curve"/>
      <point x="322" y="428"/>
      <point x="327" y="375"/>
      <point x="327" y="314" type="curve"/>
      <point x="327" y="254"/>
      <point x="324" y="194"/>
      <point x="273" y="194" type="curve"/>
      <point x="222" y="194"/>
      <point x="218" y="252"/>
      <point x="218" y="314" type="curve"/>
      <point x="132" y="314"/>
      <point x="223" y="314"/>
      <point x="137" y="314" type="curve"/>
      <point x="137" y="208"/>
      <point x="179" y="126"/>
      <point x="274" y="126" type="curve"/>
      <point x="371" y="126"/>
      <point x="410" y="211"/>
      <point x="410" y="316" type="curve"/>
      <point x="410" y="416"/>
      <point x="371" y="496"/>
      <point x="279" y="496" type="curve"/>
      <point x="183" y="496"/>
      <point x="137" y="417"/>
      <point x="137" y="314" type="curve"/>
      <point x="223" y="314"/>
      <point x="132" y="314"/>
    </contour>
    <contour>
      <point x="340" y="387" type="line"/>
      <point x="488" y="525" type="line"/>
      <point x="426" y="587" type="line"/>
      <point x="288" y="439" type="line"/>
    </contour>
    <contour>
      <point x="293" y="191" type="line"/>
      <point x="432" y="43" type="line"/>
      <point x="493" y="104" type="line"/>
      <point x="345" y="243" type="line"/>
    </contour>
    <contour>
      <point x="203" y="243" type="line"/>
      <point x="55" y="104" type="line"/>
      <point x="116" y="42" type="line"/>
      <point x="255" y="190" type="line"/>
    </contour>
    <contour>
      <point x="262" y="440" type="line"/>
      <point x="124" y="587" type="line"/>
      <point x="62" y="526" type="line"/>
      <point x="209" y="388" type="line"/>
    </contour>
  </outline>
</glyph>
<glyph name="yen" format="1">
  <advance width="566"/>
  <unicode hex="00A5"/>
  <outline>
    <contour>
      <point x="421" y="394" type="curve"/>
      <point x="376" y="394"/>
      <point x="331" y="394"/>
      <point x="287" y="394" type="curve"/>
      <point x="287" y="319"/>
      <point x="287" y="394"/>
      <point x="287" y="319" type="curve"/>
      <point x="331" y="319"/>
      <point x="376" y="319"/>
      <point x="421" y="319" type="curve"/>
      <point x="421" y="394"/>
      <point x="421" y="319"/>
    </contour>
    <contour>
      <point x="268" y="394" type="curve"/>
      <point x="224" y="394"/>
      <point x="180" y="394"/>
      <point x="136" y="394" type="curve"/>
      <point x="136" y="319"/>
      <point x="136" y="394"/>
      <point x="136" y="319" type="curve"/>
      <point x="180" y="319"/>
      <point x="224" y="319"/>
      <point x="268" y="319" type="curve"/>
      <point x="268" y="394"/>
      <point x="268" y="319"/>
    </contour>
    <contour>
      <point x="421" y="264" type="curve"/>
      <point x="325" y="264"/>
      <point x="231" y="264"/>
      <point x="136" y="264" type="curve"/>
      <point x="136" y="189"/>
      <point x="136" y="264"/>
      <point x="136" y="189" type="curve"/>
      <point x="231" y="189"/>
      <point x="325" y="189"/>
      <point x="421" y="189" type="curve"/>
      <point x="421" y="264"/>
      <point x="421" y="189"/>
    </contour>
    <contour>
      <point x="277" y="68" type="curve"/>
      <point x="155" y="68"/>
      <point x="281" y="68"/>
      <point x="159" y="68" type="curve"/>
      <point x="159" y="0"/>
      <point x="159" y="68"/>
      <point x="159" y="0" type="curve"/>
      <point x="199" y="0"/>
      <point x="236" y="0"/>
      <point x="277" y="0" type="curve"/>
      <point x="277" y="68"/>
      <point x="277" y="0"/>
    </contour>
    <contour>
      <point x="277" y="0" type="curve"/>
      <point x="317" y="0"/>
      <point x="353" y="0"/>
      <point x="394" y="0" type="curve"/>
      <point x="394" y="68"/>
      <point x="394" y="0"/>
      <point x="394" y="68" type="curve"/>
      <point x="272" y="68"/>
      <point x="398" y="68"/>
      <point x="277" y="68" type="curve"/>
      <point x="277" y="0"/>
      <point x="277" y="68"/>
    </contour>
    <contour>
      <point x="420" y="722" type="curve"/>
      <point x="382" y="722"/>
      <point x="347" y="722"/>
      <point x="308" y="722" type="curve"/>
      <point x="308" y="654"/>
      <point x="308" y="722"/>
      <point x="308" y="654" type="curve"/>
      <point x="424" y="654"/>
      <point x="304" y="654"/>
      <point x="420" y="654" type="curve"/>
      <point x="420" y="722"/>
      <point x="420" y="654"/>
    </contour>
    <contour>
      <point x="130" y="722" type="curve"/>
      <point x="96" y="722"/>
      <point x="67" y="722"/>
      <point x="34" y="722" type="curve"/>
      <point x="33" y="654"/>
      <point x="34" y="722"/>
      <point x="33" y="654" type="curve"/>
      <point x="134" y="654"/>
      <point x="28" y="654"/>
      <point x="130" y="654" type="curve"/>
      <point x="130" y="722"/>
      <point x="130" y="654"/>
    </contour>
    <contour>
      <point x="142" y="654" type="curve"/>
      <point x="258" y="654"/>
      <point x="137" y="654"/>
      <point x="253" y="654" type="curve"/>
      <point x="253" y="722"/>
      <point x="253" y="654"/>
      <point x="253" y="722" type="curve"/>
      <point x="215" y="722"/>
      <point x="180" y="722"/>
      <point x="142" y="722" type="curve"/>
      <point x="142" y="654"/>
      <point x="142" y="722"/>
    </contour>
    <contour>
      <point x="432" y="654" type="curve"/>
      <point x="537" y="654"/>
      <point x="427" y="654"/>
      <point x="532" y="654" type="curve"/>
      <point x="532" y="722"/>
      <point x="532" y="654"/>
      <point x="532" y="722" type="curve"/>
      <point x="498" y="722"/>
      <point x="467" y="722"/>
      <point x="432" y="722" type="curve"/>
      <point x="432" y="654"/>
      <point x="432" y="722"/>
    </contour>
    <contour>
      <point x="80" y="725" type="curve"/>
      <point x="131" y="596"/>
      <point x="179" y="469"/>
      <point x="229" y="337" type="curve"/>
      <point x="317" y="337"/>
      <point x="216" y="337"/>
      <point x="303" y="337" type="curve"/>
      <point x="260" y="468"/>
      <point x="216" y="592"/>
      <point x="171" y="722" type="curve"/>
      <point x="80" y="722"/>
      <point x="171" y="725"/>
    </contour>
    <contour>
      <point x="391" y="722" type="curve"/>
      <point x="340" y="591"/>
      <point x="295" y="468"/>
      <point x="243" y="337" type="curve"/>
      <point x="331" y="337"/>
      <point x="236" y="337"/>
      <point x="324" y="337" type="curve"/>
      <point x="377" y="468"/>
      <point x="428" y="596"/>
      <point x="482" y="725" type="curve"/>
      <point x="391" y="725"/>
      <point x="482" y="722"/>
    </contour>
    <contour>
      <point x="323" y="0" type="curve"/>
      <point x="323" y="115"/>
      <point x="323" y="226"/>
      <point x="323" y="342" type="curve"/>
      <point x="230" y="342"/>
      <point x="323" y="342"/>
      <point x="230" y="342" type="curve"/>
      <point x="230" y="226"/>
      <point x="230" y="115"/>
      <point x="230" y="0" type="curve"/>
      <point x="323" y="0"/>
      <point x="230" y="0"/>
    </contour>
  </outline>
</glyph>
<glyph name="section" format="1">
  <advance width="403"/>
  <unicode hex="00A7"/>
  <outline>
    <contour>
      <point x="313" y="703" type="curve"/>
      <point x="277" y="734"/>
      <point x="249" y="750"/>
      <point x="206" y="750" type="curve"/>
      <point x="123" y="750"/>
      <point x="78" y="691"/>
      <point x="78" y="609" type="curve"/>
      <point x="78" y="537"/>
      <point x="109" y="486"/>
      <point x="174" y="454" type="curve"/>
      <point x="221" y="430"/>
      <point x="264" y="411"/>
      <point x="264" y="362" type="curve"/>
      <point x="264" y="310"/>
      <point x="247" y="270"/>
      <point x="199" y="257" type="curve"/>
      <point x="251" y="201"/>
      <point x="199" y="257"/>
      <point x="251" y="201" type="curve"/>
      <point x="323" y="225"/>
      <point x="351" y="284"/>
      <point x="351" y="361" type="curve"/>
      <point x="350" y="442"/>
      <point x="293" y="484"/>
      <point x="217" y="519" type="curve"/>
      <point x="180" y="537"/>
      <point x="158" y="568"/>
      <point x="158" y="609" type="curve"/>
      <point x="158" y="646"/>
      <point x="170" y="682"/>
      <point x="206" y="682" type="curve"/>
      <point x="237" y="682"/>
      <point x="251" y="668"/>
      <point x="271" y="649" type="curve"/>
      <point x="313" y="703"/>
      <point x="271" y="649"/>
    </contour>
    <contour>
      <point x="154" y="521" type="curve"/>
      <point x="86" y="491"/>
      <point x="56" y="440"/>
      <point x="56" y="366" type="curve"/>
      <point x="56" y="287"/>
      <point x="102" y="240"/>
      <point x="175" y="206" type="curve"/>
      <point x="215" y="186"/>
      <point x="249" y="165"/>
      <point x="249" y="118" type="curve"/>
      <point x="249" y="77"/>
      <point x="236" y="40"/>
      <point x="202" y="40" type="curve"/>
      <point x="167" y="40"/>
      <point x="149" y="59"/>
      <point x="127" y="84" type="curve"/>
      <point x="77" y="37"/>
      <point x="127" y="84"/>
      <point x="77" y="37" type="curve"/>
      <point x="114" y="-8"/>
      <point x="149" y="-28"/>
      <point x="201" y="-28" type="curve"/>
      <point x="283" y="-28"/>
      <point x="332" y="31"/>
      <point x="332" y="118" type="curve"/>
      <point x="331" y="190"/>
      <point x="296" y="240"/>
      <point x="230" y="271" type="curve"/>
      <point x="183" y="295"/>
      <point x="142" y="316"/>
      <point x="142" y="365" type="curve"/>
      <point x="142" y="413"/>
      <point x="155" y="450"/>
      <point x="197" y="469" type="curve"/>
      <point x="154" y="521"/>
      <point x="197" y="469"/>
    </contour>
    <contour>
      <point x="146" y="37" type="curve"/>
      <point x="146" y="157"/>
      <point x="146" y="33"/>
      <point x="146" y="153" type="curve"/>
      <point x="77" y="153"/>
      <point x="146" y="153"/>
      <point x="77" y="153" type="curve"/>
      <point x="77" y="33"/>
      <point x="77" y="157"/>
      <point x="77" y="37" type="curve"/>
      <point x="146" y="37"/>
      <point x="77" y="37"/>
    </contour>
    <contour>
      <point x="313" y="587" type="curve"/>
      <point x="313" y="707"/>
      <point x="313" y="583"/>
      <point x="313" y="703" type="curve"/>
      <point x="244" y="703"/>
      <point x="313" y="703"/>
      <point x="244" y="703" type="curve"/>
      <point x="244" y="583"/>
      <point x="244" y="707"/>
      <point x="244" y="587" type="curve"/>
      <point x="313" y="587"/>
      <point x="244" y="587"/>
    </contour>
  </outline>
</glyph>
<glyph name="dieresis" format="1">
  <advance width="340"/>
  <unicode hex="00A8"/>
  <outline>
    <contour>
      <point x="150" y="637" type="move" name="_top"/>
    </contour>
    <contour>
      <point x="127" y="678" type="curve"/>
      <point x="127" y="708"/>
      <point x="108" y="724"/>
      <point x="81" y="724" type="curve"/>
      <point x="53" y="724"/>
      <point x="36" y="707"/>
      <point x="36" y="678" type="curve"/>
      <point x="129" y="678"/>
      <point x="34" y="678"/>
      <point x="127" y="678" type="curve"/>
      <point x="127" y="647"/>
      <point x="109" y="632"/>
      <point x="81" y="632" type="curve"/>
      <point x="53" y="632"/>
      <point x="36" y="648"/>
      <point x="36" y="678" type="curve"/>
      <point x="129" y="678"/>
      <point x="34" y="678"/>
    </contour>
    <contour>
      <point x="264" y="678" type="curve"/>
      <point x="264" y="708"/>
      <point x="246" y="724"/>
      <point x="218" y="724" type="curve"/>
      <point x="191" y="724"/>
      <point x="173" y="707"/>
      <point x="173" y="678" type="curve"/>
      <point x="266" y="678"/>
      <point x="171" y="678"/>
      <point x="264" y="678" type="curve"/>
      <point x="264" y="647"/>
      <point x="246" y="632"/>
      <point x="218" y="632" type="curve"/>
      <point x="191" y="632"/>
      <point x="173" y="648"/>
      <point x="173" y="678" type="curve"/>
      <point x="266" y="678"/>
      <point x="171" y="678"/>
    </contour>
  </outline>
</glyph>
<glyph name="ordfeminine" format="1">
  <advance width="349"/>
  <unicode hex="00AA"/>
  <outline>
    <contour>
      <point x="73" y="719" type="curve"/>
      <point x="73" y="672"/>
      <point x="73" y="704"/>
      <point x="73" y="658" type="curve"/>
      <point x="115" y="658"/>
      <point x="79" y="658"/>
      <point x="121" y="658" type="curve"/>
      <point x="121" y="704"/>
      <point x="121" y="672"/>
      <point x="121" y="719" type="curve"/>
      <point x="79" y="719"/>
      <point x="115" y="719"/>
    </contour>
    <contour>
      <point x="260" y="427" type="curve"/>
      <point x="260" y="512"/>
      <point x="260" y="586"/>
      <point x="260" y="671" type="curve"/>
      <point x="260" y="732"/>
      <point x="224" y="767"/>
      <point x="165" y="767" type="curve"/>
      <point x="122" y="767"/>
      <point x="96" y="747"/>
      <point x="73" y="719" type="curve"/>
      <point x="94" y="685"/>
      <point x="77" y="714"/>
      <point x="98" y="679" type="curve"/>
      <point x="112" y="698"/>
      <point x="128" y="717"/>
      <point x="157" y="717" type="curve"/>
      <point x="187" y="717"/>
      <point x="201" y="694"/>
      <point x="201" y="662" type="curve"/>
      <point x="201" y="579"/>
      <point x="201" y="510"/>
      <point x="201" y="427" type="curve"/>
      <point x="253" y="427"/>
      <point x="208" y="427"/>
    </contour>
    <contour>
      <point x="231" y="427" type="curve"/>
      <point x="252" y="427"/>
      <point x="270" y="427"/>
      <point x="290" y="427" type="curve"/>
      <point x="290" y="468"/>
      <point x="290" y="434"/>
      <point x="290" y="475" type="curve"/>
      <point x="242" y="475"/>
      <point x="279" y="475"/>
      <point x="231" y="475" type="curve"/>
      <point x="231" y="434"/>
      <point x="231" y="468"/>
    </contour>
    <contour>
      <point x="229" y="640" type="curve"/>
      <point x="199" y="635"/>
      <point x="181" y="632"/>
      <point x="152" y="626" type="curve"/>
      <point x="95" y="616"/>
      <point x="58" y="584"/>
      <point x="58" y="525" type="curve"/>
      <point x="58" y="466"/>
      <point x="87" y="426"/>
      <point x="144" y="426" type="curve"/>
      <point x="199" y="426"/>
      <point x="218" y="473"/>
      <point x="245" y="515" type="curve"/>
      <point x="219" y="537"/>
      <point x="242" y="518"/>
      <point x="215" y="541" type="curve"/>
      <point x="202" y="505"/>
      <point x="193" y="473"/>
      <point x="159" y="473" type="curve"/>
      <point x="127" y="473"/>
      <point x="115" y="496"/>
      <point x="115" y="529" type="curve"/>
      <point x="115" y="557"/>
      <point x="131" y="579"/>
      <point x="154" y="584" type="curve"/>
      <point x="185" y="590"/>
      <point x="200" y="593"/>
      <point x="231" y="600" type="curve"/>
      <point x="230" y="634"/>
      <point x="230" y="605"/>
    </contour>
  </outline>
</glyph>
<glyph name="guillemotleft" format="1">
  <advance width="438"/>
  <unicode hex="00AB"/>
  <outline>
    <contour>
      <point x="209" y="448" type="curve"/>
      <point x="189" y="429"/>
      <point x="77" y="344"/>
      <point x="56" y="326" type="curve"/>
      <point x="56" y="250"/>
      <point x="56" y="314"/>
      <point x="56" y="238" type="curve"/>
      <point x="77" y="257"/>
      <point x="189" y="348"/>
      <point x="209" y="367" type="curve"/>
      <point x="209" y="442"/>
      <point x="209" y="373"/>
    </contour>
    <contour>
      <point x="209" y="198" type="curve"/>
      <point x="189" y="217"/>
      <point x="77" y="307"/>
      <point x="56" y="326" type="curve"/>
      <point x="56" y="250"/>
      <point x="56" y="314"/>
      <point x="56" y="238" type="curve"/>
      <point x="77" y="219"/>
      <point x="189" y="136"/>
      <point x="209" y="118" type="curve"/>
      <point x="209" y="192"/>
      <point x="209" y="124"/>
    </contour>
    <contour>
      <point x="360" y="448" type="curve"/>
      <point x="340" y="429"/>
      <point x="227" y="344"/>
      <point x="207" y="326" type="curve"/>
      <point x="207" y="250"/>
      <point x="207" y="314"/>
      <point x="207" y="238" type="curve"/>
      <point x="227" y="257"/>
      <point x="340" y="348"/>
      <point x="360" y="367" type="curve"/>
      <point x="360" y="442"/>
      <point x="360" y="373"/>
    </contour>
    <contour>
      <point x="360" y="198" type="curve"/>
      <point x="340" y="217"/>
      <point x="227" y="307"/>
      <point x="207" y="326" type="curve"/>
      <point x="207" y="250"/>
      <point x="207" y="314"/>
      <point x="207" y="238" type="curve"/>
      <point x="227" y="219"/>
      <point x="340" y="136"/>
      <point x="360" y="118" type="curve"/>
      <point x="360" y="192"/>
      <point x="360" y="124"/>
    </contour>
  </outline>
</glyph>
<glyph name="logicalnot" format="1">
  <advance width="529"/>
  <unicode hex="00AC"/>
  <outline>
    <contour>
      <point x="85" y="275" type="curve"/>
      <point x="456" y="275" type="line"/>
      <point x="456" y="350"/>
      <point x="456" y="275"/>
      <point x="456" y="350" type="curve"/>
      <point x="85" y="350" type="line"/>
      <point x="85" y="275"/>
      <point x="85" y="350"/>
    </contour>
    <contour>
      <point x="456" y="145" type="curve"/>
      <point x="456" y="350" type="line"/>
      <point x="369" y="350"/>
      <point x="455" y="350"/>
      <point x="369" y="350" type="curve"/>
      <point x="369" y="145" type="line"/>
      <point x="455" y="145"/>
      <point x="369" y="145"/>
    </contour>
  </outline>
</glyph>
<glyph name="registered" format="1">
  <advance width="581"/>
  <unicode hex="00AE"/>
  <outline>
    <contour>
      <point x="116" y="321" type="curve"/>
      <point x="116" y="467"/>
      <point x="164" y="593"/>
      <point x="293" y="593" type="curve"/>
      <point x="421" y="593"/>
      <point x="466" y="466"/>
      <point x="466" y="319" type="curve"/>
      <point x="466" y="175"/>
      <point x="423" y="51"/>
      <point x="298" y="51" type="curve"/>
      <point x="169" y="51"/>
      <point x="116" y="174"/>
      <point x="116" y="321" type="curve"/>
      <point x="87" y="321"/>
      <point x="86" y="321"/>
      <point x="56" y="321" type="curve"/>
      <point x="56" y="143"/>
      <point x="132" y="0"/>
      <point x="295" y="0" type="curve"/>
      <point x="456" y="0"/>
      <point x="525" y="144"/>
      <point x="525" y="322" type="curve"/>
      <point x="525" y="500"/>
      <point x="454" y="644"/>
      <point x="293" y="644" type="curve"/>
      <point x="130" y="644"/>
      <point x="56" y="500"/>
      <point x="56" y="321" type="curve"/>
      <point x="86" y="321"/>
      <point x="87" y="321"/>
    </contour>
    <contour>
      <point x="349" y="145" type="curve"/>
      <point x="372" y="145"/>
      <point x="381" y="145"/>
      <point x="405" y="145" type="curve"/>
      <point x="405" y="201"/>
      <point x="405" y="145"/>
      <point x="405" y="201" type="curve"/>
      <point x="398" y="201"/>
      <point x="393" y="201"/>
      <point x="386" y="201" type="curve"/>
      <point x="358" y="214"/>
      <point x="350" y="216"/>
    </contour>
    <contour>
      <point x="280" y="501" type="curve"/>
      <point x="248" y="501"/>
      <point x="217" y="501"/>
      <point x="186" y="501" type="curve"/>
      <point x="186" y="443"/>
      <point x="186" y="501"/>
      <point x="186" y="443" type="curve"/>
      <point x="193" y="443"/>
      <point x="202" y="443"/>
      <point x="208" y="443" type="curve"/>
      <point x="280" y="501"/>
      <point x="208" y="443"/>
    </contour>
    <contour>
      <point x="280" y="201" type="curve"/>
      <point x="248" y="201"/>
      <point x="217" y="201"/>
      <point x="186" y="201" type="curve"/>
      <point x="186" y="145"/>
      <point x="186" y="201"/>
      <point x="186" y="145" type="curve"/>
      <point x="193" y="145"/>
      <point x="202" y="145"/>
      <point x="208" y="145" type="curve"/>
      <point x="280" y="201"/>
      <point x="208" y="145"/>
    </contour>
    <contour>
      <point x="208" y="145" type="curve"/>
      <point x="237" y="145"/>
      <point x="266" y="145"/>
      <point x="295" y="145" type="curve"/>
      <point x="295" y="201"/>
      <point x="295" y="145"/>
      <point x="295" y="201" type="curve"/>
      <point x="290" y="201"/>
      <point x="284" y="201"/>
      <point x="280" y="201" type="curve"/>
      <point x="208" y="145"/>
      <point x="280" y="201"/>
    </contour>
    <contour>
      <point x="277" y="316" type="curve"/>
      <point x="282" y="295"/>
      <point x="344" y="165"/>
      <point x="349" y="145" type="curve"/>
      <point x="390" y="166"/>
      <point x="381" y="164"/>
      <point x="386" y="201" type="curve"/>
      <point x="340" y="312" type="line"/>
      <point x="255" y="311"/>
      <point x="363" y="316"/>
    </contour>
    <contour>
      <point x="272" y="201" type="curve"/>
      <point x="272" y="300"/>
      <point x="272" y="401"/>
      <point x="272" y="501" type="curve"/>
      <point x="201" y="443"/>
      <point x="280" y="501"/>
      <point x="208" y="443" type="curve"/>
      <point x="208" y="343"/>
      <point x="208" y="244"/>
      <point x="208" y="145" type="curve"/>
      <point x="280" y="201"/>
      <point x="201" y="145"/>
    </contour>
    <contour>
      <point x="245" y="281" type="curve"/>
      <point x="257" y="281"/>
      <point x="270" y="281"/>
      <point x="281" y="281" type="curve"/>
      <point x="349" y="281"/>
      <point x="386" y="321"/>
      <point x="386" y="392" type="curve"/>
      <point x="386" y="455"/>
      <point x="354" y="501"/>
      <point x="295" y="501" type="curve"/>
      <point x="290" y="501"/>
      <point x="285" y="501"/>
      <point x="280" y="501" type="curve"/>
      <point x="208" y="443"/>
      <point x="280" y="501"/>
      <point x="208" y="443" type="curve"/>
      <point x="233" y="443"/>
      <point x="258" y="443"/>
      <point x="283" y="443" type="curve"/>
      <point x="310" y="443"/>
      <point x="324" y="420"/>
      <point x="324" y="389" type="curve"/>
      <point x="324" y="361"/>
      <point x="315" y="338"/>
      <point x="292" y="338" type="curve"/>
      <point x="276" y="338"/>
      <point x="260" y="338"/>
      <point x="245" y="338" type="curve"/>
      <point x="245" y="281"/>
      <point x="245" y="338"/>
    </contour>
  </outline>
</glyph>
<glyph name="macron" format="1">
  <advance width="239"/>
  <unicode hex="00AF"/>
  <outline>
    <contour>
      <point x="99" y="617" type="move" name="_top"/>
    </contour>
    <contour>
      <point x="170" y="685" type="curve"/>
      <point x="123" y="685"/>
      <point x="74" y="685"/>
      <point x="27" y="685" type="curve"/>
      <point x="27" y="617"/>
      <point x="27" y="685"/>
      <point x="27" y="617" type="curve"/>
      <point x="74" y="617"/>
      <point x="123" y="617"/>
      <point x="170" y="617" type="curve"/>
      <point x="170" y="685"/>
      <point x="170" y="617"/>
    </contour>
  </outline>
</glyph>
<glyph name="plusminus" format="1">
  <advance width="605"/>
  <unicode hex="00B1"/>
  <outline>
    <contour>
      <point x="61" y="41" type="line"/>
      <point x="544" y="41" type="line"/>
      <point x="544" y="117" type="line"/>
      <point x="61" y="117" type="line"/>
    </contour>
    <contour>
      <point x="61" y="275" type="curve"/>
      <point x="544" y="275" type="line"/>
      <point x="544" y="350"/>
      <point x="544" y="275"/>
      <point x="544" y="350" type="curve"/>
      <point x="61" y="350" type="line"/>
      <point x="61" y="275"/>
      <point x="61" y="350"/>
    </contour>
    <contour>
      <point x="344" y="42" type="curve"/>
      <point x="344" y="582" type="line"/>
      <point x="257" y="582"/>
      <point x="349" y="582"/>
      <point x="263" y="582" type="curve"/>
      <point x="263" y="42" type="line"/>
      <point x="349" y="42"/>
      <point x="257" y="42"/>
    </contour>
  </outline>
</glyph>
<glyph name="twosuperior" format="1">
  <advance width="368"/>
  <unicode hex="00B2"/>
  <outline>
    <contour>
      <point x="199" y="777" type="move" name="_top"/>
    </contour>
    <contour>
      <point x="176" y="354" type="move" name="_bottom"/>
    </contour>
    <contour>
      <point x="304" y="354" type="curve"/>
      <point x="304" y="396"/>
      <point x="304" y="421"/>
      <point x="304" y="464" type="curve"/>
      <point x="239" y="464"/>
      <point x="316" y="464"/>
      <point x="251" y="464" type="curve"/>
      <point x="251" y="441"/>
      <point x="251" y="433"/>
      <point x="251" y="409" type="curve"/>
      <point x="315" y="353"/>
      <point x="240" y="410"/>
    </contour>
    <contour>
      <point x="66" y="354" type="curve"/>
      <point x="139" y="354"/>
      <point x="233" y="354"/>
      <point x="304" y="354" type="curve"/>
      <point x="240" y="410"/>
      <point x="315" y="353"/>
      <point x="251" y="409" type="curve"/>
      <point x="194" y="409"/>
      <point x="124" y="409"/>
      <point x="66" y="409" type="curve"/>
      <point x="66" y="354"/>
      <point x="66" y="409"/>
    </contour>
    <contour>
      <point x="137" y="658" type="curve"/>
      <point x="144" y="690"/>
      <point x="153" y="721"/>
      <point x="186" y="721" type="curve"/>
      <point x="219" y="721"/>
      <point x="229" y="686"/>
      <point x="229" y="645" type="curve"/>
      <point x="229" y="605"/>
      <point x="211" y="580"/>
      <point x="186" y="548" type="curve"/>
      <point x="146" y="502"/>
      <point x="106" y="455"/>
      <point x="66" y="409" type="curve"/>
      <point x="72" y="354"/>
      <point x="66" y="409"/>
      <point x="71" y="354" type="curve"/>
      <point x="120" y="403"/>
      <point x="187" y="453"/>
      <point x="232" y="505" type="curve"/>
      <point x="268" y="551"/>
      <point x="294" y="588"/>
      <point x="294" y="649" type="curve"/>
      <point x="294" y="722"/>
      <point x="256" y="776"/>
      <point x="188" y="776" type="curve"/>
      <point x="133" y="776"/>
      <point x="99" y="746"/>
      <point x="86" y="674" type="curve"/>
      <point x="137" y="658"/>
      <point x="86" y="674"/>
    </contour>
  </outline>
</glyph>
<glyph name="threesuperior" format="1">
  <advance width="335"/>
  <unicode hex="00B3"/>
  <outline>
    <contour>
      <point x="172" y="773" type="move" name="_top"/>
    </contour>
    <contour>
      <point x="165" y="349" type="move" name="_bottom"/>
    </contour>
    <contour>
      <point x="108" y="684" type="curve"/>
      <point x="118" y="700"/>
      <point x="129" y="718"/>
      <point x="151" y="718" type="curve"/>
      <point x="181" y="718"/>
      <point x="195" y="690"/>
      <point x="195" y="654" type="curve"/>
      <point x="195" y="616"/>
      <point x="164" y="592"/>
      <point x="124" y="588" type="curve"/>
      <point x="124" y="540"/>
      <point x="124" y="588"/>
      <point x="124" y="540" type="curve"/>
      <point x="204" y="544"/>
      <point x="263" y="585"/>
      <point x="263" y="659" type="curve"/>
      <point x="263" y="728"/>
      <point x="224" y="774"/>
      <point x="157" y="774" type="curve"/>
      <point x="117" y="774"/>
      <point x="83" y="751"/>
      <point x="64" y="718" type="curve"/>
      <point x="108" y="684"/>
      <point x="64" y="718"/>
    </contour>
    <contour>
      <point x="62" y="382" type="curve"/>
      <point x="87" y="361"/>
      <point x="113" y="348"/>
      <point x="145" y="348" type="curve"/>
      <point x="224" y="346"/>
      <point x="273" y="393"/>
      <point x="273" y="470" type="curve"/>
      <point x="273" y="545"/>
      <point x="207" y="576"/>
      <point x="124" y="580" type="curve"/>
      <point x="124" y="539"/>
      <point x="124" y="580"/>
      <point x="124" y="539" type="curve"/>
      <point x="172" y="535"/>
      <point x="204" y="508"/>
      <point x="204" y="467" type="curve"/>
      <point x="204" y="430"/>
      <point x="186" y="402"/>
      <point x="151" y="403" type="curve"/>
      <point x="131" y="403"/>
      <point x="112" y="410"/>
      <point x="98" y="424" type="curve"/>
      <point x="62" y="382"/>
      <point x="98" y="424"/>
    </contour>
  </outline>
</glyph>
<glyph name="acute" format="1">
  <advance width="306"/>
  <unicode hex="00B4"/>
  <outline>
    <contour>
      <point x="71" y="592" type="move" name="_top"/>
    </contour>
    <contour>
      <point x="109" y="591" type="line"/>
      <point x="195" y="757" type="line"/>
      <point x="91" y="757" type="line"/>
      <point x="29" y="591" type="line"/>
    </contour>
  </outline>
</glyph>
<glyph name="paragraph" format="1">
  <advance width="590"/>
  <unicode hex="00B6"/>
  <outline>
    <contour>
      <point x="312" y="654" type="curve"/>
      <point x="437" y="654"/>
      <point x="312" y="654"/>
      <point x="437" y="654" type="curve"/>
      <point x="437" y="722"/>
      <point x="437" y="654"/>
      <point x="437" y="722" type="curve"/>
      <point x="396" y="722"/>
      <point x="354" y="722"/>
      <point x="312" y="722" type="curve"/>
      <point x="312" y="654"/>
      <point x="312" y="722"/>
    </contour>
    <contour>
      <point x="312" y="0" type="curve"/>
      <point x="354" y="0"/>
      <point x="396" y="0"/>
      <point x="437" y="0" type="curve"/>
      <point x="437" y="68"/>
      <point x="437" y="0"/>
      <point x="437" y="68" type="curve"/>
      <point x="312" y="68"/>
      <point x="437" y="68"/>
      <point x="312" y="68" type="curve"/>
      <point x="312" y="0"/>
      <point x="312" y="68"/>
    </contour>
    <contour>
      <point x="312" y="68" type="curve"/>
      <point x="202" y="68"/>
      <point x="312" y="68"/>
      <point x="202" y="68" type="curve"/>
      <point x="202" y="0"/>
      <point x="202" y="68"/>
      <point x="202" y="0" type="curve"/>
      <point x="312" y="0"/>
      <point x="275" y="0"/>
      <point x="312" y="0" type="curve"/>
      <point x="312" y="68"/>
      <point x="312" y="0"/>
    </contour>
    <contour>
      <point x="297" y="369" type="curve"/>
      <point x="269" y="346"/>
      <point x="246" y="332"/>
      <point x="210" y="332" type="curve"/>
      <point x="143" y="332"/>
      <point x="125" y="403"/>
      <point x="125" y="483" type="curve"/>
      <point x="125" y="574"/>
      <point x="156" y="654"/>
      <point x="235" y="654" type="curve"/>
      <point x="261" y="654"/>
      <point x="285" y="654"/>
      <point x="310" y="654" type="curve"/>
      <point x="310" y="722"/>
      <point x="310" y="654"/>
      <point x="310" y="722" type="curve"/>
      <point x="282" y="722"/>
      <point x="253" y="722"/>
      <point x="224" y="722" type="curve"/>
      <point x="101" y="722"/>
      <point x="39" y="618"/>
      <point x="39" y="486" type="curve"/>
      <point x="39" y="357"/>
      <point x="99" y="268"/>
      <point x="216" y="266" type="curve"/>
      <point x="259" y="266"/>
      <point x="292" y="287"/>
      <point x="324" y="312" type="curve"/>
      <point x="297" y="368"/>
      <point x="324" y="314"/>
    </contour>
    <contour>
      <point x="356" y="0" type="curve"/>
      <point x="356" y="241"/>
      <point x="356" y="481"/>
      <point x="356" y="722" type="curve"/>
      <point x="270" y="722"/>
      <point x="356" y="722"/>
      <point x="270" y="722" type="curve"/>
      <point x="270" y="481"/>
      <point x="270" y="241"/>
      <point x="270" y="0" type="curve"/>
      <point x="356" y="0"/>
      <point x="270" y="0"/>
    </contour>
    <contour>
      <point x="514" y="0" type="curve"/>
      <point x="514" y="241"/>
      <point x="514" y="481"/>
      <point x="514" y="722" type="curve"/>
      <point x="428" y="722"/>
      <point x="514" y="722"/>
      <point x="428" y="722" type="curve"/>
      <point x="428" y="481"/>
      <point x="428" y="241"/>
      <point x="428" y="0" type="curve"/>
      <point x="514" y="0"/>
      <point x="428" y="0"/>
    </contour>
  </outline>
</glyph>
<glyph name="periodcentered" format="1">
  <advance width="223"/>
  <unicode hex="00B7"/>
  <outline>
    <contour>
      <point x="157" y="440" type="curve"/>
      <point x="157" y="470"/>
      <point x="138" y="486"/>
      <point x="111" y="486" type="curve"/>
      <point x="83" y="486"/>
      <point x="65" y="469"/>
      <point x="65" y="440" type="curve"/>
      <point x="159" y="440"/>
      <point x="64" y="440"/>
      <point x="157" y="440" type="curve"/>
      <point x="157" y="409"/>
      <point x="139" y="395"/>
      <point x="111" y="395" type="curve"/>
      <point x="83" y="395"/>
      <point x="65" y="410"/>
      <point x="65" y="440" type="curve"/>
      <point x="159" y="440"/>
      <point x="64" y="440"/>
    </contour>
  </outline>
</glyph>
<glyph name="onesuperior" format="1">
  <advance width="305"/>
  <unicode hex="00B9"/>
  <outline>
    <contour>
      <point x="164" y="765" type="move" name="_top"/>
    </contour>
    <contour>
      <point x="172" y="356" type="move" name="_bottom"/>
    </contour>
    <contour>
      <point x="137" y="354" type="curve"/>
      <point x="175" y="354"/>
      <point x="210" y="354"/>
      <point x="247" y="354" type="curve"/>
      <point x="247" y="409"/>
      <point x="247" y="355"/>
      <point x="247" y="410" type="curve"/>
      <point x="232" y="410"/>
      <point x="221" y="410"/>
      <point x="205" y="410" type="curve"/>
      <point x="137" y="355"/>
      <point x="205" y="409"/>
    </contour>
    <contour>
      <point x="205" y="410" type="curve"/>
      <point x="168" y="410"/>
      <point x="133" y="410"/>
      <point x="94" y="410" type="curve"/>
      <point x="94" y="355"/>
      <point x="94" y="409"/>
      <point x="94" y="354" type="curve"/>
      <point x="110" y="354"/>
      <point x="122" y="354"/>
      <point x="137" y="354" type="curve"/>
      <point x="205" y="409"/>
      <point x="137" y="355"/>
    </contour>
    <contour>
      <point x="97" y="630" type="line"/>
      <point x="204" y="762" type="line"/>
      <point x="137" y="766" type="line"/>
      <point x="55" y="670" type="line"/>
    </contour>
    <contour>
      <point x="205" y="410" type="curve"/>
      <point x="205" y="766" type="line"/>
      <point x="137" y="766" type="line"/>
      <point x="137" y="354" type="line"/>
      <point x="205" y="409"/>
      <point x="137" y="355"/>
    </contour>
  </outline>
</glyph>
<glyph name="ordmasculine" format="1">
  <advance width="336"/>
  <unicode hex="00BA"/>
  <outline>
    <contour>
      <point x="110" y="598" type="curve"/>
      <point x="110" y="659"/>
      <point x="116" y="715"/>
      <point x="167" y="715" type="curve"/>
      <point x="216" y="715"/>
      <point x="221" y="659"/>
      <point x="221" y="598" type="curve"/>
      <point x="221" y="531"/>
      <point x="217" y="472"/>
      <point x="172" y="472" type="curve"/>
      <point x="114" y="472"/>
      <point x="110" y="532"/>
      <point x="110" y="598" type="curve"/>
      <point x="106" y="598"/>
      <point x="59" y="598"/>
      <point x="56" y="598" type="curve"/>
      <point x="56" y="500"/>
      <point x="83" y="423"/>
      <point x="169" y="423" type="curve"/>
      <point x="251" y="423"/>
      <point x="280" y="499"/>
      <point x="280" y="598" type="curve"/>
      <point x="280" y="692"/>
      <point x="252" y="764"/>
      <point x="170" y="764" type="curve"/>
      <point x="84" y="764"/>
      <point x="56" y="692"/>
      <point x="56" y="598" type="curve"/>
      <point x="59" y="598"/>
      <point x="106" y="598"/>
    </contour>
  </outline>
</glyph>
<glyph name="guillemotright" format="1">
  <advance width="438"/>
  <unicode hex="00BB"/>
  <outline>
    <contour>
      <point x="229" y="448" type="curve"/>
      <point x="248" y="429"/>
      <point x="361" y="344"/>
      <point x="382" y="326" type="curve"/>
      <point x="382" y="250"/>
      <point x="382" y="314"/>
      <point x="382" y="238" type="curve"/>
      <point x="361" y="257"/>
      <point x="248" y="348"/>
      <point x="229" y="367" type="curve"/>
      <point x="229" y="442"/>
      <point x="229" y="373"/>
    </contour>
    <contour>
      <point x="228" y="198" type="curve"/>
      <point x="248" y="217"/>
      <point x="361" y="307"/>
      <point x="382" y="326" type="curve"/>
      <point x="382" y="250"/>
      <point x="382" y="314"/>
      <point x="382" y="238" type="curve"/>
      <point x="361" y="219"/>
      <point x="248" y="136"/>
      <point x="228" y="118" type="curve"/>
      <point x="228" y="192"/>
      <point x="228" y="124"/>
    </contour>
    <contour>
      <point x="78" y="448" type="curve"/>
      <point x="98" y="429"/>
      <point x="210" y="344"/>
      <point x="231" y="326" type="curve"/>
      <point x="231" y="250"/>
      <point x="231" y="314"/>
      <point x="231" y="238" type="curve"/>
      <point x="210" y="257"/>
      <point x="98" y="348"/>
      <point x="78" y="367" type="curve"/>
      <point x="78" y="442"/>
      <point x="78" y="373"/>
    </contour>
    <contour>
      <point x="78" y="198" type="curve"/>
      <point x="97" y="217"/>
      <point x="210" y="307"/>
      <point x="231" y="326" type="curve"/>
      <point x="231" y="250"/>
      <point x="231" y="314"/>
      <point x="231" y="238" type="curve"/>
      <point x="210" y="219"/>
      <point x="97" y="136"/>
      <point x="78" y="118" type="curve"/>
      <point x="78" y="192"/>
      <point x="78" y="124"/>
    </contour>
  </outline>
</glyph>
<glyph name="onehalf" format="1">
  <advance width="761"/>
  <unicode hex="00BD"/>
  <outline>
    <contour>
      <point x="283" y="-63" type="line"/>
      <point x="555" y="731" type="line"/>
      <point x="474" y="731" type="line"/>
      <point x="202" y="-63" type="line"/>
    </contour>
    <contour>
      <point x="118" y="321" type="curve"/>
      <point x="155" y="321"/>
      <point x="190" y="321"/>
      <point x="227" y="321" type="curve"/>
      <point x="227" y="376"/>
      <point x="227" y="321"/>
      <point x="227" y="377" type="curve"/>
      <point x="213" y="377"/>
      <point x="201" y="377"/>
      <point x="186" y="377" type="curve"/>
      <point x="118" y="321"/>
      <point x="186" y="376"/>
    </contour>
    <contour>
      <point x="186" y="377" type="curve"/>
      <point x="148" y="377"/>
      <point x="113" y="377"/>
      <point x="74" y="377" type="curve"/>
      <point x="74" y="321"/>
      <point x="74" y="376"/>
      <point x="74" y="321" type="curve"/>
      <point x="90" y="321"/>
      <point x="102" y="321"/>
      <point x="117" y="321" type="curve"/>
      <point x="186" y="376"/>
      <point x="117" y="321"/>
    </contour>
    <contour>
      <point x="77" y="596" type="line"/>
      <point x="184" y="728" type="line"/>
      <point x="117" y="732" type="line"/>
      <point x="35" y="636" type="line"/>
    </contour>
    <contour>
      <point x="186" y="377" type="curve"/>
      <point x="186" y="732" type="line"/>
      <point x="117" y="732" type="line"/>
      <point x="117" y="321" type="line"/>
      <point x="186" y="376"/>
      <point x="117" y="321"/>
    </contour>
    <contour>
      <point x="725" y="-58" type="curve"/>
      <point x="725" y="-17"/>
      <point x="725" y="9"/>
      <point x="725" y="52" type="curve"/>
      <point x="660" y="52"/>
      <point x="737" y="52"/>
      <point x="672" y="52" type="curve"/>
      <point x="672" y="28"/>
      <point x="672" y="21"/>
      <point x="672" y="-3" type="curve"/>
      <point x="736" y="-59"/>
      <point x="661" y="-2"/>
    </contour>
    <contour>
      <point x="487" y="-58" type="curve"/>
      <point x="560" y="-58"/>
      <point x="654" y="-58"/>
      <point x="725" y="-58" type="curve"/>
      <point x="661" y="-2"/>
      <point x="736" y="-59"/>
      <point x="672" y="-3" type="curve"/>
      <point x="615" y="-3"/>
      <point x="545" y="-3"/>
      <point x="487" y="-3" type="curve"/>
      <point x="487" y="-58"/>
      <point x="487" y="-3"/>
    </contour>
    <contour>
      <point x="558" y="246" type="curve"/>
      <point x="565" y="278"/>
      <point x="575" y="309"/>
      <point x="607" y="309" type="curve"/>
      <point x="640" y="309"/>
      <point x="650" y="274"/>
      <point x="650" y="233" type="curve"/>
      <point x="650" y="193"/>
      <point x="632" y="169"/>
      <point x="607" y="137" type="curve"/>
      <point x="568" y="90"/>
      <point x="527" y="43"/>
      <point x="487" y="-3" type="curve"/>
      <point x="493" y="-58"/>
      <point x="487" y="-3"/>
      <point x="492" y="-58" type="curve"/>
      <point x="541" y="-9"/>
      <point x="608" y="42"/>
      <point x="653" y="93" type="curve"/>
      <point x="689" y="140"/>
      <point x="715" y="177"/>
      <point x="715" y="236" type="curve"/>
      <point x="715" y="310"/>
      <point x="678" y="363"/>
      <point x="609" y="363" type="curve"/>
      <point x="554" y="363"/>
      <point x="521" y="334"/>
      <point x="507" y="262" type="curve"/>
      <point x="558" y="246"/>
      <point x="507" y="262"/>
    </contour>
  </outline>
</glyph>
<glyph name="threequarters" format="1">
  <advance width="736"/>
  <unicode hex="00BE"/>
  <outline>
    <contour>
      <point x="288" y="-63" type="line"/>
      <point x="560" y="731" type="line"/>
      <point x="479" y="731" type="line"/>
      <point x="207" y="-63" type="line"/>
    </contour>
    <contour>
      <point x="87" y="641" type="curve"/>
      <point x="96" y="657"/>
      <point x="108" y="676"/>
      <point x="129" y="676" type="curve"/>
      <point x="160" y="676"/>
      <point x="173" y="648"/>
      <point x="173" y="612" type="curve"/>
      <point x="173" y="574"/>
      <point x="143" y="549"/>
      <point x="103" y="545" type="curve"/>
      <point x="103" y="498"/>
      <point x="103" y="545"/>
      <point x="103" y="498" type="curve"/>
      <point x="183" y="501"/>
      <point x="242" y="543"/>
      <point x="242" y="617" type="curve"/>
      <point x="242" y="686"/>
      <point x="203" y="731"/>
      <point x="136" y="731" type="curve"/>
      <point x="97" y="731"/>
      <point x="62" y="708"/>
      <point x="42" y="675" type="curve"/>
      <point x="87" y="641"/>
      <point x="42" y="675"/>
    </contour>
    <contour>
      <point x="42" y="340" type="curve"/>
      <point x="65" y="318"/>
      <point x="92" y="305"/>
      <point x="123" y="305" type="curve"/>
      <point x="203" y="303"/>
      <point x="252" y="350"/>
      <point x="252" y="428" type="curve"/>
      <point x="252" y="503"/>
      <point x="186" y="533"/>
      <point x="103" y="537" type="curve"/>
      <point x="103" y="496"/>
      <point x="103" y="537"/>
      <point x="103" y="496" type="curve"/>
      <point x="150" y="492"/>
      <point x="183" y="465"/>
      <point x="183" y="424" type="curve"/>
      <point x="182" y="388"/>
      <point x="165" y="358"/>
      <point x="130" y="360" type="curve"/>
      <point x="110" y="360"/>
      <point x="91" y="368"/>
      <point x="77" y="381" type="curve"/>
      <point x="42" y="340"/>
      <point x="77" y="381"/>
    </contour>
    <contour>
      <point x="708" y="106" type="line"/>
      <point x="437" y="106" type="line"/>
      <point x="437" y="52" type="line"/>
      <point x="708" y="52" type="line"/>
    </contour>
    <contour>
      <point x="468" y="54" type="line"/>
      <point x="628" y="358" type="line"/>
      <point x="578" y="371" type="line"/>
      <point x="437" y="106" type="line"/>
    </contour>
    <contour>
      <point x="646" y="-56" type="line"/>
      <point x="646" y="371" type="line"/>
      <point x="578" y="371" type="line"/>
      <point x="578" y="-56" type="line"/>
    </contour>
    <contour>
      <point x="612" y="-8" type="line"/>
      <point x="532" y="-8" type="line"/>
      <point x="532" y="-57" type="line"/>
      <point x="612" y="-57" type="line"/>
    </contour>
    <contour>
      <point x="612" y="-57" type="line"/>
      <point x="693" y="-57" type="line"/>
      <point x="693" y="-8" type="line"/>
      <point x="612" y="-8" type="line"/>
    </contour>
  </outline>
</glyph>
<glyph name="questiondown" format="1">
  <advance width="414"/>
  <unicode hex="00BF"/>
  <outline>
    <contour>
      <point x="255" y="373" type="curve"/>
      <point x="255" y="410"/>
      <point x="255" y="473"/>
      <point x="255" y="510" type="curve"/>
      <point x="177" y="510"/>
      <point x="255" y="510"/>
      <point x="177" y="510" type="curve"/>
      <point x="177" y="473"/>
      <point x="177" y="410"/>
      <point x="177" y="373" type="curve"/>
      <point x="255" y="373"/>
      <point x="177" y="373"/>
    </contour>
    <contour>
      <point x="321" y="131" type="line"/>
      <point x="298" y="96"/>
      <point x="274" y="73"/>
      <point x="231" y="73" type="curve"/>
      <point x="161" y="73"/>
      <point x="134" y="137"/>
      <point x="134" y="213" type="curve"/>
      <point x="134" y="301"/>
      <point x="167" y="373"/>
      <point x="245" y="373" type="curve"/>
      <point x="245" y="405"/>
      <point x="246" y="407"/>
      <point x="246" y="440" type="curve"/>
      <point x="119" y="440"/>
      <point x="52" y="344"/>
      <point x="52" y="213" type="curve"/>
      <point x="52" y="89"/>
      <point x="114" y="0"/>
      <point x="226" y="0" type="curve"/>
      <point x="295" y="0"/>
      <point x="340" y="29"/>
      <point x="369" y="76" type="curve"/>
    </contour>
    <contour>
      <point x="170" y="689" type="curve"/>
      <point x="170" y="659"/>
      <point x="189" y="643"/>
      <point x="217" y="643" type="curve"/>
      <point x="244" y="643"/>
      <point x="262" y="660"/>
      <point x="262" y="689" type="curve"/>
      <point x="170" y="689"/>
      <point x="262" y="689"/>
      <point x="170" y="689" type="curve"/>
      <point x="170" y="720"/>
      <point x="189" y="735"/>
      <point x="216" y="735" type="curve"/>
      <point x="245" y="735"/>
      <point x="262" y="719"/>
      <point x="262" y="689" type="curve"/>
      <point x="170" y="689"/>
      <point x="262" y="689"/>
    </contour>
  </outline>
</glyph>
<glyph name="Atilde" format="1">
  <advance width="582"/>
  <unicode hex="00C3"/>
  <outline>
    <contour>
      <point x="104" y="68" type="curve"/>
      <point x="-29" y="68"/>
      <point x="121" y="68"/>
      <point x="-12" y="68" type="curve"/>
      <point x="-12" y="0"/>
      <point x="-12" y="68"/>
      <point x="-12" y="0" type="curve"/>
      <point x="32" y="0"/>
      <point x="60" y="0"/>
      <point x="104" y="0" type="curve"/>
      <point x="104" y="68"/>
      <point x="104" y="0"/>
    </contour>
    <contour>
      <point x="104" y="0" type="curve"/>
      <point x="155" y="0"/>
      <point x="94" y="0"/>
      <point x="243" y="0" type="curve"/>
      <point x="243" y="68"/>
      <point x="243" y="0"/>
      <point x="243" y="68" type="curve"/>
      <point x="94" y="68"/>
      <point x="254" y="68"/>
      <point x="104" y="68" type="curve"/>
      <point x="104" y="0"/>
      <point x="104" y="68"/>
    </contour>
    <contour>
      <point x="453" y="0" type="curve"/>
      <point x="497" y="0"/>
      <point x="525" y="0"/>
      <point x="569" y="0" type="curve"/>
      <point x="569" y="68"/>
      <point x="569" y="0"/>
      <point x="569" y="68" type="curve"/>
      <point x="436" y="68"/>
      <point x="586" y="68"/>
      <point x="453" y="68" type="curve"/>
      <point x="453" y="0"/>
      <point x="453" y="68"/>
    </contour>
    <contour>
      <point x="453" y="68" type="curve"/>
      <point x="302" y="68"/>
      <point x="464" y="68"/>
      <point x="313" y="68" type="curve"/>
      <point x="313" y="0"/>
      <point x="313" y="68"/>
      <point x="313" y="0" type="curve"/>
      <point x="363" y="0"/>
      <point x="402" y="0"/>
      <point x="453" y="0" type="curve"/>
      <point x="453" y="68"/>
      <point x="453" y="0"/>
    </contour>
    <contour>
      <point x="384" y="284" type="curve"/>
      <point x="318" y="284"/>
      <point x="253" y="284"/>
      <point x="186" y="284" type="curve"/>
      <point x="151" y="211"/>
      <point x="186" y="284"/>
      <point x="151" y="211" type="curve"/>
      <point x="238" y="211"/>
      <point x="325" y="211"/>
      <point x="411" y="211" type="curve"/>
      <point x="384" y="284"/>
      <point x="411" y="211"/>
    </contour>
    <contour>
      <point x="505" y="0" type="curve"/>
      <point x="447" y="241"/>
      <point x="386" y="481"/>
      <point x="328" y="722" type="curve"/>
      <point x="250" y="722"/>
      <point x="328" y="722"/>
      <point x="250" y="722" type="curve"/>
      <point x="306" y="482"/>
      <point x="358" y="240"/>
      <point x="416" y="0" type="curve"/>
      <point x="505" y="0"/>
      <point x="416" y="0"/>
    </contour>
    <contour>
      <point x="144" y="0" type="curve"/>
      <point x="207" y="240"/>
      <point x="263" y="482"/>
      <point x="327" y="722" type="curve"/>
      <point x="249" y="722"/>
      <point x="327" y="722"/>
      <point x="249" y="722" type="curve"/>
      <point x="185" y="480"/>
      <point x="114" y="242"/>
      <point x="50" y="0" type="curve"/>
      <point x="144" y="0"/>
      <point x="50" y="0"/>
    </contour>
    <contour>
      <point x="377" y="962" type="curve"/>
      <point x="364" y="921"/>
      <point x="357" y="895"/>
      <point x="337" y="895" type="curve"/>
      <point x="312" y="895"/>
      <point x="302" y="908"/>
      <point x="287" y="927" type="curve"/>
      <point x="268" y="951"/>
      <point x="257" y="966"/>
      <point x="228" y="966" type="curve"/>
      <point x="168" y="966"/>
      <point x="149" y="901"/>
      <point x="135" y="841" type="curve"/>
      <point x="199" y="805"/>
      <point x="135" y="841"/>
      <point x="199" y="805" type="curve"/>
      <point x="213" y="850"/>
      <point x="221" y="875"/>
      <point x="248" y="875" type="curve"/>
      <point x="270" y="875"/>
      <point x="277" y="861"/>
      <point x="288" y="845" type="curve"/>
      <point x="310" y="819"/>
      <point x="325" y="801"/>
      <point x="357" y="801" type="curve"/>
      <point x="418" y="801"/>
      <point x="428" y="865"/>
      <point x="446" y="929" type="curve"/>
      <point x="377" y="962"/>
      <point x="446" y="928"/>
    </contour>
  </outline>
</glyph>
<glyph name="Adieresis" format="1">
  <advance width="582"/>
  <unicode hex="00C4"/>
  <outline>
    <contour>
      <point x="104" y="68" type="curve"/>
      <point x="-29" y="68"/>
      <point x="121" y="68"/>
      <point x="-12" y="68" type="curve"/>
      <point x="-12" y="0"/>
      <point x="-12" y="68"/>
      <point x="-12" y="0" type="curve"/>
      <point x="32" y="0"/>
      <point x="60" y="0"/>
      <point x="104" y="0" type="curve"/>
      <point x="104" y="68"/>
      <point x="104" y="0"/>
    </contour>
    <contour>
      <point x="104" y="0" type="curve"/>
      <point x="155" y="0"/>
      <point x="94" y="0"/>
      <point x="243" y="0" type="curve"/>
      <point x="243" y="68"/>
      <point x="243" y="0"/>
      <point x="243" y="68" type="curve"/>
      <point x="94" y="68"/>
      <point x="254" y="68"/>
      <point x="104" y="68" type="curve"/>
      <point x="104" y="0"/>
      <point x="104" y="68"/>
    </contour>
    <contour>
      <point x="453" y="0" type="curve"/>
      <point x="497" y="0"/>
      <point x="525" y="0"/>
      <point x="569" y="0" type="curve"/>
      <point x="569" y="68"/>
      <point x="569" y="0"/>
      <point x="569" y="68" type="curve"/>
      <point x="436" y="68"/>
      <point x="586" y="68"/>
      <point x="453" y="68" type="curve"/>
      <point x="453" y="0"/>
      <point x="453" y="68"/>
    </contour>
    <contour>
      <point x="453" y="68" type="curve"/>
      <point x="302" y="68"/>
      <point x="464" y="68"/>
      <point x="313" y="68" type="curve"/>
      <point x="313" y="0"/>
      <point x="313" y="68"/>
      <point x="313" y="0" type="curve"/>
      <point x="363" y="0"/>
      <point x="402" y="0"/>
      <point x="453" y="0" type="curve"/>
      <point x="453" y="68"/>
      <point x="453" y="0"/>
    </contour>
    <contour>
      <point x="384" y="284" type="curve"/>
      <point x="318" y="284"/>
      <point x="253" y="284"/>
      <point x="186" y="284" type="curve"/>
      <point x="151" y="211"/>
      <point x="186" y="284"/>
      <point x="151" y="211" type="curve"/>
      <point x="238" y="211"/>
      <point x="325" y="211"/>
      <point x="411" y="211" type="curve"/>
      <point x="384" y="284"/>
      <point x="411" y="211"/>
    </contour>
    <contour>
      <point x="505" y="0" type="curve"/>
      <point x="447" y="241"/>
      <point x="386" y="481"/>
      <point x="328" y="722" type="curve"/>
      <point x="250" y="722"/>
      <point x="328" y="722"/>
      <point x="250" y="722" type="curve"/>
      <point x="306" y="482"/>
      <point x="358" y="240"/>
      <point x="416" y="0" type="curve"/>
      <point x="505" y="0"/>
      <point x="416" y="0"/>
    </contour>
    <contour>
      <point x="144" y="0" type="curve"/>
      <point x="207" y="240"/>
      <point x="263" y="482"/>
      <point x="327" y="722" type="curve"/>
      <point x="249" y="722"/>
      <point x="327" y="722"/>
      <point x="249" y="722" type="curve"/>
      <point x="185" y="480"/>
      <point x="114" y="242"/>
      <point x="50" y="0" type="curve"/>
      <point x="144" y="0"/>
      <point x="50" y="0"/>
    </contour>
    <contour>
      <point x="264" y="841" type="curve"/>
      <point x="264" y="871"/>
      <point x="244" y="887"/>
      <point x="217" y="887" type="curve"/>
      <point x="190" y="887"/>
      <point x="172" y="870"/>
      <point x="172" y="841" type="curve"/>
      <point x="266" y="841"/>
      <point x="171" y="841"/>
      <point x="264" y="841" type="curve"/>
      <point x="264" y="811"/>
      <point x="245" y="796"/>
      <point x="217" y="796" type="curve"/>
      <point x="189" y="796"/>
      <point x="172" y="811"/>
      <point x="172" y="841" type="curve"/>
      <point x="266" y="841"/>
      <point x="171" y="841"/>
    </contour>
    <contour>
      <point x="401" y="841" type="curve"/>
      <point x="401" y="871"/>
      <point x="381" y="887"/>
      <point x="354" y="887" type="curve"/>
      <point x="327" y="887"/>
      <point x="310" y="870"/>
      <point x="310" y="841" type="curve"/>
      <point x="403" y="841"/>
      <point x="308" y="841"/>
      <point x="401" y="841" type="curve"/>
      <point x="401" y="811"/>
      <point x="382" y="796"/>
      <point x="354" y="796" type="curve"/>
      <point x="326" y="796"/>
      <point x="310" y="811"/>
      <point x="310" y="841" type="curve"/>
      <point x="403" y="841"/>
      <point x="308" y="841"/>
    </contour>
  </outline>
</glyph>
<glyph name="Aring" format="1">
  <advance width="582"/>
  <unicode hex="00C5"/>
  <outline>
    <contour>
      <point x="104" y="68" type="curve"/>
      <point x="-29" y="68"/>
      <point x="121" y="68"/>
      <point x="-12" y="68" type="curve"/>
      <point x="-12" y="0"/>
      <point x="-12" y="68"/>
      <point x="-12" y="0" type="curve"/>
      <point x="32" y="0"/>
      <point x="60" y="0"/>
      <point x="104" y="0" type="curve"/>
      <point x="104" y="68"/>
      <point x="104" y="0"/>
    </contour>
    <contour>
      <point x="104" y="0" type="curve"/>
      <point x="155" y="0"/>
      <point x="94" y="0"/>
      <point x="243" y="0" type="curve"/>
      <point x="243" y="68"/>
      <point x="243" y="0"/>
      <point x="243" y="68" type="curve"/>
      <point x="94" y="68"/>
      <point x="254" y="68"/>
      <point x="104" y="68" type="curve"/>
      <point x="104" y="0"/>
      <point x="104" y="68"/>
    </contour>
    <contour>
      <point x="453" y="0" type="curve"/>
      <point x="497" y="0"/>
      <point x="525" y="0"/>
      <point x="569" y="0" type="curve"/>
      <point x="569" y="68"/>
      <point x="569" y="0"/>
      <point x="569" y="68" type="curve"/>
      <point x="436" y="68"/>
      <point x="586" y="68"/>
      <point x="453" y="68" type="curve"/>
      <point x="453" y="0"/>
      <point x="453" y="68"/>
    </contour>
    <contour>
      <point x="453" y="68" type="curve"/>
      <point x="302" y="68"/>
      <point x="464" y="68"/>
      <point x="313" y="68" type="curve"/>
      <point x="313" y="0"/>
      <point x="313" y="68"/>
      <point x="313" y="0" type="curve"/>
      <point x="363" y="0"/>
      <point x="402" y="0"/>
      <point x="453" y="0" type="curve"/>
      <point x="453" y="68"/>
      <point x="453" y="0"/>
    </contour>
    <contour>
      <point x="384" y="284" type="curve"/>
      <point x="318" y="284"/>
      <point x="253" y="284"/>
      <point x="186" y="284" type="curve"/>
      <point x="151" y="211"/>
      <point x="186" y="284"/>
      <point x="151" y="211" type="curve"/>
      <point x="238" y="211"/>
      <point x="325" y="211"/>
      <point x="411" y="211" type="curve"/>
      <point x="384" y="284"/>
      <point x="411" y="211"/>
    </contour>
    <contour>
      <point x="505" y="0" type="curve"/>
      <point x="447" y="241"/>
      <point x="386" y="481"/>
      <point x="328" y="722" type="curve"/>
      <point x="250" y="722"/>
      <point x="328" y="722"/>
      <point x="250" y="722" type="curve"/>
      <point x="306" y="482"/>
      <point x="358" y="240"/>
      <point x="416" y="0" type="curve"/>
      <point x="505" y="0"/>
      <point x="416" y="0"/>
    </contour>
    <contour>
      <point x="144" y="0" type="curve"/>
      <point x="207" y="240"/>
      <point x="263" y="482"/>
      <point x="327" y="722" type="curve"/>
      <point x="249" y="722"/>
      <point x="327" y="722"/>
      <point x="249" y="722" type="curve"/>
      <point x="185" y="480"/>
      <point x="114" y="242"/>
      <point x="50" y="0" type="curve"/>
      <point x="144" y="0"/>
      <point x="50" y="0"/>
    </contour>
    <contour>
      <point x="179" y="933" type="curve"/>
      <point x="179" y="856"/>
      <point x="215" y="800"/>
      <point x="286" y="800" type="curve"/>
      <point x="357" y="800"/>
      <point x="393" y="855"/>
      <point x="393" y="933" type="curve"/>
      <point x="393" y="1009"/>
      <point x="356" y="1066"/>
      <point x="284" y="1066" type="curve"/>
      <point x="213" y="1066"/>
      <point x="179" y="1008"/>
      <point x="179" y="933" type="curve"/>
      <point x="257" y="933"/>
      <point x="172" y="933"/>
      <point x="250" y="933" type="curve"/>
      <point x="250" y="966"/>
      <point x="250" y="1001"/>
      <point x="284" y="1001" type="curve"/>
      <point x="316" y="1001"/>
      <point x="319" y="967"/>
      <point x="319" y="933" type="curve"/>
      <point x="319" y="899"/>
      <point x="318" y="864"/>
      <point x="286" y="864" type="curve"/>
      <point x="252" y="864"/>
      <point x="250" y="899"/>
      <point x="250" y="933" type="curve"/>
      <point x="172" y="933"/>
      <point x="257" y="933"/>
    </contour>
  </outline>
</glyph>
<glyph name="AE" format="1">
  <advance width="712"/>
  <unicode hex="00C6"/>
  <outline>
    <contour>
      <point x="92" y="68" type="curve"/>
      <point x="-12" y="68"/>
      <point x="96" y="68"/>
      <point x="-8" y="68" type="curve"/>
      <point x="-8" y="0"/>
      <point x="-8" y="68"/>
      <point x="-8" y="0" type="curve"/>
      <point x="27" y="0"/>
      <point x="57" y="0"/>
      <point x="92" y="0" type="curve"/>
      <point x="92" y="68"/>
      <point x="92" y="0"/>
    </contour>
    <contour>
      <point x="92" y="0" type="curve"/>
      <point x="135" y="0"/>
      <point x="84" y="0"/>
      <point x="215" y="0" type="curve"/>
      <point x="215" y="68"/>
      <point x="215" y="0"/>
      <point x="215" y="68" type="curve"/>
      <point x="84" y="68"/>
      <point x="223" y="68"/>
      <point x="92" y="68" type="curve"/>
      <point x="92" y="0"/>
      <point x="92" y="68"/>
    </contour>
    <contour>
      <point x="378" y="278" type="curve"/>
      <point x="313" y="278"/>
      <point x="259" y="278"/>
      <point x="192" y="278" type="curve"/>
      <point x="157" y="206"/>
      <point x="192" y="278"/>
      <point x="157" y="206" type="curve"/>
      <point x="244" y="206"/>
      <point x="319" y="206"/>
      <point x="406" y="206" type="curve"/>
      <point x="378" y="278"/>
      <point x="406" y="206"/>
    </contour>
    <contour>
      <point x="132" y="0" type="curve"/>
      <point x="444" y="722" type="line"/>
      <point x="365" y="722"/>
      <point x="444" y="722"/>
      <point x="366" y="722" type="curve"/>
      <point x="38" y="0" type="line"/>
      <point x="132" y="0"/>
      <point x="38" y="0"/>
    </contour>
    <contour>
      <point x="671" y="34" type="curve"/>
      <point x="671" y="154"/>
      <point x="671" y="29"/>
      <point x="671" y="149" type="curve"/>
      <point x="602" y="149"/>
      <point x="671" y="149"/>
      <point x="602" y="149" type="curve"/>
      <point x="602" y="29"/>
      <point x="602" y="154"/>
      <point x="602" y="34" type="curve"/>
      <point x="671" y="34"/>
      <point x="602" y="34"/>
    </contour>
    <contour>
      <point x="580" y="688" type="curve"/>
      <point x="580" y="568"/>
      <point x="580" y="693"/>
      <point x="580" y="573" type="curve"/>
      <point x="650" y="573"/>
      <point x="580" y="573"/>
      <point x="650" y="573" type="curve"/>
      <point x="650" y="693"/>
      <point x="650" y="568"/>
      <point x="650" y="688" type="curve"/>
      <point x="580" y="688"/>
      <point x="650" y="688"/>
    </contour>
    <contour>
      <point x="398" y="68" type="curve"/>
      <point x="268" y="68"/>
      <point x="409" y="68"/>
      <point x="279" y="68" type="curve"/>
      <point x="279" y="0"/>
      <point x="279" y="68"/>
      <point x="279" y="0" type="curve"/>
      <point x="323" y="0"/>
      <point x="356" y="0"/>
      <point x="398" y="0" type="curve"/>
      <point x="398" y="68"/>
      <point x="398" y="0"/>
    </contour>
    <contour>
      <point x="398" y="722" type="curve"/>
      <point x="356" y="722"/>
      <point x="323" y="722"/>
      <point x="279" y="722" type="curve"/>
      <point x="279" y="654"/>
      <point x="279" y="722"/>
      <point x="279" y="654" type="curve"/>
      <point x="409" y="654"/>
      <point x="268" y="654"/>
      <point x="398" y="654" type="curve"/>
      <point x="398" y="722"/>
      <point x="398" y="654"/>
    </contour>
    <contour>
      <point x="401" y="339" type="curve"/>
      <point x="470" y="339"/>
      <point x="540" y="339"/>
      <point x="610" y="339" type="curve"/>
      <point x="610" y="408"/>
      <point x="610" y="339"/>
      <point x="610" y="408" type="curve"/>
      <point x="540" y="408"/>
      <point x="470" y="408"/>
      <point x="401" y="408" type="curve"/>
      <point x="401" y="339"/>
      <point x="401" y="408"/>
    </contour>
    <contour>
      <point x="391" y="654" type="curve"/>
      <point x="478" y="654"/>
      <point x="563" y="654"/>
      <point x="650" y="654" type="curve"/>
      <point x="650" y="722"/>
      <point x="650" y="654"/>
      <point x="650" y="722" type="curve"/>
      <point x="563" y="722"/>
      <point x="478" y="722"/>
      <point x="391" y="722" type="curve"/>
      <point x="391" y="654"/>
      <point x="391" y="722"/>
    </contour>
    <contour>
      <point x="441" y="0" type="curve"/>
      <point x="441" y="722" type="line"/>
      <point x="356" y="722"/>
      <point x="441" y="722"/>
      <point x="356" y="722" type="curve"/>
      <point x="356" y="481"/>
      <point x="356" y="241"/>
      <point x="356" y="0" type="curve"/>
      <point x="441" y="0"/>
      <point x="356" y="0"/>
    </contour>
    <contour>
      <point x="391" y="0" type="curve"/>
      <point x="485" y="0"/>
      <point x="578" y="0"/>
      <point x="671" y="0" type="curve"/>
      <point x="671" y="68"/>
      <point x="671" y="0"/>
      <point x="671" y="68" type="curve"/>
      <point x="578" y="68"/>
      <point x="485" y="68"/>
      <point x="391" y="68" type="curve"/>
      <point x="391" y="0"/>
      <point x="391" y="68"/>
    </contour>
  </outline>
</glyph>
<glyph name="Ccedilla" format="1">
  <advance width="516"/>
  <unicode hex="00C7"/>
  <outline>
    <contour>
      <point x="389" y="654" type="curve"/>
      <point x="389" y="534"/>
      <point x="389" y="659"/>
      <point x="389" y="539" type="curve"/>
      <point x="458" y="539"/>
      <point x="389" y="539"/>
      <point x="458" y="539" type="curve"/>
      <point x="458" y="659"/>
      <point x="458" y="534"/>
      <point x="458" y="654" type="curve"/>
      <point x="389" y="654"/>
      <point x="458" y="654"/>
    </contour>
    <contour>
      <point x="458" y="654" type="curve"/>
      <point x="414" y="696"/>
      <point x="358" y="727"/>
      <point x="292" y="727" type="curve"/>
      <point x="110" y="727"/>
      <point x="55" y="559"/>
      <point x="55" y="345" type="curve"/>
      <point x="55" y="149"/>
      <point x="109" y="-5"/>
      <point x="280" y="-5" type="curve"/>
      <point x="367" y="-5"/>
      <point x="423" y="32"/>
      <point x="471" y="99" type="curve"/>
      <point x="418" y="149"/>
      <point x="471" y="99"/>
      <point x="418" y="149" type="curve"/>
      <point x="381" y="101"/>
      <point x="346" y="68"/>
      <point x="284" y="68" type="curve"/>
      <point x="160" y="68"/>
      <point x="142" y="197"/>
      <point x="142" y="348" type="curve"/>
      <point x="142" y="513"/>
      <point x="158" y="655"/>
      <point x="289" y="655" type="curve"/>
      <point x="338" y="655"/>
      <point x="380" y="631"/>
      <point x="412" y="600" type="curve"/>
      <point x="458" y="654"/>
      <point x="412" y="600"/>
    </contour>
    <contour>
      <point x="241" y="47" type="curve"/>
      <point x="231" y="23"/>
      <point x="210" y="-40"/>
      <point x="201" y="-63" type="curve"/>
      <point x="260" y="-118"/>
      <point x="201" y="-63"/>
      <point x="260" y="-118" type="curve"/>
      <point x="270" y="-91"/>
      <point x="297" y="-27"/>
      <point x="306" y="-1" type="curve"/>
      <point x="241" y="47"/>
      <point x="306" y="-1"/>
    </contour>
    <contour>
      <point x="260" y="-118" type="curve"/>
      <point x="266" y="-112"/>
      <point x="271" y="-108"/>
      <point x="279" y="-108" type="curve"/>
      <point x="295" y="-108"/>
      <point x="298" y="-122"/>
      <point x="298" y="-141" type="curve"/>
      <point x="298" y="-162"/>
      <point x="287" y="-176"/>
      <point x="267" y="-176" type="curve"/>
      <point x="251" y="-176"/>
      <point x="237" y="-172"/>
      <point x="225" y="-161" type="curve"/>
      <point x="191" y="-211"/>
      <point x="225" y="-161"/>
      <point x="191" y="-211" type="curve"/>
      <point x="213" y="-229"/>
      <point x="234" y="-237"/>
      <point x="262" y="-237" type="curve"/>
      <point x="317" y="-237"/>
      <point x="349" y="-198"/>
      <point x="349" y="-140" type="curve"/>
      <point x="349" y="-84"/>
      <point x="322" y="-43"/>
      <point x="270" y="-43" type="curve"/>
      <point x="243" y="-43"/>
      <point x="224" y="-48"/>
      <point x="201" y="-63" type="curve"/>
      <point x="260" y="-118"/>
      <point x="201" y="-63"/>
    </contour>
  </outline>
</glyph>
<glyph name="Edieresis" format="1">
  <advance width="485"/>
  <unicode hex="00CB"/>
  <outline>
    <contour>
      <point x="443" y="34" type="curve"/>
      <point x="443" y="154"/>
      <point x="443" y="29"/>
      <point x="443" y="149" type="curve"/>
      <point x="374" y="149"/>
      <point x="443" y="149"/>
      <point x="374" y="149" type="curve"/>
      <point x="374" y="29"/>
      <point x="374" y="154"/>
      <point x="374" y="34" type="curve"/>
      <point x="443" y="34"/>
      <point x="374" y="34"/>
    </contour>
    <contour>
      <point x="353" y="688" type="curve"/>
      <point x="353" y="568"/>
      <point x="353" y="693"/>
      <point x="353" y="573" type="curve"/>
      <point x="421" y="573"/>
      <point x="353" y="573"/>
      <point x="421" y="573" type="curve"/>
      <point x="421" y="693"/>
      <point x="421" y="568"/>
      <point x="421" y="688" type="curve"/>
      <point x="353" y="688"/>
      <point x="421" y="688"/>
    </contour>
    <contour>
      <point x="170" y="68" type="curve"/>
      <point x="40" y="68"/>
      <point x="181" y="68"/>
      <point x="51" y="68" type="curve"/>
      <point x="51" y="0"/>
      <point x="51" y="68"/>
      <point x="51" y="0" type="curve"/>
      <point x="94" y="0"/>
      <point x="127" y="0"/>
      <point x="170" y="0" type="curve"/>
      <point x="170" y="68"/>
      <point x="170" y="0"/>
    </contour>
    <contour>
      <point x="170" y="722" type="curve"/>
      <point x="127" y="722"/>
      <point x="94" y="722"/>
      <point x="51" y="722" type="curve"/>
      <point x="51" y="654"/>
      <point x="51" y="722"/>
      <point x="51" y="654" type="curve"/>
      <point x="181" y="654"/>
      <point x="40" y="654"/>
      <point x="170" y="654" type="curve"/>
      <point x="170" y="722"/>
      <point x="170" y="654"/>
    </contour>
    <contour>
      <point x="172" y="339" type="curve"/>
      <point x="241" y="339"/>
      <point x="312" y="339"/>
      <point x="381" y="339" type="curve"/>
      <point x="381" y="408"/>
      <point x="381" y="339"/>
      <point x="381" y="408" type="curve"/>
      <point x="312" y="408"/>
      <point x="241" y="408"/>
      <point x="172" y="408" type="curve"/>
      <point x="172" y="339"/>
      <point x="172" y="408"/>
    </contour>
    <contour>
      <point x="163" y="654" type="curve"/>
      <point x="249" y="654"/>
      <point x="335" y="654"/>
      <point x="421" y="654" type="curve"/>
      <point x="421" y="722"/>
      <point x="421" y="654"/>
      <point x="421" y="722" type="curve"/>
      <point x="335" y="722"/>
      <point x="249" y="722"/>
      <point x="163" y="722" type="curve"/>
      <point x="163" y="654"/>
      <point x="163" y="722"/>
    </contour>
    <contour>
      <point x="212" y="0" type="curve"/>
      <point x="212" y="722" type="line"/>
      <point x="127" y="722"/>
      <point x="212" y="722"/>
      <point x="127" y="722" type="curve"/>
      <point x="127" y="481"/>
      <point x="127" y="241"/>
      <point x="127" y="0" type="curve"/>
      <point x="212" y="0"/>
      <point x="127" y="0"/>
    </contour>
    <contour>
      <point x="163" y="0" type="curve"/>
      <point x="256" y="0"/>
      <point x="349" y="0"/>
      <point x="443" y="0" type="curve"/>
      <point x="443" y="68"/>
      <point x="443" y="0"/>
      <point x="443" y="68" type="curve"/>
      <point x="349" y="68"/>
      <point x="256" y="68"/>
      <point x="163" y="68" type="curve"/>
      <point x="163" y="0"/>
      <point x="163" y="68"/>
    </contour>
    <contour>
      <point x="233" y="841" type="curve"/>
      <point x="233" y="871"/>
      <point x="213" y="887"/>
      <point x="187" y="887" type="curve"/>
      <point x="160" y="887"/>
      <point x="142" y="870"/>
      <point x="142" y="841" type="curve"/>
      <point x="235" y="841"/>
      <point x="140" y="841"/>
      <point x="233" y="841" type="curve"/>
      <point x="233" y="811"/>
      <point x="215" y="796"/>
      <point x="187" y="796" type="curve"/>
      <point x="159" y="796"/>
      <point x="142" y="811"/>
      <point x="142" y="841" type="curve"/>
      <point x="235" y="841"/>
      <point x="140" y="841"/>
    </contour>
    <contour>
      <point x="371" y="841" type="curve"/>
      <point x="371" y="871"/>
      <point x="351" y="887"/>
      <point x="324" y="887" type="curve"/>
      <point x="296" y="887"/>
      <point x="279" y="870"/>
      <point x="279" y="841" type="curve"/>
      <point x="372" y="841"/>
      <point x="277" y="841"/>
      <point x="371" y="841" type="curve"/>
      <point x="371" y="811"/>
      <point x="351" y="796"/>
      <point x="324" y="796" type="curve"/>
      <point x="296" y="796"/>
      <point x="279" y="811"/>
      <point x="279" y="841" type="curve"/>
      <point x="372" y="841"/>
      <point x="277" y="841"/>
    </contour>
  </outline>
</glyph>
